%TF.GenerationSoftware,KiCad,Pcbnew,9.0.7*%
%TF.CreationDate,2026-04-03T00:34:42-04:00*%
%TF.ProjectId,spacex-sbc,73706163-6578-42d7-9362-632e6b696361,rev?*%
%TF.SameCoordinates,Original*%
%TF.FileFunction,Copper,L6,Inr*%
%TF.FilePolarity,Positive*%
%FSLAX46Y46*%
G04 Gerber Fmt 4.6, Leading zero omitted, Abs format (unit mm)*
G04 Created by KiCad (PCBNEW 9.0.7) date 2026-04-03 00:34:42*
%MOMM*%
%LPD*%
G01*
G04 APERTURE LIST*
G04 Aperture macros list*
%AMRoundRect*
0 Rectangle with rounded corners*
0 $1 Rounding radius*
0 $2 $3 $4 $5 $6 $7 $8 $9 X,Y pos of 4 corners*
0 Add a 4 corners polygon primitive as box body*
4,1,4,$2,$3,$4,$5,$6,$7,$8,$9,$2,$3,0*
0 Add four circle primitives for the rounded corners*
1,1,$1+$1,$2,$3*
1,1,$1+$1,$4,$5*
1,1,$1+$1,$6,$7*
1,1,$1+$1,$8,$9*
0 Add four rect primitives between the rounded corners*
20,1,$1+$1,$2,$3,$4,$5,0*
20,1,$1+$1,$4,$5,$6,$7,0*
20,1,$1+$1,$6,$7,$8,$9,0*
20,1,$1+$1,$8,$9,$2,$3,0*%
G04 Aperture macros list end*
%TA.AperFunction,ComponentPad*%
%ADD10C,6.400000*%
%TD*%
%TA.AperFunction,ComponentPad*%
%ADD11C,0.600000*%
%TD*%
%TA.AperFunction,ComponentPad*%
%ADD12RoundRect,0.250001X0.759999X-0.499999X0.759999X0.499999X-0.759999X0.499999X-0.759999X-0.499999X0*%
%TD*%
%TA.AperFunction,ComponentPad*%
%ADD13O,2.020000X1.500000*%
%TD*%
%TA.AperFunction,ComponentPad*%
%ADD14RoundRect,0.250000X0.350000X0.350000X-0.350000X0.350000X-0.350000X-0.350000X0.350000X-0.350000X0*%
%TD*%
%TA.AperFunction,ComponentPad*%
%ADD15C,1.200000*%
%TD*%
%TA.AperFunction,ComponentPad*%
%ADD16R,1.700000X1.700000*%
%TD*%
%TA.AperFunction,ComponentPad*%
%ADD17C,1.700000*%
%TD*%
%TA.AperFunction,ViaPad*%
%ADD18C,0.600000*%
%TD*%
G04 APERTURE END LIST*
D10*
%TO.N,GND*%
%TO.C,H4*%
X181000000Y-139900000D03*
%TD*%
D11*
%TO.N,GND*%
%TO.C,U9*%
X154023600Y-138172600D03*
X154023600Y-136972600D03*
X154023600Y-135672600D03*
X154023600Y-134572600D03*
X152823600Y-138172600D03*
X152823600Y-136972600D03*
X152823600Y-135672600D03*
X152823600Y-134572600D03*
%TD*%
D12*
%TO.N,VDC*%
%TO.C,J3*%
X120600000Y-130800000D03*
D13*
%TO.N,GND*%
X120600000Y-127800000D03*
%TD*%
D10*
%TO.N,GND*%
%TO.C,H3*%
X114350800Y-73888600D03*
%TD*%
%TO.N,GND*%
%TO.C,H2*%
X114300000Y-140100000D03*
%TD*%
D14*
%TO.N,+5V*%
%TO.C,J2*%
X117900000Y-118800000D03*
D15*
X117900000Y-116800000D03*
%TO.N,GND*%
X117900000Y-114800000D03*
X117900000Y-112800000D03*
X117900000Y-110800000D03*
%TO.N,SERIAL_TTL_RX*%
X117900000Y-108800000D03*
%TO.N,SERIAL_TTL_TX*%
X117900000Y-106800000D03*
%TO.N,GND*%
X117900000Y-104800000D03*
%TO.N,RS232_DOUT*%
X117900000Y-102800000D03*
%TO.N,RS232_RIN*%
X117900000Y-100800000D03*
%TO.N,GND*%
X117900000Y-98800000D03*
%TO.N,DIGITAL_1*%
X117900000Y-96800000D03*
%TO.N,DIGITAL_2*%
X117900000Y-94800000D03*
%TO.N,DIGITAL_3*%
X117900000Y-92800000D03*
%TO.N,DIGITAL_4*%
X117900000Y-90800000D03*
%TO.N,DIGITAL_5*%
X117900000Y-88800000D03*
%TO.N,DIGITAL_6*%
X117900000Y-86800000D03*
%TO.N,DIGITAL_7*%
X117900000Y-84800000D03*
%TO.N,DIGITAL_8*%
X117900000Y-82800000D03*
%TO.N,GND*%
X117900000Y-80800000D03*
%TO.N,+5V*%
X115900000Y-118800000D03*
X115900000Y-116800000D03*
%TO.N,GND*%
X115900000Y-114800000D03*
%TO.N,CANH*%
X115900000Y-112800000D03*
%TO.N,CANL*%
X115900000Y-110800000D03*
%TO.N,GND*%
X115900000Y-108800000D03*
%TO.N,ANALOG_01*%
X115900000Y-106800000D03*
%TO.N,ANALOG_02*%
X115900000Y-104800000D03*
%TO.N,ANALOG_03*%
X115900000Y-102800000D03*
%TO.N,ANALOG_04*%
X115900000Y-100800000D03*
%TO.N,ANALOG_05*%
X115900000Y-98800000D03*
%TO.N,ANALOG_06*%
X115900000Y-96800000D03*
%TO.N,ANALOG_07*%
X115900000Y-94800000D03*
%TO.N,ANALOG_08*%
X115900000Y-92800000D03*
%TO.N,ANALOG_09*%
X115900000Y-90800000D03*
%TO.N,ANALOG_10*%
X115900000Y-88800000D03*
%TO.N,ANALOG_11*%
X115900000Y-86800000D03*
%TO.N,ANALOG_12*%
X115900000Y-84800000D03*
%TO.N,ANALOG_13*%
X115900000Y-82800000D03*
%TO.N,GND*%
X115900000Y-80800000D03*
%TD*%
D11*
%TO.N,GND*%
%TO.C,U6*%
X131648200Y-138263000D03*
X131648200Y-137063000D03*
X131648200Y-135763000D03*
X131648200Y-134663000D03*
X130448200Y-138263000D03*
X130448200Y-137063000D03*
X130448200Y-135763000D03*
X130448200Y-134663000D03*
%TD*%
D16*
%TO.N,+3V3*%
%TO.C,J1*%
X129516800Y-73103600D03*
D17*
%TO.N,+5V*%
X129516800Y-75643600D03*
%TO.N,RPI_GPIO2*%
X132056800Y-73103600D03*
%TO.N,+5V*%
X132056800Y-75643600D03*
%TO.N,RPI_GPIO3*%
X134596800Y-73103600D03*
%TO.N,GND*%
X134596800Y-75643600D03*
%TO.N,RPI_GPIO4*%
X137136800Y-73103600D03*
%TO.N,RPI_GPIO14*%
X137136800Y-75643600D03*
%TO.N,GND*%
X139676800Y-73103600D03*
%TO.N,RPI_GPIO15*%
X139676800Y-75643600D03*
%TO.N,RPI_GPIO17*%
X142216800Y-73103600D03*
%TO.N,RPI_GPIO18*%
X142216800Y-75643600D03*
%TO.N,RPI_GPIO27*%
X144756800Y-73103600D03*
%TO.N,GND*%
X144756800Y-75643600D03*
%TO.N,RPI_GPIO22*%
X147296800Y-73103600D03*
%TO.N,RPI_GPIO23*%
X147296800Y-75643600D03*
%TO.N,+3V3*%
X149836800Y-73103600D03*
%TO.N,RPI_GPIO24*%
X149836800Y-75643600D03*
%TO.N,RPI_GPIO10*%
X152376800Y-73103600D03*
%TO.N,GND*%
X152376800Y-75643600D03*
%TO.N,RPI_GPIO9*%
X154916800Y-73103600D03*
%TO.N,RPI_GPIO25*%
X154916800Y-75643600D03*
%TO.N,RPI_GPIO11*%
X157456800Y-73103600D03*
%TO.N,RPI_GPIO8*%
X157456800Y-75643600D03*
%TO.N,GND*%
X159996800Y-73103600D03*
%TO.N,RPI_GPIO7*%
X159996800Y-75643600D03*
%TD*%
D10*
%TO.N,GND*%
%TO.C,H1*%
X180400000Y-74500000D03*
%TD*%
D18*
%TO.N,*%
X166400000Y-123500000D03*
X160000000Y-123500000D03*
X138500000Y-123500000D03*
X117700000Y-123500000D03*
X130500000Y-123500000D03*
X128900000Y-123500000D03*
X143213000Y-131218000D03*
X161600000Y-123500000D03*
X132100000Y-123500000D03*
X164392000Y-131478200D03*
X112900000Y-123500000D03*
X142513000Y-132218000D03*
X124100000Y-123500000D03*
X142213000Y-127718000D03*
X158400000Y-123500000D03*
X156800000Y-123500000D03*
X120900000Y-123500000D03*
X164792000Y-128578200D03*
X156800000Y-123500000D03*
X163792000Y-132678200D03*
X165492000Y-131378200D03*
X136900000Y-123500000D03*
X119300000Y-123500000D03*
X163200000Y-123500000D03*
X163200000Y-123500000D03*
X163592000Y-128578200D03*
X133700000Y-123500000D03*
X141313000Y-128418000D03*
X122500000Y-123500000D03*
X120900000Y-123500000D03*
X141700000Y-123500000D03*
X136900000Y-123500000D03*
X142113000Y-131318000D03*
X141513000Y-132518000D03*
X164800000Y-123500000D03*
X143213000Y-130118000D03*
X160000000Y-123500000D03*
X166400000Y-123500000D03*
X143300000Y-123500000D03*
X142513000Y-128418000D03*
X128900000Y-123500000D03*
X158400000Y-123500000D03*
X142913000Y-129118000D03*
X155200000Y-123500000D03*
X124100000Y-123500000D03*
X114500000Y-123500000D03*
X117700000Y-123500000D03*
X140513000Y-127618000D03*
X125700000Y-123500000D03*
X164492000Y-127878200D03*
X162792000Y-127778200D03*
X127300000Y-123500000D03*
X127300000Y-123500000D03*
X114500000Y-123500000D03*
X136900000Y-123500000D03*
X122500000Y-123500000D03*
X133700000Y-123500000D03*
X125700000Y-123500000D03*
X138500000Y-123500000D03*
X164800000Y-123500000D03*
X130500000Y-123500000D03*
X164792000Y-132378200D03*
X140100000Y-123500000D03*
X161600000Y-123500000D03*
X116100000Y-123500000D03*
X164592000Y-130378200D03*
X132100000Y-123500000D03*
X164192000Y-129378200D03*
X135300000Y-123500000D03*
X119300000Y-123500000D03*
X138500000Y-123500000D03*
X141913000Y-129218000D03*
X142313000Y-130218000D03*
X140100000Y-123500000D03*
X141700000Y-123500000D03*
X135300000Y-123500000D03*
X116100000Y-123500000D03*
%TO.N,unconnected-(U10-VI-Pad1)*%
X165192000Y-129278200D03*
%TO.N,unconnected-(U10-GND-Pad2)*%
X165492000Y-130278200D03*
%TD*%
M02*
