M48
; DRILL file {KiCad 9.0.7} date 2026-04-03T00:34:50-0400
; FORMAT={-:-/ absolute / metric / decimal}
; #@! TF.CreationDate,2026-04-03T00:34:50-04:00
; #@! TF.GenerationSoftware,Kicad,Pcbnew,9.0.7
; #@! TF.FileFunction,Plated,1,8,PTH
FMAT,2
METRIC
; #@! TA.AperFunction,Plated,PTH,ViaDrill
T1C0.300
; #@! TA.AperFunction,Plated,PTH,ComponentDrill
T2C0.300
; #@! TA.AperFunction,Plated,PTH,ComponentDrill
T3C0.800
; #@! TA.AperFunction,Plated,PTH,ComponentDrill
T4C1.000
; #@! TA.AperFunction,Plated,PTH,ComponentDrill
T5C1.020
; #@! TA.AperFunction,Plated,PTH,ComponentDrill
T6C3.200
%
G90
G05
T1
X112.9Y-123.5
X114.5Y-123.5
X114.5Y-123.5
X116.1Y-123.5
X116.1Y-123.5
X117.7Y-123.5
X117.7Y-123.5
X119.3Y-123.5
X119.3Y-123.5
X120.9Y-123.5
X120.9Y-123.5
X122.5Y-123.5
X122.5Y-123.5
X124.1Y-123.5
X124.1Y-123.5
X125.7Y-123.5
X125.7Y-123.5
X127.3Y-123.5
X127.3Y-123.5
X128.9Y-123.5
X128.9Y-123.5
X130.5Y-123.5
X130.5Y-123.5
X132.1Y-123.5
X132.1Y-123.5
X133.7Y-123.5
X133.7Y-123.5
X135.3Y-123.5
X135.3Y-123.5
X136.9Y-123.5
X136.9Y-123.5
X136.9Y-123.5
X138.5Y-123.5
X138.5Y-123.5
X138.5Y-123.5
X140.1Y-123.5
X140.1Y-123.5
X140.513Y-127.618
X141.313Y-128.418
X141.513Y-132.518
X141.7Y-123.5
X141.7Y-123.5
X141.913Y-129.218
X142.113Y-131.318
X142.213Y-127.718
X142.313Y-130.218
X142.513Y-128.418
X142.513Y-132.218
X142.913Y-129.118
X143.213Y-130.118
X143.213Y-131.218
X143.3Y-123.5
X155.2Y-123.5
X156.8Y-123.5
X156.8Y-123.5
X158.4Y-123.5
X158.4Y-123.5
X160.0Y-123.5
X160.0Y-123.5
X161.6Y-123.5
X161.6Y-123.5
X162.792Y-127.778
X163.2Y-123.5
X163.2Y-123.5
X163.592Y-128.578
X163.792Y-132.678
X164.192Y-129.378
X164.392Y-131.478
X164.492Y-127.878
X164.592Y-130.378
X164.792Y-128.578
X164.792Y-132.378
X164.8Y-123.5
X164.8Y-123.5
X165.192Y-129.278
X165.492Y-130.278
X165.492Y-131.378
X166.4Y-123.5
X166.4Y-123.5
T2
X130.448Y-134.663
X130.448Y-135.763
X130.448Y-137.063
X130.448Y-138.263
X131.648Y-134.663
X131.648Y-135.763
X131.648Y-137.063
X131.648Y-138.263
X152.824Y-134.573
X152.824Y-135.673
X152.824Y-136.973
X152.824Y-138.173
X154.024Y-134.573
X154.024Y-135.673
X154.024Y-136.973
X154.024Y-138.173
T3
X115.9Y-80.8
X115.9Y-82.8
X115.9Y-84.8
X115.9Y-86.8
X115.9Y-88.8
X115.9Y-90.8
X115.9Y-92.8
X115.9Y-94.8
X115.9Y-96.8
X115.9Y-98.8
X115.9Y-100.8
X115.9Y-102.8
X115.9Y-104.8
X115.9Y-106.8
X115.9Y-108.8
X115.9Y-110.8
X115.9Y-112.8
X115.9Y-114.8
X115.9Y-116.8
X115.9Y-118.8
X117.9Y-80.8
X117.9Y-82.8
X117.9Y-84.8
X117.9Y-86.8
X117.9Y-88.8
X117.9Y-90.8
X117.9Y-92.8
X117.9Y-94.8
X117.9Y-96.8
X117.9Y-98.8
X117.9Y-100.8
X117.9Y-102.8
X117.9Y-104.8
X117.9Y-106.8
X117.9Y-108.8
X117.9Y-110.8
X117.9Y-112.8
X117.9Y-114.8
X117.9Y-116.8
X117.9Y-118.8
T4
X129.517Y-73.104
X129.517Y-75.644
X132.057Y-73.104
X132.057Y-75.644
X134.597Y-73.104
X134.597Y-75.644
X137.137Y-73.104
X137.137Y-75.644
X139.677Y-73.104
X139.677Y-75.644
X142.217Y-73.104
X142.217Y-75.644
X144.757Y-73.104
X144.757Y-75.644
X147.297Y-73.104
X147.297Y-75.644
X149.837Y-73.104
X149.837Y-75.644
X152.377Y-73.104
X152.377Y-75.644
X154.917Y-73.104
X154.917Y-75.644
X157.457Y-73.104
X157.457Y-75.644
X159.997Y-73.104
X159.997Y-75.644
T5
X120.6Y-127.8
X120.6Y-130.8
T6
X114.3Y-140.1
X114.351Y-73.889
X180.4Y-74.5
X181.0Y-139.9
M30
