%TF.GenerationSoftware,KiCad,Pcbnew,9.0.7*%
%TF.CreationDate,2026-04-03T00:34:45-04:00*%
%TF.ProjectId,spacex-sbc,73706163-6578-42d7-9362-632e6b696361,rev?*%
%TF.SameCoordinates,Original*%
%TF.FileFunction,Soldermask,Top*%
%TF.FilePolarity,Negative*%
%FSLAX46Y46*%
G04 Gerber Fmt 4.6, Leading zero omitted, Abs format (unit mm)*
G04 Created by KiCad (PCBNEW 9.0.7) date 2026-04-03 00:34:45*
%MOMM*%
%LPD*%
G01*
G04 APERTURE LIST*
G04 Aperture macros list*
%AMRoundRect*
0 Rectangle with rounded corners*
0 $1 Rounding radius*
0 $2 $3 $4 $5 $6 $7 $8 $9 X,Y pos of 4 corners*
0 Add a 4 corners polygon primitive as box body*
4,1,4,$2,$3,$4,$5,$6,$7,$8,$9,$2,$3,0*
0 Add four circle primitives for the rounded corners*
1,1,$1+$1,$2,$3*
1,1,$1+$1,$4,$5*
1,1,$1+$1,$6,$7*
1,1,$1+$1,$8,$9*
0 Add four rect primitives between the rounded corners*
20,1,$1+$1,$2,$3,$4,$5,0*
20,1,$1+$1,$4,$5,$6,$7,0*
20,1,$1+$1,$6,$7,$8,$9,0*
20,1,$1+$1,$8,$9,$2,$3,0*%
G04 Aperture macros list end*
%ADD10C,6.400000*%
%ADD11R,2.400000X1.500000*%
%ADD12R,1.000000X0.400000*%
%ADD13RoundRect,0.140000X-0.170000X0.140000X-0.170000X-0.140000X0.170000X-0.140000X0.170000X0.140000X0*%
%ADD14RoundRect,0.135000X0.135000X0.185000X-0.135000X0.185000X-0.135000X-0.185000X0.135000X-0.185000X0*%
%ADD15C,0.420000*%
%ADD16RoundRect,0.250000X1.250000X0.550000X-1.250000X0.550000X-1.250000X-0.550000X1.250000X-0.550000X0*%
%ADD17RoundRect,0.150000X0.825000X0.150000X-0.825000X0.150000X-0.825000X-0.150000X0.825000X-0.150000X0*%
%ADD18R,1.550000X0.600000*%
%ADD19R,2.600000X3.100000*%
%ADD20C,3.000000*%
%ADD21RoundRect,0.250001X0.759999X-0.499999X0.759999X0.499999X-0.759999X0.499999X-0.759999X-0.499999X0*%
%ADD22O,2.020000X1.500000*%
%ADD23C,0.330000*%
%ADD24RoundRect,0.250000X0.650000X-0.325000X0.650000X0.325000X-0.650000X0.325000X-0.650000X-0.325000X0*%
%ADD25RoundRect,0.218750X-0.218750X-0.256250X0.218750X-0.256250X0.218750X0.256250X-0.218750X0.256250X0*%
%ADD26RoundRect,0.140000X0.170000X-0.140000X0.170000X0.140000X-0.170000X0.140000X-0.170000X-0.140000X0*%
%ADD27RoundRect,0.250000X0.350000X0.350000X-0.350000X0.350000X-0.350000X-0.350000X0.350000X-0.350000X0*%
%ADD28C,1.200000*%
%ADD29RoundRect,0.250000X-0.325000X-0.250000X0.325000X-0.250000X0.325000X0.250000X-0.325000X0.250000X0*%
%ADD30RoundRect,0.062500X-0.350000X-0.062500X0.350000X-0.062500X0.350000X0.062500X-0.350000X0.062500X0*%
%ADD31RoundRect,0.062500X-0.062500X-0.350000X0.062500X-0.350000X0.062500X0.350000X-0.062500X0.350000X0*%
%ADD32R,2.700000X2.700000*%
%ADD33C,0.275000*%
%ADD34R,1.700000X1.700000*%
%ADD35C,1.700000*%
%ADD36R,5.100000X2.500000*%
%ADD37C,10.200000*%
%ADD38RoundRect,0.135000X-0.135000X-0.185000X0.135000X-0.185000X0.135000X0.185000X-0.135000X0.185000X0*%
%ADD39C,0.360000*%
G04 APERTURE END LIST*
D10*
%TO.C,H4*%
X181000000Y-139900000D03*
%TD*%
D11*
%TO.C,L1*%
X139502000Y-140085600D03*
X139502000Y-134585600D03*
%TD*%
D12*
%TO.C,U4*%
X125400000Y-107925000D03*
X125400000Y-108575000D03*
X125400000Y-109225000D03*
X125400000Y-109875000D03*
X125400000Y-110525000D03*
X125400000Y-111175000D03*
X125400000Y-111825000D03*
X125400000Y-112475000D03*
X131200000Y-112475000D03*
X131200000Y-111825000D03*
X131200000Y-111175000D03*
X131200000Y-110525000D03*
X131200000Y-109875000D03*
X131200000Y-109225000D03*
X131200000Y-108575000D03*
X131200000Y-107925000D03*
%TD*%
D13*
%TO.C,C9*%
X133708200Y-139708000D03*
X133708200Y-140668000D03*
%TD*%
D14*
%TO.C,R1*%
X133802000Y-132945600D03*
X132782000Y-132945600D03*
%TD*%
%TO.C,R3*%
X156098000Y-132836200D03*
X155078000Y-132836200D03*
%TD*%
D15*
%TO.C,U5*%
X178800000Y-98843200D03*
X178000000Y-98843200D03*
X177200000Y-98843200D03*
X174000000Y-98843200D03*
X173200000Y-98843200D03*
X172400000Y-98843200D03*
X178800000Y-98043200D03*
X178000000Y-98043200D03*
X177200000Y-98043200D03*
X174000000Y-98043200D03*
X173200000Y-98043200D03*
X172400000Y-98043200D03*
X178800000Y-97243200D03*
X178000000Y-97243200D03*
X177200000Y-97243200D03*
X174000000Y-97243200D03*
X173200000Y-97243200D03*
X172400000Y-97243200D03*
X178800000Y-96443200D03*
X178000000Y-96443200D03*
X177200000Y-96443200D03*
X174000000Y-96443200D03*
X173200000Y-96443200D03*
X172400000Y-96443200D03*
X178800000Y-95643200D03*
X178000000Y-95643200D03*
X177200000Y-95643200D03*
X174000000Y-95643200D03*
X173200000Y-95643200D03*
X172400000Y-95643200D03*
X178800000Y-94843200D03*
X178000000Y-94843200D03*
X177200000Y-94843200D03*
X174000000Y-94843200D03*
X173200000Y-94843200D03*
X172400000Y-94843200D03*
X178800000Y-94043200D03*
X178000000Y-94043200D03*
X177200000Y-94043200D03*
X174000000Y-94043200D03*
X173200000Y-94043200D03*
X172400000Y-94043200D03*
X178800000Y-93243200D03*
X178000000Y-93243200D03*
X177200000Y-93243200D03*
X174000000Y-93243200D03*
X173200000Y-93243200D03*
X172400000Y-93243200D03*
X178800000Y-92443200D03*
X178000000Y-92443200D03*
X177200000Y-92443200D03*
X174000000Y-92443200D03*
X173200000Y-92443200D03*
X172400000Y-92443200D03*
X178800000Y-91643200D03*
X178000000Y-91643200D03*
X177200000Y-91643200D03*
X174000000Y-91643200D03*
X173200000Y-91643200D03*
X172400000Y-91643200D03*
X178800000Y-90843200D03*
X178000000Y-90843200D03*
X177200000Y-90843200D03*
X174000000Y-90843200D03*
X173200000Y-90843200D03*
X172400000Y-90843200D03*
X178800000Y-90043200D03*
X178000000Y-90043200D03*
X177200000Y-90043200D03*
X174000000Y-90043200D03*
X173200000Y-90043200D03*
X172400000Y-90043200D03*
X178800000Y-89243200D03*
X178000000Y-89243200D03*
X177200000Y-89243200D03*
X174000000Y-89243200D03*
X173200000Y-89243200D03*
X172400000Y-89243200D03*
X178800000Y-88443200D03*
X178000000Y-88443200D03*
X177200000Y-88443200D03*
X174000000Y-88443200D03*
X173200000Y-88443200D03*
X172400000Y-88443200D03*
X178800000Y-87643200D03*
X178000000Y-87643200D03*
X177200000Y-87643200D03*
X174000000Y-87643200D03*
X173200000Y-87643200D03*
X172400000Y-87643200D03*
X178800000Y-86843200D03*
X178000000Y-86843200D03*
X177200000Y-86843200D03*
X174000000Y-86843200D03*
X173200000Y-86843200D03*
X172400000Y-86843200D03*
%TD*%
D16*
%TO.C,C16*%
X161898000Y-130536200D03*
X157498000Y-130536200D03*
%TD*%
D17*
%TO.C,U7*%
X130675000Y-120005000D03*
X130675000Y-118735000D03*
X130675000Y-117465000D03*
X130675000Y-116195000D03*
X125725000Y-116195000D03*
X125725000Y-117465000D03*
X125725000Y-118735000D03*
X125725000Y-120005000D03*
%TD*%
D18*
%TO.C,U9*%
X156123600Y-138277600D03*
X156123600Y-137007600D03*
X156123600Y-135737600D03*
X156123600Y-134467600D03*
X150723600Y-134467600D03*
X150723600Y-135737600D03*
X150723600Y-137007600D03*
X150723600Y-138277600D03*
D19*
X153423600Y-136372600D03*
%TD*%
D20*
%TO.C,J3*%
X116280000Y-129300000D03*
D21*
X120600000Y-130800000D03*
D22*
X120600000Y-127800000D03*
%TD*%
D23*
%TO.C,U1*%
X71250000Y-193500000D03*
X71250000Y-193000000D03*
X71250000Y-192500000D03*
X71250000Y-192000000D03*
X71250000Y-191000000D03*
X71250000Y-190500000D03*
X71250000Y-189500000D03*
X71250000Y-189000000D03*
X71250000Y-188000000D03*
X71250000Y-187500000D03*
X71250000Y-186500000D03*
X71250000Y-186000000D03*
X71250000Y-185000000D03*
X71250000Y-184500000D03*
X71250000Y-184000000D03*
X71250000Y-183500000D03*
X81250000Y-193500000D03*
X81250000Y-193000000D03*
X81250000Y-192500000D03*
X81250000Y-192000000D03*
X81250000Y-191000000D03*
X81250000Y-190500000D03*
X81250000Y-189500000D03*
X81250000Y-189000000D03*
X81250000Y-188000000D03*
X81250000Y-187500000D03*
X81250000Y-186500000D03*
X81250000Y-186000000D03*
X81250000Y-185000000D03*
X81250000Y-184500000D03*
X81250000Y-184000000D03*
X81250000Y-183500000D03*
X71750000Y-193500000D03*
X71750000Y-193000000D03*
X71750000Y-192500000D03*
X71750000Y-192000000D03*
X71750000Y-191500000D03*
X71750000Y-191000000D03*
X71750000Y-190500000D03*
X71750000Y-190000000D03*
X71750000Y-189500000D03*
X71750000Y-189000000D03*
X71750000Y-188500000D03*
X71750000Y-188000000D03*
X71750000Y-187500000D03*
X71750000Y-187000000D03*
X71750000Y-186500000D03*
X71750000Y-186000000D03*
X71750000Y-185500000D03*
X71750000Y-185000000D03*
X71750000Y-184500000D03*
X71750000Y-184000000D03*
X71750000Y-183500000D03*
X72250000Y-193500000D03*
X72250000Y-193000000D03*
X72250000Y-192500000D03*
X72250000Y-192000000D03*
X72250000Y-191500000D03*
X72250000Y-191000000D03*
X72250000Y-190500000D03*
X72250000Y-190000000D03*
X72250000Y-189500000D03*
X72250000Y-189000000D03*
X72250000Y-188500000D03*
X72250000Y-188000000D03*
X72250000Y-187500000D03*
X72250000Y-187000000D03*
X72250000Y-186500000D03*
X72250000Y-186000000D03*
X72250000Y-185500000D03*
X72250000Y-185000000D03*
X72250000Y-184500000D03*
X72250000Y-184000000D03*
X72250000Y-183500000D03*
X72750000Y-193500000D03*
X72750000Y-193000000D03*
X72750000Y-192500000D03*
X72750000Y-191000000D03*
X72750000Y-190000000D03*
X72750000Y-188500000D03*
X72750000Y-187000000D03*
X72750000Y-186000000D03*
X72750000Y-184500000D03*
X72750000Y-184000000D03*
X72750000Y-183500000D03*
X73250000Y-193000000D03*
X73250000Y-192500000D03*
X73250000Y-191500000D03*
X73250000Y-191000000D03*
X73250000Y-190500000D03*
X73250000Y-190000000D03*
X73250000Y-189500000D03*
X73250000Y-189000000D03*
X73250000Y-188500000D03*
X73250000Y-188000000D03*
X73250000Y-187500000D03*
X73250000Y-187000000D03*
X73250000Y-186500000D03*
X73250000Y-186000000D03*
X73250000Y-185500000D03*
X73250000Y-184500000D03*
X73250000Y-184000000D03*
X73750000Y-193500000D03*
X73750000Y-193000000D03*
X73750000Y-192500000D03*
X73750000Y-192000000D03*
X73750000Y-191500000D03*
X73750000Y-185500000D03*
X73750000Y-185000000D03*
X73750000Y-184500000D03*
X73750000Y-184000000D03*
X73750000Y-183500000D03*
X74250000Y-193500000D03*
X74250000Y-193000000D03*
X74250000Y-192500000D03*
X74250000Y-191500000D03*
X74250000Y-190500000D03*
X74250000Y-190000000D03*
X74250000Y-189500000D03*
X74250000Y-189000000D03*
X74250000Y-188500000D03*
X74250000Y-188000000D03*
X74250000Y-187500000D03*
X74250000Y-187000000D03*
X74250000Y-186500000D03*
X74250000Y-185500000D03*
X74250000Y-184500000D03*
X74250000Y-184000000D03*
X74250000Y-183500000D03*
X74750000Y-193000000D03*
X74750000Y-192500000D03*
X74750000Y-192000000D03*
X74750000Y-191500000D03*
X74750000Y-190500000D03*
X74750000Y-186500000D03*
X74750000Y-185500000D03*
X74750000Y-185000000D03*
X74750000Y-184500000D03*
X74750000Y-184000000D03*
X75250000Y-193500000D03*
X75250000Y-193000000D03*
X75250000Y-192500000D03*
X75250000Y-191500000D03*
X75250000Y-190500000D03*
X75250000Y-189500000D03*
X75250000Y-189000000D03*
X75250000Y-188500000D03*
X75250000Y-188000000D03*
X75250000Y-187500000D03*
X75250000Y-186500000D03*
X75250000Y-185500000D03*
X75250000Y-184500000D03*
X75250000Y-184000000D03*
X75250000Y-183500000D03*
X75750000Y-193500000D03*
X75750000Y-193000000D03*
X75750000Y-192500000D03*
X75750000Y-191500000D03*
X75750000Y-190500000D03*
X75750000Y-189500000D03*
X75750000Y-189000000D03*
X75750000Y-188500000D03*
X75750000Y-188000000D03*
X75750000Y-187500000D03*
X75750000Y-186500000D03*
X75750000Y-185500000D03*
X75750000Y-184500000D03*
X75750000Y-184000000D03*
X75750000Y-183500000D03*
X76250000Y-193000000D03*
X76250000Y-192500000D03*
X76250000Y-192000000D03*
X76250000Y-191500000D03*
X76250000Y-190500000D03*
X76250000Y-189500000D03*
X76250000Y-189000000D03*
X76250000Y-188000000D03*
X76250000Y-187500000D03*
X76250000Y-186500000D03*
X76250000Y-185500000D03*
X76250000Y-185000000D03*
X76250000Y-184500000D03*
X76250000Y-184000000D03*
X76750000Y-193500000D03*
X76750000Y-193000000D03*
X76750000Y-192500000D03*
X76750000Y-191500000D03*
X76750000Y-190500000D03*
X76750000Y-189500000D03*
X76750000Y-189000000D03*
X76750000Y-188500000D03*
X76750000Y-188000000D03*
X76750000Y-187500000D03*
X76750000Y-186500000D03*
X76750000Y-185500000D03*
X76750000Y-184500000D03*
X76750000Y-184000000D03*
X76750000Y-183500000D03*
X77250000Y-193500000D03*
X77250000Y-193000000D03*
X77250000Y-192500000D03*
X77250000Y-191500000D03*
X77250000Y-190500000D03*
X77250000Y-189500000D03*
X77250000Y-189000000D03*
X77250000Y-188500000D03*
X77250000Y-188000000D03*
X77250000Y-187500000D03*
X77250000Y-186500000D03*
X77250000Y-185500000D03*
X77250000Y-184500000D03*
X77250000Y-184000000D03*
X77250000Y-183500000D03*
X77750000Y-193000000D03*
X77750000Y-192500000D03*
X77750000Y-192000000D03*
X77750000Y-191500000D03*
X77750000Y-190500000D03*
X77750000Y-186500000D03*
X77750000Y-185500000D03*
X77750000Y-185000000D03*
X77750000Y-184500000D03*
X77750000Y-184000000D03*
X78250000Y-193500000D03*
X78250000Y-193000000D03*
X78250000Y-192500000D03*
X78250000Y-191500000D03*
X78250000Y-190500000D03*
X78250000Y-190000000D03*
X78250000Y-189500000D03*
X78250000Y-189000000D03*
X78250000Y-188500000D03*
X78250000Y-188000000D03*
X78250000Y-187500000D03*
X78250000Y-187000000D03*
X78250000Y-186500000D03*
X78250000Y-185500000D03*
X78250000Y-184500000D03*
X78250000Y-184000000D03*
X78250000Y-183500000D03*
X78750000Y-193500000D03*
X78750000Y-193000000D03*
X78750000Y-192500000D03*
X78750000Y-192000000D03*
X78750000Y-191500000D03*
X78750000Y-185500000D03*
X78750000Y-185000000D03*
X78750000Y-184500000D03*
X78750000Y-184000000D03*
X78750000Y-183500000D03*
X79250000Y-193000000D03*
X79250000Y-192500000D03*
X79250000Y-191500000D03*
X79250000Y-191000000D03*
X79250000Y-190500000D03*
X79250000Y-190000000D03*
X79250000Y-189500000D03*
X79250000Y-189000000D03*
X79250000Y-188500000D03*
X79250000Y-188000000D03*
X79250000Y-187500000D03*
X79250000Y-187000000D03*
X79250000Y-186500000D03*
X79250000Y-186000000D03*
X79250000Y-185500000D03*
X79250000Y-184500000D03*
X79250000Y-184000000D03*
X79750000Y-193500000D03*
X79750000Y-193000000D03*
X79750000Y-192500000D03*
X79750000Y-191000000D03*
X79750000Y-190000000D03*
X79750000Y-188500000D03*
X79750000Y-187000000D03*
X79750000Y-186000000D03*
X79750000Y-184500000D03*
X79750000Y-184000000D03*
X79750000Y-183500000D03*
X80250000Y-193500000D03*
X80250000Y-193000000D03*
X80250000Y-192500000D03*
X80250000Y-192000000D03*
X80250000Y-191500000D03*
X80250000Y-191000000D03*
X80250000Y-190500000D03*
X80250000Y-190000000D03*
X80250000Y-189500000D03*
X80250000Y-189000000D03*
X80250000Y-188500000D03*
X80250000Y-188000000D03*
X80250000Y-187500000D03*
X80250000Y-187000000D03*
X80250000Y-186500000D03*
X80250000Y-186000000D03*
X80250000Y-185500000D03*
X80250000Y-185000000D03*
X80250000Y-184500000D03*
X80250000Y-184000000D03*
X80250000Y-183500000D03*
X80750000Y-193500000D03*
X80750000Y-193000000D03*
X80750000Y-192500000D03*
X80750000Y-192000000D03*
X80750000Y-191500000D03*
X80750000Y-191000000D03*
X80750000Y-190500000D03*
X80750000Y-190000000D03*
X80750000Y-189500000D03*
X80750000Y-189000000D03*
X80750000Y-188500000D03*
X80750000Y-188000000D03*
X80750000Y-187500000D03*
X80750000Y-187000000D03*
X80750000Y-186500000D03*
X80750000Y-186000000D03*
X80750000Y-185500000D03*
X80750000Y-185000000D03*
X80750000Y-184500000D03*
X80750000Y-184000000D03*
X80750000Y-183500000D03*
%TD*%
D14*
%TO.C,R4*%
X154098000Y-132836200D03*
X153078000Y-132836200D03*
%TD*%
D10*
%TO.C,H3*%
X114350800Y-73888600D03*
%TD*%
%TO.C,H2*%
X114300000Y-140100000D03*
%TD*%
D15*
%TO.C,U2*%
X54300000Y-193400000D03*
X54300000Y-192600000D03*
X54300000Y-191800000D03*
X54300000Y-191000000D03*
X54300000Y-190200000D03*
X54300000Y-189400000D03*
X54300000Y-188600000D03*
X54300000Y-187800000D03*
X54300000Y-187000000D03*
X54300000Y-186200000D03*
X54300000Y-185400000D03*
X54300000Y-184600000D03*
X54300000Y-183800000D03*
X54300000Y-183000000D03*
X54300000Y-182200000D03*
X54300000Y-181400000D03*
X54300000Y-180600000D03*
X55100000Y-193400000D03*
X55100000Y-192600000D03*
X55100000Y-191800000D03*
X55100000Y-191000000D03*
X55100000Y-190200000D03*
X55100000Y-189400000D03*
X55100000Y-188600000D03*
X55100000Y-187800000D03*
X55100000Y-187000000D03*
X55100000Y-186200000D03*
X55100000Y-185400000D03*
X55100000Y-184600000D03*
X55100000Y-183800000D03*
X55100000Y-183000000D03*
X55100000Y-182200000D03*
X55100000Y-181400000D03*
X55100000Y-180600000D03*
X55900000Y-193400000D03*
X55900000Y-192600000D03*
X55900000Y-191800000D03*
X55900000Y-191000000D03*
X55900000Y-190200000D03*
X55900000Y-189400000D03*
X55900000Y-188600000D03*
X55900000Y-187800000D03*
X55900000Y-187000000D03*
X55900000Y-186200000D03*
X55900000Y-185400000D03*
X55900000Y-184600000D03*
X55900000Y-183800000D03*
X55900000Y-183000000D03*
X55900000Y-182200000D03*
X55900000Y-181400000D03*
X55900000Y-180600000D03*
X56700000Y-193400000D03*
X56700000Y-192600000D03*
X56700000Y-191800000D03*
X56700000Y-191000000D03*
X56700000Y-190200000D03*
X56700000Y-189400000D03*
X56700000Y-188600000D03*
X56700000Y-187800000D03*
X56700000Y-187000000D03*
X56700000Y-186200000D03*
X56700000Y-185400000D03*
X56700000Y-184600000D03*
X56700000Y-183800000D03*
X56700000Y-183000000D03*
X56700000Y-182200000D03*
X56700000Y-181400000D03*
X56700000Y-180600000D03*
X57500000Y-193400000D03*
X57500000Y-192600000D03*
X57500000Y-191800000D03*
X57500000Y-191000000D03*
X57500000Y-190200000D03*
X57500000Y-189400000D03*
X57500000Y-188600000D03*
X57500000Y-187800000D03*
X57500000Y-187000000D03*
X57500000Y-186200000D03*
X57500000Y-185400000D03*
X57500000Y-184600000D03*
X57500000Y-183800000D03*
X57500000Y-183000000D03*
X57500000Y-182200000D03*
X57500000Y-181400000D03*
X57500000Y-180600000D03*
X58300000Y-193400000D03*
X58300000Y-192600000D03*
X58300000Y-191800000D03*
X58300000Y-191000000D03*
X58300000Y-190200000D03*
X58300000Y-189400000D03*
X58300000Y-188600000D03*
X58300000Y-187800000D03*
X58300000Y-187000000D03*
X58300000Y-186200000D03*
X58300000Y-185400000D03*
X58300000Y-184600000D03*
X58300000Y-183800000D03*
X58300000Y-183000000D03*
X58300000Y-182200000D03*
X58300000Y-181400000D03*
X58300000Y-180600000D03*
X59100000Y-193400000D03*
X59100000Y-192600000D03*
X59100000Y-191800000D03*
X59100000Y-191000000D03*
X59100000Y-190200000D03*
X59100000Y-189400000D03*
X59100000Y-188600000D03*
X59100000Y-187800000D03*
X59100000Y-187000000D03*
X59100000Y-186200000D03*
X59100000Y-185400000D03*
X59100000Y-184600000D03*
X59100000Y-183800000D03*
X59100000Y-183000000D03*
X59100000Y-182200000D03*
X59100000Y-181400000D03*
X59100000Y-180600000D03*
X59900000Y-193400000D03*
X59900000Y-192600000D03*
X59900000Y-191800000D03*
X59900000Y-191000000D03*
X59900000Y-190200000D03*
X59900000Y-189400000D03*
X59900000Y-188600000D03*
X59900000Y-187800000D03*
X59900000Y-187000000D03*
X59900000Y-186200000D03*
X59900000Y-185400000D03*
X59900000Y-184600000D03*
X59900000Y-183800000D03*
X59900000Y-183000000D03*
X59900000Y-182200000D03*
X59900000Y-181400000D03*
X59900000Y-180600000D03*
X60700000Y-193400000D03*
X60700000Y-192600000D03*
X60700000Y-191800000D03*
X60700000Y-191000000D03*
X60700000Y-190200000D03*
X60700000Y-189400000D03*
X60700000Y-188600000D03*
X60700000Y-187800000D03*
X60700000Y-187000000D03*
X60700000Y-186200000D03*
X60700000Y-185400000D03*
X60700000Y-184600000D03*
X60700000Y-183800000D03*
X60700000Y-183000000D03*
X60700000Y-182200000D03*
X60700000Y-181400000D03*
X60700000Y-180600000D03*
X61500000Y-193400000D03*
X61500000Y-192600000D03*
X61500000Y-191800000D03*
X61500000Y-191000000D03*
X61500000Y-190200000D03*
X61500000Y-189400000D03*
X61500000Y-188600000D03*
X61500000Y-187800000D03*
X61500000Y-187000000D03*
X61500000Y-186200000D03*
X61500000Y-185400000D03*
X61500000Y-184600000D03*
X61500000Y-183800000D03*
X61500000Y-183000000D03*
X61500000Y-182200000D03*
X61500000Y-181400000D03*
X61500000Y-180600000D03*
X62300000Y-193400000D03*
X62300000Y-192600000D03*
X62300000Y-191800000D03*
X62300000Y-191000000D03*
X62300000Y-190200000D03*
X62300000Y-189400000D03*
X62300000Y-188600000D03*
X62300000Y-187800000D03*
X62300000Y-187000000D03*
X62300000Y-186200000D03*
X62300000Y-185400000D03*
X62300000Y-184600000D03*
X62300000Y-183800000D03*
X62300000Y-183000000D03*
X62300000Y-182200000D03*
X62300000Y-181400000D03*
X62300000Y-180600000D03*
X63100000Y-193400000D03*
X63100000Y-192600000D03*
X63100000Y-191800000D03*
X63100000Y-191000000D03*
X63100000Y-190200000D03*
X63100000Y-189400000D03*
X63100000Y-188600000D03*
X63100000Y-187800000D03*
X63100000Y-187000000D03*
X63100000Y-186200000D03*
X63100000Y-185400000D03*
X63100000Y-184600000D03*
X63100000Y-183800000D03*
X63100000Y-183000000D03*
X63100000Y-182200000D03*
X63100000Y-181400000D03*
X63100000Y-180600000D03*
X63900000Y-193400000D03*
X63900000Y-192600000D03*
X63900000Y-191800000D03*
X63900000Y-191000000D03*
X63900000Y-190200000D03*
X63900000Y-189400000D03*
X63900000Y-188600000D03*
X63900000Y-187800000D03*
X63900000Y-187000000D03*
X63900000Y-186200000D03*
X63900000Y-185400000D03*
X63900000Y-184600000D03*
X63900000Y-183800000D03*
X63900000Y-183000000D03*
X63900000Y-182200000D03*
X63900000Y-181400000D03*
X63900000Y-180600000D03*
X64700000Y-193400000D03*
X64700000Y-192600000D03*
X64700000Y-191800000D03*
X64700000Y-191000000D03*
X64700000Y-190200000D03*
X64700000Y-189400000D03*
X64700000Y-188600000D03*
X64700000Y-187800000D03*
X64700000Y-187000000D03*
X64700000Y-186200000D03*
X64700000Y-185400000D03*
X64700000Y-184600000D03*
X64700000Y-183800000D03*
X64700000Y-183000000D03*
X64700000Y-182200000D03*
X64700000Y-181400000D03*
X64700000Y-180600000D03*
X65500000Y-193400000D03*
X65500000Y-192600000D03*
X65500000Y-191800000D03*
X65500000Y-191000000D03*
X65500000Y-190200000D03*
X65500000Y-189400000D03*
X65500000Y-188600000D03*
X65500000Y-187800000D03*
X65500000Y-187000000D03*
X65500000Y-186200000D03*
X65500000Y-185400000D03*
X65500000Y-184600000D03*
X65500000Y-183800000D03*
X65500000Y-183000000D03*
X65500000Y-182200000D03*
X65500000Y-181400000D03*
X65500000Y-180600000D03*
X66300000Y-193400000D03*
X66300000Y-192600000D03*
X66300000Y-191800000D03*
X66300000Y-191000000D03*
X66300000Y-190200000D03*
X66300000Y-189400000D03*
X66300000Y-188600000D03*
X66300000Y-187800000D03*
X66300000Y-187000000D03*
X66300000Y-186200000D03*
X66300000Y-185400000D03*
X66300000Y-184600000D03*
X66300000Y-183800000D03*
X66300000Y-183000000D03*
X66300000Y-182200000D03*
X66300000Y-181400000D03*
X66300000Y-180600000D03*
X67100000Y-193400000D03*
X67100000Y-192600000D03*
X67100000Y-191800000D03*
X67100000Y-191000000D03*
X67100000Y-190200000D03*
X67100000Y-189400000D03*
X67100000Y-188600000D03*
X67100000Y-187800000D03*
X67100000Y-187000000D03*
X67100000Y-186200000D03*
X67100000Y-185400000D03*
X67100000Y-184600000D03*
X67100000Y-183800000D03*
X67100000Y-183000000D03*
X67100000Y-182200000D03*
X67100000Y-181400000D03*
X67100000Y-180600000D03*
%TD*%
D24*
%TO.C,C7*%
X126108200Y-137763000D03*
X126108200Y-134813000D03*
%TD*%
D14*
%TO.C,R2*%
X131772000Y-132945600D03*
X130752000Y-132945600D03*
%TD*%
D24*
%TO.C,C11*%
X148523600Y-137682600D03*
X148523600Y-134732600D03*
%TD*%
D25*
%TO.C,D1*%
X128420700Y-139988000D03*
X129995700Y-139988000D03*
%TD*%
D24*
%TO.C,C8*%
X123808200Y-137763000D03*
X123808200Y-134813000D03*
%TD*%
D26*
%TO.C,C15*%
X154328600Y-103338200D03*
X154328600Y-102378200D03*
%TD*%
D27*
%TO.C,J2*%
X117900000Y-118800000D03*
D28*
X117900000Y-116800000D03*
X117900000Y-114800000D03*
X117900000Y-112800000D03*
X117900000Y-110800000D03*
X117900000Y-108800000D03*
X117900000Y-106800000D03*
X117900000Y-104800000D03*
X117900000Y-102800000D03*
X117900000Y-100800000D03*
X117900000Y-98800000D03*
X117900000Y-96800000D03*
X117900000Y-94800000D03*
X117900000Y-92800000D03*
X117900000Y-90800000D03*
X117900000Y-88800000D03*
X117900000Y-86800000D03*
X117900000Y-84800000D03*
X117900000Y-82800000D03*
X117900000Y-80800000D03*
X115900000Y-118800000D03*
X115900000Y-116800000D03*
X115900000Y-114800000D03*
X115900000Y-112800000D03*
X115900000Y-110800000D03*
X115900000Y-108800000D03*
X115900000Y-106800000D03*
X115900000Y-104800000D03*
X115900000Y-102800000D03*
X115900000Y-100800000D03*
X115900000Y-98800000D03*
X115900000Y-96800000D03*
X115900000Y-94800000D03*
X115900000Y-92800000D03*
X115900000Y-90800000D03*
X115900000Y-88800000D03*
X115900000Y-86800000D03*
X115900000Y-84800000D03*
X115900000Y-82800000D03*
X115900000Y-80800000D03*
%TD*%
D11*
%TO.C,L2*%
X161798000Y-139986200D03*
X161798000Y-134486200D03*
%TD*%
D18*
%TO.C,U6*%
X133748200Y-138368000D03*
X133748200Y-137098000D03*
X133748200Y-135828000D03*
X133748200Y-134558000D03*
X128348200Y-134558000D03*
X128348200Y-135828000D03*
X128348200Y-137098000D03*
X128348200Y-138368000D03*
D19*
X131048200Y-136463000D03*
%TD*%
D29*
%TO.C,Y1*%
X151193000Y-103761400D03*
X152943000Y-103761400D03*
X152943000Y-102361400D03*
X151193000Y-102361400D03*
%TD*%
D30*
%TO.C,U10*%
X170325700Y-129001200D03*
X170325700Y-129501200D03*
X170325700Y-130001200D03*
X170325700Y-130501200D03*
X170325700Y-131001200D03*
X170325700Y-131501200D03*
D31*
X171038200Y-132213700D03*
X171538200Y-132213700D03*
X172038200Y-132213700D03*
X172538200Y-132213700D03*
X173038200Y-132213700D03*
X173538200Y-132213700D03*
D30*
X174250700Y-131501200D03*
X174250700Y-131001200D03*
X174250700Y-130501200D03*
X174250700Y-130001200D03*
X174250700Y-129501200D03*
X174250700Y-129001200D03*
D31*
X173538200Y-128288700D03*
X173038200Y-128288700D03*
X172538200Y-128288700D03*
X172038200Y-128288700D03*
X171538200Y-128288700D03*
X171038200Y-128288700D03*
D32*
X172288200Y-130251200D03*
%TD*%
D13*
%TO.C,C13*%
X156123600Y-139627600D03*
X156123600Y-140587600D03*
%TD*%
D33*
%TO.C,U3*%
X149007800Y-89283400D03*
X149757800Y-89283400D03*
X150507800Y-89283400D03*
X151257800Y-89283400D03*
X152007800Y-89283400D03*
X152757800Y-89283400D03*
X153507800Y-89283400D03*
X154257800Y-89283400D03*
X155007800Y-89283400D03*
X155757800Y-89283400D03*
X156507800Y-89283400D03*
X157257800Y-89283400D03*
X158007800Y-89283400D03*
X158757800Y-89283400D03*
X149007800Y-90033400D03*
X149757800Y-90033400D03*
X150507800Y-90033400D03*
X151257800Y-90033400D03*
X152007800Y-90033400D03*
X152757800Y-90033400D03*
X153507800Y-90033400D03*
X154257800Y-90033400D03*
X155007800Y-90033400D03*
X155757800Y-90033400D03*
X156507800Y-90033400D03*
X157257800Y-90033400D03*
X158007800Y-90033400D03*
X158757800Y-90033400D03*
X149007800Y-90783400D03*
X149757800Y-90783400D03*
X150507800Y-90783400D03*
X151257800Y-90783400D03*
X152007800Y-90783400D03*
X152757800Y-90783400D03*
X153507800Y-90783400D03*
X154257800Y-90783400D03*
X155007800Y-90783400D03*
X155757800Y-90783400D03*
X156507800Y-90783400D03*
X157257800Y-90783400D03*
X158007800Y-90783400D03*
X158757800Y-90783400D03*
X149007800Y-91533400D03*
X149757800Y-91533400D03*
X150507800Y-91533400D03*
X151257800Y-91533400D03*
X152007800Y-91533400D03*
X152757800Y-91533400D03*
X153507800Y-91533400D03*
X154257800Y-91533400D03*
X155007800Y-91533400D03*
X155757800Y-91533400D03*
X156507800Y-91533400D03*
X157257800Y-91533400D03*
X158007800Y-91533400D03*
X158757800Y-91533400D03*
X149007800Y-92283400D03*
X149757800Y-92283400D03*
X150507800Y-92283400D03*
X151257800Y-92283400D03*
X152007800Y-92283400D03*
X152757800Y-92283400D03*
X153507800Y-92283400D03*
X154257800Y-92283400D03*
X155007800Y-92283400D03*
X155757800Y-92283400D03*
X156507800Y-92283400D03*
X157257800Y-92283400D03*
X158007800Y-92283400D03*
X158757800Y-92283400D03*
X149007800Y-93033400D03*
X149757800Y-93033400D03*
X150507800Y-93033400D03*
X151257800Y-93033400D03*
X152007800Y-93033400D03*
X152757800Y-93033400D03*
X153507800Y-93033400D03*
X154257800Y-93033400D03*
X155007800Y-93033400D03*
X155757800Y-93033400D03*
X156507800Y-93033400D03*
X157257800Y-93033400D03*
X158007800Y-93033400D03*
X158757800Y-93033400D03*
X149007800Y-93783400D03*
X149757800Y-93783400D03*
X150507800Y-93783400D03*
X151257800Y-93783400D03*
X152007800Y-93783400D03*
X152757800Y-93783400D03*
X153507800Y-93783400D03*
X154257800Y-93783400D03*
X155007800Y-93783400D03*
X155757800Y-93783400D03*
X156507800Y-93783400D03*
X157257800Y-93783400D03*
X158007800Y-93783400D03*
X158757800Y-93783400D03*
X149007800Y-94533400D03*
X149757800Y-94533400D03*
X150507800Y-94533400D03*
X151257800Y-94533400D03*
X152007800Y-94533400D03*
X152757800Y-94533400D03*
X153507800Y-94533400D03*
X154257800Y-94533400D03*
X155007800Y-94533400D03*
X155757800Y-94533400D03*
X156507800Y-94533400D03*
X157257800Y-94533400D03*
X158007800Y-94533400D03*
X158757800Y-94533400D03*
X149007800Y-95283400D03*
X149757800Y-95283400D03*
X150507800Y-95283400D03*
X151257800Y-95283400D03*
X152007800Y-95283400D03*
X152757800Y-95283400D03*
X153507800Y-95283400D03*
X154257800Y-95283400D03*
X155007800Y-95283400D03*
X155757800Y-95283400D03*
X156507800Y-95283400D03*
X157257800Y-95283400D03*
X158007800Y-95283400D03*
X158757800Y-95283400D03*
X149007800Y-96033400D03*
X149757800Y-96033400D03*
X150507800Y-96033400D03*
X151257800Y-96033400D03*
X152007800Y-96033400D03*
X152757800Y-96033400D03*
X153507800Y-96033400D03*
X154257800Y-96033400D03*
X155007800Y-96033400D03*
X155757800Y-96033400D03*
X156507800Y-96033400D03*
X157257800Y-96033400D03*
X158007800Y-96033400D03*
X158757800Y-96033400D03*
X149007800Y-96783400D03*
X149757800Y-96783400D03*
X150507800Y-96783400D03*
X151257800Y-96783400D03*
X152007800Y-96783400D03*
X152757800Y-96783400D03*
X153507800Y-96783400D03*
X154257800Y-96783400D03*
X155007800Y-96783400D03*
X155757800Y-96783400D03*
X156507800Y-96783400D03*
X157257800Y-96783400D03*
X158007800Y-96783400D03*
X158757800Y-96783400D03*
X149007800Y-97533400D03*
X149757800Y-97533400D03*
X150507800Y-97533400D03*
X151257800Y-97533400D03*
X152007800Y-97533400D03*
X152757800Y-97533400D03*
X153507800Y-97533400D03*
X154257800Y-97533400D03*
X155007800Y-97533400D03*
X155757800Y-97533400D03*
X156507800Y-97533400D03*
X157257800Y-97533400D03*
X158007800Y-97533400D03*
X158757800Y-97533400D03*
X149007800Y-98283400D03*
X149757800Y-98283400D03*
X150507800Y-98283400D03*
X151257800Y-98283400D03*
X152007800Y-98283400D03*
X152757800Y-98283400D03*
X153507800Y-98283400D03*
X154257800Y-98283400D03*
X155007800Y-98283400D03*
X155757800Y-98283400D03*
X156507800Y-98283400D03*
X157257800Y-98283400D03*
X158007800Y-98283400D03*
X158757800Y-98283400D03*
X149007800Y-99033400D03*
X149757800Y-99033400D03*
X150507800Y-99033400D03*
X151257800Y-99033400D03*
X152007800Y-99033400D03*
X152757800Y-99033400D03*
X153507800Y-99033400D03*
X154257800Y-99033400D03*
X155007800Y-99033400D03*
X155757800Y-99033400D03*
X156507800Y-99033400D03*
X157257800Y-99033400D03*
X158007800Y-99033400D03*
X158757800Y-99033400D03*
%TD*%
D24*
%TO.C,C12*%
X146223600Y-137682600D03*
X146223600Y-134732600D03*
%TD*%
D34*
%TO.C,J1*%
X129516800Y-73103600D03*
D35*
X129516800Y-75643600D03*
X132056800Y-73103600D03*
X132056800Y-75643600D03*
X134596800Y-73103600D03*
X134596800Y-75643600D03*
X137136800Y-73103600D03*
X137136800Y-75643600D03*
X139676800Y-73103600D03*
X139676800Y-75643600D03*
X142216800Y-73103600D03*
X142216800Y-75643600D03*
X144756800Y-73103600D03*
X144756800Y-75643600D03*
X147296800Y-73103600D03*
X147296800Y-75643600D03*
X149836800Y-73103600D03*
X149836800Y-75643600D03*
X152376800Y-73103600D03*
X152376800Y-75643600D03*
X154916800Y-73103600D03*
X154916800Y-75643600D03*
X157456800Y-73103600D03*
X157456800Y-75643600D03*
X159996800Y-73103600D03*
X159996800Y-75643600D03*
%TD*%
D16*
%TO.C,C10*%
X139562000Y-130635600D03*
X135162000Y-130635600D03*
%TD*%
D10*
%TO.C,H1*%
X180400000Y-74500000D03*
%TD*%
D36*
%TO.C,RTC BATTERY*%
X178739800Y-121493600D03*
X178739800Y-106293600D03*
D37*
X178739800Y-113893600D03*
%TD*%
D38*
%TO.C,R6*%
X175150000Y-84413200D03*
X176170000Y-84413200D03*
%TD*%
D39*
%TO.C,U11*%
X152300000Y-116000000D03*
X152300000Y-115200000D03*
X152300000Y-109600000D03*
X152300000Y-108800000D03*
X153100000Y-116000000D03*
X153100000Y-109600000D03*
X153100000Y-108800000D03*
X153900000Y-114400000D03*
X153900000Y-113600000D03*
X153900000Y-112800000D03*
X153900000Y-112000000D03*
X153900000Y-111200000D03*
X153900000Y-110400000D03*
X154700000Y-114400000D03*
X154700000Y-113600000D03*
X154700000Y-112800000D03*
X154700000Y-112000000D03*
X154700000Y-111200000D03*
X154700000Y-110400000D03*
X155500000Y-114400000D03*
X155500000Y-113600000D03*
X155500000Y-112800000D03*
X155500000Y-112000000D03*
X155500000Y-111200000D03*
X155500000Y-110400000D03*
X156300000Y-114400000D03*
X156300000Y-113600000D03*
X156300000Y-112800000D03*
X156300000Y-112000000D03*
X156300000Y-111200000D03*
X156300000Y-110400000D03*
X157100000Y-114400000D03*
X157100000Y-113600000D03*
X157100000Y-112800000D03*
X157100000Y-112000000D03*
X157100000Y-111200000D03*
X157100000Y-110400000D03*
X157900000Y-114400000D03*
X157900000Y-113600000D03*
X157900000Y-112800000D03*
X157900000Y-112000000D03*
X157900000Y-111200000D03*
X157900000Y-110400000D03*
X158700000Y-114400000D03*
X158700000Y-113600000D03*
X158700000Y-112800000D03*
X158700000Y-112000000D03*
X158700000Y-111200000D03*
X158700000Y-110400000D03*
X159500000Y-114400000D03*
X159500000Y-113600000D03*
X159500000Y-112800000D03*
X159500000Y-112000000D03*
X159500000Y-111200000D03*
X159500000Y-110400000D03*
X160300000Y-116000000D03*
X160300000Y-115200000D03*
X160300000Y-109600000D03*
X160300000Y-108800000D03*
X161100000Y-116000000D03*
X161100000Y-115200000D03*
X161100000Y-109600000D03*
X161100000Y-108800000D03*
%TD*%
D13*
%TO.C,C14*%
X149782000Y-102810000D03*
X149782000Y-103770000D03*
%TD*%
D25*
%TO.C,D2*%
X150836100Y-139907600D03*
X152411100Y-139907600D03*
%TD*%
M02*
