%TF.GenerationSoftware,KiCad,Pcbnew,9.0.7*%
%TF.CreationDate,2026-04-03T00:34:41-04:00*%
%TF.ProjectId,spacex-sbc,73706163-6578-42d7-9362-632e6b696361,rev?*%
%TF.SameCoordinates,Original*%
%TF.FileFunction,Copper,L1,Top*%
%TF.FilePolarity,Positive*%
%FSLAX46Y46*%
G04 Gerber Fmt 4.6, Leading zero omitted, Abs format (unit mm)*
G04 Created by KiCad (PCBNEW 9.0.7) date 2026-04-03 00:34:41*
%MOMM*%
%LPD*%
G01*
G04 APERTURE LIST*
G04 Aperture macros list*
%AMRoundRect*
0 Rectangle with rounded corners*
0 $1 Rounding radius*
0 $2 $3 $4 $5 $6 $7 $8 $9 X,Y pos of 4 corners*
0 Add a 4 corners polygon primitive as box body*
4,1,4,$2,$3,$4,$5,$6,$7,$8,$9,$2,$3,0*
0 Add four circle primitives for the rounded corners*
1,1,$1+$1,$2,$3*
1,1,$1+$1,$4,$5*
1,1,$1+$1,$6,$7*
1,1,$1+$1,$8,$9*
0 Add four rect primitives between the rounded corners*
20,1,$1+$1,$2,$3,$4,$5,0*
20,1,$1+$1,$4,$5,$6,$7,0*
20,1,$1+$1,$6,$7,$8,$9,0*
20,1,$1+$1,$8,$9,$2,$3,0*%
G04 Aperture macros list end*
%TA.AperFunction,ComponentPad*%
%ADD10C,6.400000*%
%TD*%
%TA.AperFunction,SMDPad,CuDef*%
%ADD11R,2.400000X1.500000*%
%TD*%
%TA.AperFunction,SMDPad,CuDef*%
%ADD12R,1.000000X0.400000*%
%TD*%
%TA.AperFunction,SMDPad,CuDef*%
%ADD13RoundRect,0.140000X-0.170000X0.140000X-0.170000X-0.140000X0.170000X-0.140000X0.170000X0.140000X0*%
%TD*%
%TA.AperFunction,SMDPad,CuDef*%
%ADD14RoundRect,0.135000X0.135000X0.185000X-0.135000X0.185000X-0.135000X-0.185000X0.135000X-0.185000X0*%
%TD*%
%TA.AperFunction,BGAPad,CuDef*%
%ADD15C,0.520000*%
%TD*%
%TA.AperFunction,SMDPad,CuDef*%
%ADD16RoundRect,0.250000X1.250000X0.550000X-1.250000X0.550000X-1.250000X-0.550000X1.250000X-0.550000X0*%
%TD*%
%TA.AperFunction,SMDPad,CuDef*%
%ADD17RoundRect,0.150000X0.825000X0.150000X-0.825000X0.150000X-0.825000X-0.150000X0.825000X-0.150000X0*%
%TD*%
%TA.AperFunction,SMDPad,CuDef*%
%ADD18R,1.550000X0.600000*%
%TD*%
%TA.AperFunction,ComponentPad*%
%ADD19C,0.600000*%
%TD*%
%TA.AperFunction,SMDPad,CuDef*%
%ADD20R,2.600000X3.100000*%
%TD*%
%TA.AperFunction,SMDPad,CuDef*%
%ADD21R,2.950000X4.500000*%
%TD*%
%TA.AperFunction,ComponentPad*%
%ADD22RoundRect,0.250001X0.759999X-0.499999X0.759999X0.499999X-0.759999X0.499999X-0.759999X-0.499999X0*%
%TD*%
%TA.AperFunction,ComponentPad*%
%ADD23O,2.020000X1.500000*%
%TD*%
%TA.AperFunction,BGAPad,CuDef*%
%ADD24C,0.230000*%
%TD*%
%TA.AperFunction,BGAPad,CuDef*%
%ADD25C,0.320000*%
%TD*%
%TA.AperFunction,SMDPad,CuDef*%
%ADD26RoundRect,0.250000X0.650000X-0.325000X0.650000X0.325000X-0.650000X0.325000X-0.650000X-0.325000X0*%
%TD*%
%TA.AperFunction,SMDPad,CuDef*%
%ADD27RoundRect,0.218750X-0.218750X-0.256250X0.218750X-0.256250X0.218750X0.256250X-0.218750X0.256250X0*%
%TD*%
%TA.AperFunction,SMDPad,CuDef*%
%ADD28RoundRect,0.140000X0.170000X-0.140000X0.170000X0.140000X-0.170000X0.140000X-0.170000X-0.140000X0*%
%TD*%
%TA.AperFunction,ComponentPad*%
%ADD29RoundRect,0.250000X0.350000X0.350000X-0.350000X0.350000X-0.350000X-0.350000X0.350000X-0.350000X0*%
%TD*%
%TA.AperFunction,ComponentPad*%
%ADD30C,1.200000*%
%TD*%
%TA.AperFunction,SMDPad,CuDef*%
%ADD31RoundRect,0.250000X-0.325000X-0.250000X0.325000X-0.250000X0.325000X0.250000X-0.325000X0.250000X0*%
%TD*%
%TA.AperFunction,SMDPad,CuDef*%
%ADD32RoundRect,0.062500X-0.350000X-0.062500X0.350000X-0.062500X0.350000X0.062500X-0.350000X0.062500X0*%
%TD*%
%TA.AperFunction,SMDPad,CuDef*%
%ADD33RoundRect,0.062500X-0.062500X-0.350000X0.062500X-0.350000X0.062500X0.350000X-0.062500X0.350000X0*%
%TD*%
%TA.AperFunction,HeatsinkPad*%
%ADD34R,2.700000X2.700000*%
%TD*%
%TA.AperFunction,BGAPad,CuDef*%
%ADD35C,0.350000*%
%TD*%
%TA.AperFunction,ComponentPad*%
%ADD36R,1.700000X1.700000*%
%TD*%
%TA.AperFunction,ComponentPad*%
%ADD37C,1.700000*%
%TD*%
%TA.AperFunction,SMDPad,CuDef*%
%ADD38R,5.100000X2.500000*%
%TD*%
%TA.AperFunction,SMDPad,CuDef*%
%ADD39C,10.200000*%
%TD*%
%TA.AperFunction,SMDPad,CuDef*%
%ADD40RoundRect,0.135000X-0.135000X-0.185000X0.135000X-0.185000X0.135000X0.185000X-0.135000X0.185000X0*%
%TD*%
%TA.AperFunction,BGAPad,CuDef*%
%ADD41C,0.360000*%
%TD*%
%TA.AperFunction,ViaPad*%
%ADD42C,0.600000*%
%TD*%
%TA.AperFunction,Conductor*%
%ADD43C,0.100000*%
%TD*%
%TA.AperFunction,Conductor*%
%ADD44C,0.200000*%
%TD*%
G04 APERTURE END LIST*
D10*
%TO.P,H4,1,1*%
%TO.N,GND*%
X181000000Y-139900000D03*
%TD*%
D11*
%TO.P,L1,1,1*%
%TO.N,Net-(D1-K)*%
X139502000Y-140085600D03*
%TO.P,L1,2,2*%
%TO.N,+5V*%
X139502000Y-134585600D03*
%TD*%
D12*
%TO.P,U4,1,~{EN}*%
%TO.N,~{SOC_RS232_EN}*%
X125400000Y-107925000D03*
%TO.P,U4,2,C1+*%
%TO.N,unconnected-(U4-C1+-Pad2)*%
X125400000Y-108575000D03*
%TO.P,U4,3,V+*%
%TO.N,unconnected-(U4-V+-Pad3)*%
X125400000Y-109225000D03*
%TO.P,U4,4,C1-*%
%TO.N,unconnected-(U4-C1--Pad4)*%
X125400000Y-109875000D03*
%TO.P,U4,5,C2+*%
%TO.N,unconnected-(U4-C2+-Pad5)*%
X125400000Y-110525000D03*
%TO.P,U4,6,C2-*%
%TO.N,unconnected-(U4-C2--Pad6)*%
X125400000Y-111175000D03*
%TO.P,U4,7,V-*%
%TO.N,unconnected-(U4-V--Pad7)*%
X125400000Y-111825000D03*
%TO.P,U4,8,RIN*%
%TO.N,RS232_RIN*%
X125400000Y-112475000D03*
%TO.P,U4,9,ROUT*%
%TO.N,SOC_RS232_ROUT*%
X131200000Y-112475000D03*
%TO.P,U4,10,~{INVALID}*%
%TO.N,~{SOC_RS232_INVALID}*%
X131200000Y-111825000D03*
%TO.P,U4,11,DIN*%
%TO.N,SOC_RS232_DIN*%
X131200000Y-111175000D03*
%TO.P,U4,12,FORCEON*%
%TO.N,SOC_RS232_FORCEON*%
X131200000Y-110525000D03*
%TO.P,U4,13,DOUT*%
%TO.N,RS232_DOUT*%
X131200000Y-109875000D03*
%TO.P,U4,14,GND*%
%TO.N,GND*%
X131200000Y-109225000D03*
%TO.P,U4,15,VCC*%
%TO.N,+3V3*%
X131200000Y-108575000D03*
%TO.P,U4,16,~{FORCEOFF}*%
%TO.N,~{SOC_RS232_FORCEOFF}*%
X131200000Y-107925000D03*
%TD*%
D13*
%TO.P,C9,1*%
%TO.N,Net-(U6-BOOT)*%
X133708200Y-139708000D03*
%TO.P,C9,2*%
%TO.N,Net-(D1-K)*%
X133708200Y-140668000D03*
%TD*%
D14*
%TO.P,R1,1*%
%TO.N,+5V*%
X133802000Y-132945600D03*
%TO.P,R1,2*%
%TO.N,Net-(U6-VSENSE)*%
X132782000Y-132945600D03*
%TD*%
%TO.P,R3,1*%
%TO.N,+3V3*%
X156098000Y-132836200D03*
%TO.P,R3,2*%
%TO.N,Net-(U9-VSENSE)*%
X155078000Y-132836200D03*
%TD*%
D15*
%TO.P,U5,A1,V_{DDQ}*%
%TO.N,+1V5*%
X178800000Y-98843200D03*
%TO.P,U5,A2,DQ13*%
%TO.N,DDR_D13*%
X178000000Y-98843200D03*
%TO.P,U5,A3,DQ15*%
%TO.N,DDR_D15*%
X177200000Y-98843200D03*
%TO.P,U5,A7,DQ12*%
%TO.N,DDR_D12*%
X174000000Y-98843200D03*
%TO.P,U5,A8,V_{DDQ}*%
%TO.N,+1V5*%
X173200000Y-98843200D03*
%TO.P,U5,A9,V_{SS}*%
%TO.N,GND*%
X172400000Y-98843200D03*
%TO.P,U5,B1,V_{SSQ}*%
X178800000Y-98043200D03*
%TO.P,U5,B2,V_{DD}*%
%TO.N,+1V5*%
X178000000Y-98043200D03*
%TO.P,U5,B3,V_{SS}*%
%TO.N,GND*%
X177200000Y-98043200D03*
%TO.P,U5,B7,~{UDQS}*%
%TO.N,DDR_DQSN1*%
X174000000Y-98043200D03*
%TO.P,U5,B8,DQ14*%
%TO.N,DDR_D14*%
X173200000Y-98043200D03*
%TO.P,U5,B9,V_{SSQ}*%
%TO.N,GND*%
X172400000Y-98043200D03*
%TO.P,U5,C1,V_{DDQ}*%
%TO.N,+1V5*%
X178800000Y-97243200D03*
%TO.P,U5,C2,DQ11*%
%TO.N,DDR_D11*%
X178000000Y-97243200D03*
%TO.P,U5,C3,DQ9*%
%TO.N,DDR_D9*%
X177200000Y-97243200D03*
%TO.P,U5,C7,UDQS*%
%TO.N,DDR_DQS1*%
X174000000Y-97243200D03*
%TO.P,U5,C8,DQ10*%
%TO.N,DDR_D10*%
X173200000Y-97243200D03*
%TO.P,U5,C9,V_{DDQ}*%
%TO.N,+1V5*%
X172400000Y-97243200D03*
%TO.P,U5,D1,V_{SSQ}*%
%TO.N,GND*%
X178800000Y-96443200D03*
%TO.P,U5,D2,V_{DDQ}*%
%TO.N,+1V5*%
X178000000Y-96443200D03*
%TO.P,U5,D3,UDM*%
%TO.N,DDR_DQM1*%
X177200000Y-96443200D03*
%TO.P,U5,D7,DQ8*%
%TO.N,DDR_D8*%
X174000000Y-96443200D03*
%TO.P,U5,D8,V_{SSQ}*%
%TO.N,GND*%
X173200000Y-96443200D03*
%TO.P,U5,D9,V_{DD}*%
%TO.N,+1V5*%
X172400000Y-96443200D03*
%TO.P,U5,E1,V_{SS}*%
%TO.N,GND*%
X178800000Y-95643200D03*
%TO.P,U5,E2,V_{SSQ}*%
X178000000Y-95643200D03*
%TO.P,U5,E3,DQ0*%
%TO.N,DDR_D0*%
X177200000Y-95643200D03*
%TO.P,U5,E7,LDM*%
%TO.N,DDR_DQM0*%
X174000000Y-95643200D03*
%TO.P,U5,E8,V_{SSQ}*%
%TO.N,GND*%
X173200000Y-95643200D03*
%TO.P,U5,E9,V_{DDQ}*%
%TO.N,+1V5*%
X172400000Y-95643200D03*
%TO.P,U5,F1,V_{DDQ}*%
X178800000Y-94843200D03*
%TO.P,U5,F2,DQ2*%
%TO.N,DDR_D2*%
X178000000Y-94843200D03*
%TO.P,U5,F3,LDQS*%
%TO.N,DDR_DQS0*%
X177200000Y-94843200D03*
%TO.P,U5,F7,DQ1*%
%TO.N,DDR_D1*%
X174000000Y-94843200D03*
%TO.P,U5,F8,DQ3*%
%TO.N,DDR_D3*%
X173200000Y-94843200D03*
%TO.P,U5,F9,V_{SSQ}*%
%TO.N,GND*%
X172400000Y-94843200D03*
%TO.P,U5,G1,V_{SSQ}*%
X178800000Y-94043200D03*
%TO.P,U5,G2,DQ6*%
%TO.N,DDR_D6*%
X178000000Y-94043200D03*
%TO.P,U5,G3,~{LDQS}*%
%TO.N,DDR_DQSN0*%
X177200000Y-94043200D03*
%TO.P,U5,G7,V_{DD}*%
%TO.N,+1V5*%
X174000000Y-94043200D03*
%TO.P,U5,G8,V_{SS}*%
%TO.N,GND*%
X173200000Y-94043200D03*
%TO.P,U5,G9,V_{SSQ}*%
X172400000Y-94043200D03*
%TO.P,U5,H1,V_{REFDQ}*%
%TO.N,+1V5*%
X178800000Y-93243200D03*
%TO.P,U5,H2,V_{DDQ}*%
X178000000Y-93243200D03*
%TO.P,U5,H3,DQ4*%
%TO.N,DDR_D4*%
X177200000Y-93243200D03*
%TO.P,U5,H7,DQ7*%
%TO.N,DDR_D7*%
X174000000Y-93243200D03*
%TO.P,U5,H8,DQ5*%
%TO.N,DDR_D5*%
X173200000Y-93243200D03*
%TO.P,U5,H9,V_{DDQ}*%
%TO.N,+1V5*%
X172400000Y-93243200D03*
%TO.P,U5,J1,NC*%
%TO.N,unconnected-(U5-NC-PadJ1)*%
X178800000Y-92443200D03*
%TO.P,U5,J2,V_{SS}*%
%TO.N,GND*%
X178000000Y-92443200D03*
%TO.P,U5,J3,~{RAS}*%
%TO.N,DDR_RAS*%
X177200000Y-92443200D03*
%TO.P,U5,J7,CK*%
%TO.N,DDR_CLKP*%
X174000000Y-92443200D03*
%TO.P,U5,J8,V_{SS}*%
%TO.N,GND*%
X173200000Y-92443200D03*
%TO.P,U5,J9,NC*%
%TO.N,unconnected-(U5-NC-PadJ9)*%
X172400000Y-92443200D03*
%TO.P,U5,K1,ODT*%
%TO.N,unconnected-(U5-ODT-PadK1)*%
X178800000Y-91643200D03*
%TO.P,U5,K2,V_{DD}*%
%TO.N,+1V5*%
X178000000Y-91643200D03*
%TO.P,U5,K3,~{CAS}*%
%TO.N,DDR_CAS*%
X177200000Y-91643200D03*
%TO.P,U5,K7,~{CK}*%
%TO.N,DDR_CLKN*%
X174000000Y-91643200D03*
%TO.P,U5,K8,V_{DD}*%
%TO.N,+1V5*%
X173200000Y-91643200D03*
%TO.P,U5,K9,CKE*%
%TO.N,DDR_CKE*%
X172400000Y-91643200D03*
%TO.P,U5,L1,NC*%
%TO.N,unconnected-(U5-NC-PadL1)*%
X178800000Y-90843200D03*
%TO.P,U5,L2,~{CS}*%
%TO.N,DDR_CS*%
X178000000Y-90843200D03*
%TO.P,U5,L3,~{WE}*%
%TO.N,DDR_WE*%
X177200000Y-90843200D03*
%TO.P,U5,L7,A10/AP*%
%TO.N,DDR_A10*%
X174000000Y-90843200D03*
%TO.P,U5,L8,ZQ*%
%TO.N,Net-(U5-ZQ)*%
X173200000Y-90843200D03*
%TO.P,U5,L9,NC*%
%TO.N,unconnected-(U5-NC-PadL9)*%
X172400000Y-90843200D03*
%TO.P,U5,M1,V_{SS}*%
%TO.N,GND*%
X178800000Y-90043200D03*
%TO.P,U5,M2,BA0*%
%TO.N,DDR_BA0*%
X178000000Y-90043200D03*
%TO.P,U5,M3,BA2*%
%TO.N,DDR_BA2*%
X177200000Y-90043200D03*
%TO.P,U5,M7,NC*%
%TO.N,unconnected-(U5-NC-PadM7)*%
X174000000Y-90043200D03*
%TO.P,U5,M8,V_{REFCA}*%
%TO.N,+1V5*%
X173200000Y-90043200D03*
%TO.P,U5,M9,V_{SS}*%
%TO.N,GND*%
X172400000Y-90043200D03*
%TO.P,U5,N1,V_{DD}*%
%TO.N,+1V5*%
X178800000Y-89243200D03*
%TO.P,U5,N2,A3*%
%TO.N,DDR_A3*%
X178000000Y-89243200D03*
%TO.P,U5,N3,A0*%
%TO.N,DDR_A0*%
X177200000Y-89243200D03*
%TO.P,U5,N7,A12/~{BC}*%
%TO.N,DDR_A12*%
X174000000Y-89243200D03*
%TO.P,U5,N8,BA1*%
%TO.N,DDR_BA1*%
X173200000Y-89243200D03*
%TO.P,U5,N9,V_{DD}*%
%TO.N,+1V5*%
X172400000Y-89243200D03*
%TO.P,U5,P1,V_{SS}*%
%TO.N,GND*%
X178800000Y-88443200D03*
%TO.P,U5,P2,A5*%
%TO.N,DDR_A5*%
X178000000Y-88443200D03*
%TO.P,U5,P3,A2*%
%TO.N,DDR_A2*%
X177200000Y-88443200D03*
%TO.P,U5,P7,A1*%
%TO.N,DDR_A1*%
X174000000Y-88443200D03*
%TO.P,U5,P8,A4*%
%TO.N,DDR_A4*%
X173200000Y-88443200D03*
%TO.P,U5,P9,V_{SS}*%
%TO.N,GND*%
X172400000Y-88443200D03*
%TO.P,U5,R1,V_{DD}*%
%TO.N,+1V5*%
X178800000Y-87643200D03*
%TO.P,U5,R2,A7*%
%TO.N,DDR_A7*%
X178000000Y-87643200D03*
%TO.P,U5,R3,A9*%
%TO.N,DDR_A9*%
X177200000Y-87643200D03*
%TO.P,U5,R7,A11*%
%TO.N,DDR_A11*%
X174000000Y-87643200D03*
%TO.P,U5,R8,A6*%
%TO.N,DDR_A6*%
X173200000Y-87643200D03*
%TO.P,U5,R9,V_{DD}*%
%TO.N,+1V5*%
X172400000Y-87643200D03*
%TO.P,U5,T1,V_{SS}*%
%TO.N,GND*%
X178800000Y-86843200D03*
%TO.P,U5,T2,~{RESET}*%
%TO.N,~{DDR_RESET}*%
X178000000Y-86843200D03*
%TO.P,U5,T3,A13*%
%TO.N,DDR_A13*%
X177200000Y-86843200D03*
%TO.P,U5,T7,A14*%
%TO.N,unconnected-(U5-A14-PadT7)*%
X174000000Y-86843200D03*
%TO.P,U5,T8,A8*%
%TO.N,DDR_A8*%
X173200000Y-86843200D03*
%TO.P,U5,T9,V_{SS}*%
%TO.N,GND*%
X172400000Y-86843200D03*
%TD*%
D16*
%TO.P,C16,1*%
%TO.N,+3V3*%
X161898000Y-130536200D03*
%TO.P,C16,2*%
%TO.N,GND*%
X157498000Y-130536200D03*
%TD*%
D17*
%TO.P,U7,1,TXD*%
%TO.N,CAN_TXD*%
X130675000Y-120005000D03*
%TO.P,U7,2,VSS*%
%TO.N,GND*%
X130675000Y-118735000D03*
%TO.P,U7,3,VDD*%
%TO.N,+5V*%
X130675000Y-117465000D03*
%TO.P,U7,4,RXD*%
%TO.N,CAN_RXD*%
X130675000Y-116195000D03*
%TO.P,U7,5,Vio*%
%TO.N,+3V3*%
X125725000Y-116195000D03*
%TO.P,U7,6,CANL*%
%TO.N,CANL*%
X125725000Y-117465000D03*
%TO.P,U7,7,CANH*%
%TO.N,CANH*%
X125725000Y-118735000D03*
%TO.P,U7,8,STBY*%
%TO.N,CAN_STBY*%
X125725000Y-120005000D03*
%TD*%
D18*
%TO.P,U9,1,BOOT*%
%TO.N,Net-(U9-BOOT)*%
X156123600Y-138277600D03*
%TO.P,U9,2,NC*%
%TO.N,unconnected-(U9-NC-Pad2)*%
X156123600Y-137007600D03*
%TO.P,U9,3,NC*%
%TO.N,unconnected-(U9-NC-Pad3)*%
X156123600Y-135737600D03*
%TO.P,U9,4,VSENSE*%
%TO.N,Net-(U9-VSENSE)*%
X156123600Y-134467600D03*
%TO.P,U9,5,EN*%
%TO.N,unconnected-(U9-EN-Pad5)*%
X150723600Y-134467600D03*
%TO.P,U9,6,GND*%
%TO.N,GND*%
X150723600Y-135737600D03*
%TO.P,U9,7,VIN*%
%TO.N,VDC*%
X150723600Y-137007600D03*
%TO.P,U9,8,PH*%
%TO.N,Net-(D2-K)*%
X150723600Y-138277600D03*
D19*
%TO.P,U9,9,GNDPAD*%
%TO.N,GND*%
X154023600Y-138172600D03*
X154023600Y-136972600D03*
X154023600Y-135672600D03*
X154023600Y-134572600D03*
D20*
X153423600Y-136372600D03*
D21*
X153423600Y-136372600D03*
D19*
X152823600Y-138172600D03*
X152823600Y-136972600D03*
X152823600Y-135672600D03*
X152823600Y-134572600D03*
%TD*%
D22*
%TO.P,J3,1,Pin_1*%
%TO.N,VDC*%
X120600000Y-130800000D03*
D23*
%TO.P,J3,2,Pin_2*%
%TO.N,GND*%
X120600000Y-127800000D03*
%TD*%
D24*
%TO.P,U1,A1,VSS*%
%TO.N,Net-(U1-VSS-PadA1)*%
X71250000Y-193500000D03*
%TO.P,U1,A2,PA9*%
%TO.N,unconnected-(U1-PA9-PadA2)*%
X71250000Y-193000000D03*
%TO.P,U1,A3,PE13*%
%TO.N,unconnected-(U1-PE13-PadA3)*%
X71250000Y-192500000D03*
%TO.P,U1,A4,PE12*%
%TO.N,unconnected-(U1-PE12-PadA4)*%
X71250000Y-192000000D03*
%TO.P,U1,A6,PD12*%
%TO.N,unconnected-(U1-PD12-PadA6)*%
X71250000Y-191000000D03*
%TO.P,U1,A7,PG0*%
%TO.N,unconnected-(U1-PG0-PadA7)*%
X71250000Y-190500000D03*
%TO.P,U1,A9,PE15*%
%TO.N,unconnected-(U1-PE15-PadA9)*%
X71250000Y-189500000D03*
%TO.P,U1,A10,PG7*%
%TO.N,unconnected-(U1-PG7-PadA10)*%
X71250000Y-189000000D03*
%TO.P,U1,A12,PH13*%
%TO.N,unconnected-(U1-PH13-PadA12)*%
X71250000Y-188000000D03*
%TO.P,U1,A13,PF3*%
%TO.N,unconnected-(U1-PF3-PadA13)*%
X71250000Y-187500000D03*
%TO.P,U1,A15,PB9*%
%TO.N,unconnected-(U1-PB9-PadA15)*%
X71250000Y-186500000D03*
%TO.P,U1,A16,PF0*%
%TO.N,unconnected-(U1-PF0-PadA16)*%
X71250000Y-186000000D03*
%TO.P,U1,A18,PC10*%
%TO.N,unconnected-(U1-PC10-PadA18)*%
X71250000Y-185000000D03*
%TO.P,U1,A19,PC12*%
%TO.N,unconnected-(U1-PC12-PadA19)*%
X71250000Y-184500000D03*
%TO.P,U1,A20,PC9*%
%TO.N,unconnected-(U1-PC9-PadA20)*%
X71250000Y-184000000D03*
%TO.P,U1,A21,VSS*%
%TO.N,Net-(U1-VSS-PadA1)*%
X71250000Y-183500000D03*
%TO.P,U1,AA1,VSS*%
X81250000Y-193500000D03*
%TO.P,U1,AA2,PB11*%
%TO.N,unconnected-(U1-PB11-PadAA2)*%
X81250000Y-193000000D03*
%TO.P,U1,AA3,PA1*%
%TO.N,unconnected-(U1-PA1-PadAA3)*%
X81250000Y-192500000D03*
%TO.P,U1,AA4,PF12*%
%TO.N,unconnected-(U1-PF12-PadAA4)*%
X81250000Y-192000000D03*
%TO.P,U1,AA6,PA4*%
%TO.N,unconnected-(U1-PA4-PadAA6)*%
X81250000Y-191000000D03*
%TO.P,U1,AA7,PC5*%
%TO.N,unconnected-(U1-PC5-PadAA7)*%
X81250000Y-190500000D03*
%TO.P,U1,AA9,PG13*%
%TO.N,unconnected-(U1-PG13-PadAA9)*%
X81250000Y-189500000D03*
%TO.P,U1,AA10,PC2*%
%TO.N,unconnected-(U1-PC2-PadAA10)*%
X81250000Y-189000000D03*
%TO.P,U1,AA12,PDR_ON*%
%TO.N,unconnected-(U1-PDR_ON-PadAA12)*%
X81250000Y-188000000D03*
%TO.P,U1,AA13,USB_DP2*%
%TO.N,unconnected-(U1-USB_DP2-PadAA13)*%
X81250000Y-187500000D03*
%TO.P,U1,AA15,PI5*%
%TO.N,unconnected-(U1-PI5-PadAA15)*%
X81250000Y-186500000D03*
%TO.P,U1,AA16,USB_DM1*%
%TO.N,unconnected-(U1-USB_DM1-PadAA16)*%
X81250000Y-186000000D03*
%TO.P,U1,AA18,VSS_PLL2*%
%TO.N,unconnected-(U1-VSS_PLL2-PadAA18)*%
X81250000Y-185000000D03*
%TO.P,U1,AA19,PA10*%
%TO.N,unconnected-(U1-PA10-PadAA19)*%
X81250000Y-184500000D03*
%TO.P,U1,AA20,PI7*%
%TO.N,unconnected-(U1-PI7-PadAA20)*%
X81250000Y-184000000D03*
%TO.P,U1,AA21,VSS*%
%TO.N,Net-(U1-VSS-PadA1)*%
X81250000Y-183500000D03*
%TO.P,U1,B1,PD0*%
%TO.N,unconnected-(U1-PD0-PadB1)*%
X71750000Y-193500000D03*
%TO.P,U1,B2,PE11*%
%TO.N,unconnected-(U1-PE11-PadB2)*%
X71750000Y-193000000D03*
%TO.P,U1,B3,PF5*%
%TO.N,unconnected-(U1-PF5-PadB3)*%
X71750000Y-192500000D03*
%TO.P,U1,B4,PA15*%
%TO.N,unconnected-(U1-PA15-PadB4)*%
X71750000Y-192000000D03*
%TO.P,U1,B5,PD8*%
%TO.N,unconnected-(U1-PD8-PadB5)*%
X71750000Y-191500000D03*
%TO.P,U1,B6,PE0*%
%TO.N,unconnected-(U1-PE0-PadB6)*%
X71750000Y-191000000D03*
%TO.P,U1,B7,PE9*%
%TO.N,unconnected-(U1-PE9-PadB7)*%
X71750000Y-190500000D03*
%TO.P,U1,B8,PH14*%
%TO.N,unconnected-(U1-PH14-PadB8)*%
X71750000Y-190000000D03*
%TO.P,U1,B9,PE8*%
%TO.N,unconnected-(U1-PE8-PadB9)*%
X71750000Y-189500000D03*
%TO.P,U1,B10,PG4*%
%TO.N,unconnected-(U1-PG4-PadB10)*%
X71750000Y-189000000D03*
%TO.P,U1,B11,PF1*%
%TO.N,unconnected-(U1-PF1-PadB11)*%
X71750000Y-188500000D03*
%TO.P,U1,B12,VSS*%
%TO.N,Net-(U1-VSS-PadA1)*%
X71750000Y-188000000D03*
%TO.P,U1,B13,PB5*%
%TO.N,unconnected-(U1-PB5-PadB13)*%
X71750000Y-187500000D03*
%TO.P,U1,B14,PC6*%
%TO.N,unconnected-(U1-PC6-PadB14)*%
X71750000Y-187000000D03*
%TO.P,U1,B15,PB15*%
%TO.N,unconnected-(U1-PB15-PadB15)*%
X71750000Y-186500000D03*
%TO.P,U1,B16,PB14*%
%TO.N,unconnected-(U1-PB14-PadB16)*%
X71750000Y-186000000D03*
%TO.P,U1,B17,PE3*%
%TO.N,unconnected-(U1-PE3-PadB17)*%
X71750000Y-185500000D03*
%TO.P,U1,B18,PC11*%
%TO.N,unconnected-(U1-PC11-PadB18)*%
X71750000Y-185000000D03*
%TO.P,U1,B19,DDR_DQ4*%
%TO.N,unconnected-(U1-DDR_DQ4-PadB19)*%
X71750000Y-184500000D03*
%TO.P,U1,B20,DDR_DQ1*%
%TO.N,unconnected-(U1-DDR_DQ1-PadB20)*%
X71750000Y-184000000D03*
%TO.P,U1,B21,DDR_DQ0*%
%TO.N,unconnected-(U1-DDR_DQ0-PadB21)*%
X71750000Y-183500000D03*
%TO.P,U1,C1,PB6*%
%TO.N,unconnected-(U1-PB6-PadC1)*%
X72250000Y-193500000D03*
%TO.P,U1,C2,PD3*%
%TO.N,unconnected-(U1-PD3-PadC2)*%
X72250000Y-193000000D03*
%TO.P,U1,C3,PE14*%
%TO.N,unconnected-(U1-PE14-PadC3)*%
X72250000Y-192500000D03*
%TO.P,U1,C4,PD14*%
%TO.N,unconnected-(U1-PD14-PadC4)*%
X72250000Y-192000000D03*
%TO.P,U1,C5,PD1*%
%TO.N,unconnected-(U1-PD1-PadC5)*%
X72250000Y-191500000D03*
%TO.P,U1,C6,PB7*%
%TO.N,unconnected-(U1-PB7-PadC6)*%
X72250000Y-191000000D03*
%TO.P,U1,C7,PD4*%
%TO.N,unconnected-(U1-PD4-PadC7)*%
X72250000Y-190500000D03*
%TO.P,U1,C8,PD5*%
%TO.N,unconnected-(U1-PD5-PadC8)*%
X72250000Y-190000000D03*
%TO.P,U1,C9,PD9*%
%TO.N,unconnected-(U1-PD9-PadC9)*%
X72250000Y-189500000D03*
%TO.P,U1,C10,PE10*%
%TO.N,unconnected-(U1-PE10-PadC10)*%
X72250000Y-189000000D03*
%TO.P,U1,C11,PB12*%
%TO.N,unconnected-(U1-PB12-PadC11)*%
X72250000Y-188500000D03*
%TO.P,U1,C12,PH9*%
%TO.N,unconnected-(U1-PH9-PadC12)*%
X72250000Y-188000000D03*
%TO.P,U1,C13,PC7*%
%TO.N,unconnected-(U1-PC7-PadC13)*%
X72250000Y-187500000D03*
%TO.P,U1,C14,PB3*%
%TO.N,unconnected-(U1-PB3-PadC14)*%
X72250000Y-187000000D03*
%TO.P,U1,C15,VDDSD2*%
%TO.N,unconnected-(U1-VDDSD2-PadC15)*%
X72250000Y-186500000D03*
%TO.P,U1,C16,PB4*%
%TO.N,unconnected-(U1-PB4-PadC16)*%
X72250000Y-186000000D03*
%TO.P,U1,C17,PG6*%
%TO.N,unconnected-(U1-PG6-PadC17)*%
X72250000Y-185500000D03*
%TO.P,U1,C18,PC8*%
%TO.N,unconnected-(U1-PC8-PadC18)*%
X72250000Y-185000000D03*
%TO.P,U1,C19,PD2*%
%TO.N,unconnected-(U1-PD2-PadC19)*%
X72250000Y-184500000D03*
%TO.P,U1,C20,DDR_DQS0P*%
%TO.N,unconnected-(U1-DDR_DQS0P-PadC20)*%
X72250000Y-184000000D03*
%TO.P,U1,C21,DDR_DQS0N*%
%TO.N,unconnected-(U1-DDR_DQS0N-PadC21)*%
X72250000Y-183500000D03*
%TO.P,U1,D1,PB8*%
%TO.N,unconnected-(U1-PB8-PadD1)*%
X72750000Y-193500000D03*
%TO.P,U1,D2,PD6*%
%TO.N,unconnected-(U1-PD6-PadD2)*%
X72750000Y-193000000D03*
%TO.P,U1,D3,PH12*%
%TO.N,unconnected-(U1-PH12-PadD3)*%
X72750000Y-192500000D03*
%TO.P,U1,D6,PD10*%
%TO.N,unconnected-(U1-PD10-PadD6)*%
X72750000Y-191000000D03*
%TO.P,U1,D8,PE7*%
%TO.N,unconnected-(U1-PE7-PadD8)*%
X72750000Y-190000000D03*
%TO.P,U1,D11,PF2*%
%TO.N,unconnected-(U1-PF2-PadD11)*%
X72750000Y-188500000D03*
%TO.P,U1,D14,PB13*%
%TO.N,unconnected-(U1-PB13-PadD14)*%
X72750000Y-187000000D03*
%TO.P,U1,D16,VSS*%
%TO.N,Net-(U1-VSS-PadA1)*%
X72750000Y-186000000D03*
%TO.P,U1,D19,DDR_DQ2*%
%TO.N,unconnected-(U1-DDR_DQ2-PadD19)*%
X72750000Y-184500000D03*
%TO.P,U1,D20,DDR_DQ5*%
%TO.N,unconnected-(U1-DDR_DQ5-PadD20)*%
X72750000Y-184000000D03*
%TO.P,U1,D21,DDR_DQM0*%
%TO.N,unconnected-(U1-DDR_DQM0-PadD21)*%
X72750000Y-183500000D03*
%TO.P,U1,E2,PH2*%
%TO.N,unconnected-(U1-PH2-PadE2)*%
X73250000Y-193000000D03*
%TO.P,U1,E3,PH8*%
%TO.N,unconnected-(U1-PH8-PadE3)*%
X73250000Y-192500000D03*
%TO.P,U1,E5,VSS*%
%TO.N,Net-(U1-VSS-PadA1)*%
X73250000Y-191500000D03*
%TO.P,U1,E6,VSS*%
X73250000Y-191000000D03*
%TO.P,U1,E7,VDDCPU*%
%TO.N,unconnected-(U1-VDDCPU-PadE7)*%
X73250000Y-190500000D03*
%TO.P,U1,E8,PE1*%
%TO.N,unconnected-(U1-PE1-PadE8)*%
X73250000Y-190000000D03*
%TO.P,U1,E9,PD15*%
%TO.N,unconnected-(U1-PD15-PadE9)*%
X73250000Y-189500000D03*
%TO.P,U1,E10,VDDCPU*%
%TO.N,unconnected-(U1-VDDCPU-PadE10)*%
X73250000Y-189000000D03*
%TO.P,U1,E11,VSS*%
%TO.N,Net-(U1-VSS-PadA1)*%
X73250000Y-188500000D03*
%TO.P,U1,E12,VDD*%
%TO.N,unconnected-(U1-VDD-PadE12)*%
X73250000Y-188000000D03*
%TO.P,U1,E13,PB10*%
%TO.N,unconnected-(U1-PB10-PadE13)*%
X73250000Y-187500000D03*
%TO.P,U1,E14,PH10*%
%TO.N,unconnected-(U1-PH10-PadE14)*%
X73250000Y-187000000D03*
%TO.P,U1,E15,VDDQ_DDR*%
%TO.N,unconnected-(U1-VDDQ_DDR-PadE15)*%
X73250000Y-186500000D03*
%TO.P,U1,E16,VSS*%
%TO.N,Net-(U1-VSS-PadA1)*%
X73250000Y-186000000D03*
%TO.P,U1,E17,VDDSD1*%
%TO.N,unconnected-(U1-VDDSD1-PadE17)*%
X73250000Y-185500000D03*
%TO.P,U1,E19,DDR_DQ3*%
%TO.N,unconnected-(U1-DDR_DQ3-PadE19)*%
X73250000Y-184500000D03*
%TO.P,U1,E20,DDR_DQ6*%
%TO.N,unconnected-(U1-DDR_DQ6-PadE20)*%
X73250000Y-184000000D03*
%TO.P,U1,F1,PF8*%
%TO.N,unconnected-(U1-PF8-PadF1)*%
X73750000Y-193500000D03*
%TO.P,U1,F2,PG9*%
%TO.N,unconnected-(U1-PG9-PadF2)*%
X73750000Y-193000000D03*
%TO.P,U1,F3,PD11*%
%TO.N,unconnected-(U1-PD11-PadF3)*%
X73750000Y-192500000D03*
%TO.P,U1,F4,PA12*%
%TO.N,unconnected-(U1-PA12-PadF4)*%
X73750000Y-192000000D03*
%TO.P,U1,F5,VSS*%
%TO.N,Net-(U1-VSS-PadA1)*%
X73750000Y-191500000D03*
%TO.P,U1,F17,VSS*%
X73750000Y-185500000D03*
%TO.P,U1,F18,VSS*%
X73750000Y-185000000D03*
%TO.P,U1,F19,DDR_DQ7*%
%TO.N,unconnected-(U1-DDR_DQ7-PadF19)*%
X73750000Y-184500000D03*
%TO.P,U1,F20,DDR_A5*%
%TO.N,unconnected-(U1-DDR_A5-PadF20)*%
X73750000Y-184000000D03*
%TO.P,U1,F21,VSS*%
%TO.N,Net-(U1-VSS-PadA1)*%
X73750000Y-183500000D03*
%TO.P,U1,G1,PF6*%
%TO.N,unconnected-(U1-PF6-PadG1)*%
X74250000Y-193500000D03*
%TO.P,U1,G2,PG10*%
%TO.N,unconnected-(U1-PG10-PadG2)*%
X74250000Y-193000000D03*
%TO.P,U1,G3,PG5*%
%TO.N,unconnected-(U1-PG5-PadG3)*%
X74250000Y-192500000D03*
%TO.P,U1,G5,VDDCPU*%
%TO.N,unconnected-(U1-VDDCPU-PadG5)*%
X74250000Y-191500000D03*
%TO.P,U1,G7,VDDCPU*%
%TO.N,unconnected-(U1-VDDCPU-PadG7)*%
X74250000Y-190500000D03*
%TO.P,U1,G8,VSS*%
%TO.N,Net-(U1-VSS-PadA1)*%
X74250000Y-190000000D03*
%TO.P,U1,G9,VDD*%
%TO.N,unconnected-(U1-VDD-PadG9)*%
X74250000Y-189500000D03*
%TO.P,U1,G10,VDDCPU*%
%TO.N,unconnected-(U1-VDDCPU-PadG10)*%
X74250000Y-189000000D03*
%TO.P,U1,G11,VDDCORE*%
%TO.N,unconnected-(U1-VDDCORE-PadG11)*%
X74250000Y-188500000D03*
%TO.P,U1,G12,VSS*%
%TO.N,Net-(U1-VSS-PadA1)*%
X74250000Y-188000000D03*
%TO.P,U1,G13,VDD*%
%TO.N,unconnected-(U1-VDD-PadG13)*%
X74250000Y-187500000D03*
%TO.P,U1,G14,VSS*%
%TO.N,Net-(U1-VSS-PadA1)*%
X74250000Y-187000000D03*
%TO.P,U1,G15,VDDQ_DDR*%
%TO.N,unconnected-(U1-VDDQ_DDR-PadG15)*%
X74250000Y-186500000D03*
%TO.P,U1,G17,VDDQ_DDR*%
%TO.N,unconnected-(U1-VDDQ_DDR-PadG17)*%
X74250000Y-185500000D03*
%TO.P,U1,G19,DDR_A13*%
%TO.N,unconnected-(U1-DDR_A13-PadG19)*%
X74250000Y-184500000D03*
%TO.P,U1,G20,DDR_A2*%
%TO.N,unconnected-(U1-DDR_A2-PadG20)*%
X74250000Y-184000000D03*
%TO.P,U1,G21,DDR_A9*%
%TO.N,unconnected-(U1-DDR_A9-PadG21)*%
X74250000Y-183500000D03*
%TO.P,U1,H2,PE4*%
%TO.N,unconnected-(U1-PE4-PadH2)*%
X74750000Y-193000000D03*
%TO.P,U1,H3,PF10*%
%TO.N,unconnected-(U1-PF10-PadH3)*%
X74750000Y-192500000D03*
%TO.P,U1,H4,PG15*%
%TO.N,unconnected-(U1-PG15-PadH4)*%
X74750000Y-192000000D03*
%TO.P,U1,H5,PG8*%
%TO.N,unconnected-(U1-PG8-PadH5)*%
X74750000Y-191500000D03*
%TO.P,U1,H7,VSS*%
%TO.N,Net-(U1-VSS-PadA1)*%
X74750000Y-190500000D03*
%TO.P,U1,H15,VSS*%
X74750000Y-186500000D03*
%TO.P,U1,H17,DDR_RESETN*%
%TO.N,unconnected-(U1-DDR_RESETN-PadH17)*%
X74750000Y-185500000D03*
%TO.P,U1,H18,DDR_BA2*%
%TO.N,unconnected-(U1-DDR_BA2-PadH18)*%
X74750000Y-185000000D03*
%TO.P,U1,H19,DDR_A3*%
%TO.N,unconnected-(U1-DDR_A3-PadH19)*%
X74750000Y-184500000D03*
%TO.P,U1,H20,DDR_A0*%
%TO.N,unconnected-(U1-DDR_A0-PadH20)*%
X74750000Y-184000000D03*
%TO.P,U1,J1,PH7*%
%TO.N,unconnected-(U1-PH7-PadJ1)*%
X75250000Y-193500000D03*
%TO.P,U1,J2,PD13*%
%TO.N,unconnected-(U1-PD13-PadJ2)*%
X75250000Y-193000000D03*
%TO.P,U1,J3,PB2*%
%TO.N,unconnected-(U1-PB2-PadJ3)*%
X75250000Y-192500000D03*
%TO.P,U1,J5,PF9*%
%TO.N,unconnected-(U1-PF9-PadJ5)*%
X75250000Y-191500000D03*
%TO.P,U1,J7,VDD*%
%TO.N,unconnected-(U1-VDD-PadJ7)*%
X75250000Y-190500000D03*
%TO.P,U1,J9,VDD*%
%TO.N,unconnected-(U1-VDD-PadJ9)*%
X75250000Y-189500000D03*
%TO.P,U1,J10,VSS*%
%TO.N,Net-(U1-VSS-PadA1)*%
X75250000Y-189000000D03*
%TO.P,U1,J11,VDDCORE*%
%TO.N,unconnected-(U1-VDDCORE-PadJ11)*%
X75250000Y-188500000D03*
%TO.P,U1,J12,VSS*%
%TO.N,Net-(U1-VSS-PadA1)*%
X75250000Y-188000000D03*
%TO.P,U1,J13,VDD*%
%TO.N,unconnected-(U1-VDD-PadJ13)*%
X75250000Y-187500000D03*
%TO.P,U1,J15,VDDCORE*%
%TO.N,unconnected-(U1-VDDCORE-PadJ15)*%
X75250000Y-186500000D03*
%TO.P,U1,J17,DDR_A7*%
%TO.N,unconnected-(U1-DDR_A7-PadJ17)*%
X75250000Y-185500000D03*
%TO.P,U1,J19,DDR_BA0*%
%TO.N,unconnected-(U1-DDR_BA0-PadJ19)*%
X75250000Y-184500000D03*
%TO.P,U1,J20,DDR_CSN*%
%TO.N,unconnected-(U1-DDR_CSN-PadJ20)*%
X75250000Y-184000000D03*
%TO.P,U1,J21,DDR_ODT*%
%TO.N,unconnected-(U1-DDR_ODT-PadJ21)*%
X75250000Y-183500000D03*
%TO.P,U1,K1,VSS_PLL*%
%TO.N,unconnected-(U1-VSS_PLL-PadK1)*%
X75750000Y-193500000D03*
%TO.P,U1,K2,VDD_PLL*%
%TO.N,unconnected-(U1-VDD_PLL-PadK2)*%
X75750000Y-193000000D03*
%TO.P,U1,K3,PH11*%
%TO.N,unconnected-(U1-PH11-PadK3)*%
X75750000Y-192500000D03*
%TO.P,U1,K5,VDDCPU*%
%TO.N,unconnected-(U1-VDDCPU-PadK5)*%
X75750000Y-191500000D03*
%TO.P,U1,K7,VDDCPU*%
%TO.N,unconnected-(U1-VDDCPU-PadK7)*%
X75750000Y-190500000D03*
%TO.P,U1,K9,VSS*%
%TO.N,Net-(U1-VSS-PadA1)*%
X75750000Y-189500000D03*
%TO.P,U1,K10,VSS*%
X75750000Y-189000000D03*
%TO.P,U1,K11,VSS*%
X75750000Y-188500000D03*
%TO.P,U1,K12,VSS*%
X75750000Y-188000000D03*
%TO.P,U1,K13,VSS*%
X75750000Y-187500000D03*
%TO.P,U1,K15,VDDQ_DDR*%
%TO.N,unconnected-(U1-VDDQ_DDR-PadK15)*%
X75750000Y-186500000D03*
%TO.P,U1,K17,VDDQ_DDR*%
%TO.N,unconnected-(U1-VDDQ_DDR-PadK17)*%
X75750000Y-185500000D03*
%TO.P,U1,K19,DDR_WEN*%
%TO.N,unconnected-(U1-DDR_WEN-PadK19)*%
X75750000Y-184500000D03*
%TO.P,U1,K20,DDR_RASN*%
%TO.N,unconnected-(U1-DDR_RASN-PadK20)*%
X75750000Y-184000000D03*
%TO.P,U1,K21,VSS*%
%TO.N,Net-(U1-VSS-PadA1)*%
X75750000Y-183500000D03*
%TO.P,U1,L2,VBAT*%
%TO.N,unconnected-(U1-VBAT-PadL2)*%
X76250000Y-193000000D03*
%TO.P,U1,L3,PC15*%
%TO.N,unconnected-(U1-PC15-PadL3)*%
X76250000Y-192500000D03*
%TO.P,U1,L4,PI3*%
%TO.N,unconnected-(U1-PI3-PadL4)*%
X76250000Y-192000000D03*
%TO.P,U1,L5,VSS*%
%TO.N,Net-(U1-VSS-PadA1)*%
X76250000Y-191500000D03*
%TO.P,U1,L7,VDDCORE*%
%TO.N,unconnected-(U1-VDDCORE-PadL7)*%
X76250000Y-190500000D03*
%TO.P,U1,L9,VDDCORE*%
%TO.N,unconnected-(U1-VDDCORE-PadL9)*%
X76250000Y-189500000D03*
%TO.P,U1,L10,VSS*%
%TO.N,Net-(U1-VSS-PadA1)*%
X76250000Y-189000000D03*
%TO.P,U1,L12,VSS*%
X76250000Y-188000000D03*
%TO.P,U1,L13,VDDCORE*%
%TO.N,unconnected-(U1-VDDCORE-PadL13)*%
X76250000Y-187500000D03*
%TO.P,U1,L15,VSS*%
%TO.N,Net-(U1-VSS-PadA1)*%
X76250000Y-186500000D03*
%TO.P,U1,L17,VSS*%
X76250000Y-185500000D03*
%TO.P,U1,L18,DDR_A10*%
%TO.N,unconnected-(U1-DDR_A10-PadL18)*%
X76250000Y-185000000D03*
%TO.P,U1,L19,DDR_CASN*%
%TO.N,unconnected-(U1-DDR_CASN-PadL19)*%
X76250000Y-184500000D03*
%TO.P,U1,L20,DDR_CLKN*%
%TO.N,unconnected-(U1-DDR_CLKN-PadL20)*%
X76250000Y-184000000D03*
%TO.P,U1,M1,VSS*%
%TO.N,Net-(U1-VSS-PadA1)*%
X76750000Y-193500000D03*
%TO.P,U1,M2,PC14*%
%TO.N,unconnected-(U1-PC14-PadM2)*%
X76750000Y-193000000D03*
%TO.P,U1,M3,PC13*%
%TO.N,unconnected-(U1-PC13-PadM3)*%
X76750000Y-192500000D03*
%TO.P,U1,M5,VDD*%
%TO.N,unconnected-(U1-VDD-PadM5)*%
X76750000Y-191500000D03*
%TO.P,U1,M7,VSS*%
%TO.N,Net-(U1-VSS-PadA1)*%
X76750000Y-190500000D03*
%TO.P,U1,M9,VSS*%
X76750000Y-189500000D03*
%TO.P,U1,M10,VSS*%
X76750000Y-189000000D03*
%TO.P,U1,M11,VSS*%
X76750000Y-188500000D03*
%TO.P,U1,M12,VSS*%
X76750000Y-188000000D03*
%TO.P,U1,M13,VSS*%
X76750000Y-187500000D03*
%TO.P,U1,M15,VDDQ_DDR*%
%TO.N,unconnected-(U1-VDDQ_DDR-PadM15)*%
X76750000Y-186500000D03*
%TO.P,U1,M17,VDDQ_DDR*%
%TO.N,unconnected-(U1-VDDQ_DDR-PadM17)*%
X76750000Y-185500000D03*
%TO.P,U1,M19,DDR_A12*%
%TO.N,unconnected-(U1-DDR_A12-PadM19)*%
X76750000Y-184500000D03*
%TO.P,U1,M20,DDR_CLKP*%
%TO.N,unconnected-(U1-DDR_CLKP-PadM20)*%
X76750000Y-184000000D03*
%TO.P,U1,M21,DDR_A15*%
%TO.N,unconnected-(U1-DDR_A15-PadM21)*%
X76750000Y-183500000D03*
%TO.P,U1,N1,PE2*%
%TO.N,unconnected-(U1-PE2-PadN1)*%
X77250000Y-193500000D03*
%TO.P,U1,N2,PF4*%
%TO.N,unconnected-(U1-PF4-PadN2)*%
X77250000Y-193000000D03*
%TO.P,U1,N3,PH6*%
%TO.N,unconnected-(U1-PH6-PadN3)*%
X77250000Y-192500000D03*
%TO.P,U1,N5,PI2*%
%TO.N,unconnected-(U1-PI2-PadN5)*%
X77250000Y-191500000D03*
%TO.P,U1,N7,VDD*%
%TO.N,unconnected-(U1-VDD-PadN7)*%
X77250000Y-190500000D03*
%TO.P,U1,N9,VDD*%
%TO.N,unconnected-(U1-VDD-PadN9)*%
X77250000Y-189500000D03*
%TO.P,U1,N10,VDDCORE*%
%TO.N,unconnected-(U1-VDDCORE-PadN10)*%
X77250000Y-189000000D03*
%TO.P,U1,N11,VSS*%
%TO.N,Net-(U1-VSS-PadA1)*%
X77250000Y-188500000D03*
%TO.P,U1,N12,VDD*%
%TO.N,unconnected-(U1-VDD-PadN12)*%
X77250000Y-188000000D03*
%TO.P,U1,N13,VDDCORE*%
%TO.N,unconnected-(U1-VDDCORE-PadN13)*%
X77250000Y-187500000D03*
%TO.P,U1,N15,VDDCORE*%
%TO.N,unconnected-(U1-VDDCORE-PadN15)*%
X77250000Y-186500000D03*
%TO.P,U1,N17,DDR_A11*%
%TO.N,unconnected-(U1-DDR_A11-PadN17)*%
X77250000Y-185500000D03*
%TO.P,U1,N19,DDR_A14*%
%TO.N,unconnected-(U1-DDR_A14-PadN19)*%
X77250000Y-184500000D03*
%TO.P,U1,N20,DDR_CKE*%
%TO.N,unconnected-(U1-DDR_CKE-PadN20)*%
X77250000Y-184000000D03*
%TO.P,U1,N21,DDR_A1*%
%TO.N,unconnected-(U1-DDR_A1-PadN21)*%
X77250000Y-183500000D03*
%TO.P,U1,P2,PA8*%
%TO.N,unconnected-(U1-PA8-PadP2)*%
X77750000Y-193000000D03*
%TO.P,U1,P3,PF7*%
%TO.N,unconnected-(U1-PF7-PadP3)*%
X77750000Y-192500000D03*
%TO.P,U1,P4,PI1*%
%TO.N,unconnected-(U1-PI1-PadP4)*%
X77750000Y-192000000D03*
%TO.P,U1,P5,PI0*%
%TO.N,unconnected-(U1-PI0-PadP5)*%
X77750000Y-191500000D03*
%TO.P,U1,P7,VSS*%
%TO.N,Net-(U1-VSS-PadA1)*%
X77750000Y-190500000D03*
%TO.P,U1,P15,VSS*%
X77750000Y-186500000D03*
%TO.P,U1,P17,DDR_DTO1*%
%TO.N,unconnected-(U1-DDR_DTO1-PadP17)*%
X77750000Y-185500000D03*
%TO.P,U1,P18,DDR_ATO*%
%TO.N,unconnected-(U1-DDR_ATO-PadP18)*%
X77750000Y-185000000D03*
%TO.P,U1,P19,DDR_A8*%
%TO.N,unconnected-(U1-DDR_A8-PadP19)*%
X77750000Y-184500000D03*
%TO.P,U1,P20,DDR_BA1*%
%TO.N,unconnected-(U1-DDR_BA1-PadP20)*%
X77750000Y-184000000D03*
%TO.P,U1,R1,PG1*%
%TO.N,unconnected-(U1-PG1-PadR1)*%
X78250000Y-193500000D03*
%TO.P,U1,R2,PG11*%
%TO.N,unconnected-(U1-PG11-PadR2)*%
X78250000Y-193000000D03*
%TO.P,U1,R3,PH3*%
%TO.N,unconnected-(U1-PH3-PadR3)*%
X78250000Y-192500000D03*
%TO.P,U1,R5,VDD*%
%TO.N,unconnected-(U1-VDD-PadR5)*%
X78250000Y-191500000D03*
%TO.P,U1,R7,VDD*%
%TO.N,unconnected-(U1-VDD-PadR7)*%
X78250000Y-190500000D03*
%TO.P,U1,R8,VSS*%
%TO.N,Net-(U1-VSS-PadA1)*%
X78250000Y-190000000D03*
%TO.P,U1,R9,VDD*%
%TO.N,unconnected-(U1-VDD-PadR9)*%
X78250000Y-189500000D03*
%TO.P,U1,R10,VDDCORE*%
%TO.N,unconnected-(U1-VDDCORE-PadR10)*%
X78250000Y-189000000D03*
%TO.P,U1,R11,VSS*%
%TO.N,Net-(U1-VSS-PadA1)*%
X78250000Y-188500000D03*
%TO.P,U1,R12,VDD*%
%TO.N,unconnected-(U1-VDD-PadR12)*%
X78250000Y-188000000D03*
%TO.P,U1,R13,VDDCORE*%
%TO.N,unconnected-(U1-VDDCORE-PadR13)*%
X78250000Y-187500000D03*
%TO.P,U1,R14,VSS*%
%TO.N,Net-(U1-VSS-PadA1)*%
X78250000Y-187000000D03*
%TO.P,U1,R15,VDDQ_DDR*%
%TO.N,unconnected-(U1-VDDQ_DDR-PadR15)*%
X78250000Y-186500000D03*
%TO.P,U1,R17,VDDQ_DDR*%
%TO.N,unconnected-(U1-VDDQ_DDR-PadR17)*%
X78250000Y-185500000D03*
%TO.P,U1,R19,DDR_A4*%
%TO.N,unconnected-(U1-DDR_A4-PadR19)*%
X78250000Y-184500000D03*
%TO.P,U1,R20,DDR_ZQ*%
%TO.N,unconnected-(U1-DDR_ZQ-PadR20)*%
X78250000Y-184000000D03*
%TO.P,U1,R21,DDR_A6*%
%TO.N,unconnected-(U1-DDR_A6-PadR21)*%
X78250000Y-183500000D03*
%TO.P,U1,T1,VSS*%
%TO.N,Net-(U1-VSS-PadA1)*%
X78750000Y-193500000D03*
%TO.P,U1,T2,PE6*%
%TO.N,unconnected-(U1-PE6-PadT2)*%
X78750000Y-193000000D03*
%TO.P,U1,T3,PH0*%
%TO.N,unconnected-(U1-PH0-PadT3)*%
X78750000Y-192500000D03*
%TO.P,U1,T4,PA13*%
%TO.N,unconnected-(U1-PA13-PadT4)*%
X78750000Y-192000000D03*
%TO.P,U1,T5,VSS*%
%TO.N,Net-(U1-VSS-PadA1)*%
X78750000Y-191500000D03*
%TO.P,U1,T17,VSS*%
X78750000Y-185500000D03*
%TO.P,U1,T18,DDR_VREF*%
%TO.N,unconnected-(U1-DDR_VREF-PadT18)*%
X78750000Y-185000000D03*
%TO.P,U1,T19,DDR_DQ10*%
%TO.N,unconnected-(U1-DDR_DQ10-PadT19)*%
X78750000Y-184500000D03*
%TO.P,U1,T20,DDR_DQ8*%
%TO.N,unconnected-(U1-DDR_DQ8-PadT20)*%
X78750000Y-184000000D03*
%TO.P,U1,T21,VSS*%
%TO.N,Net-(U1-VSS-PadA1)*%
X78750000Y-183500000D03*
%TO.P,U1,U2,PH1*%
%TO.N,unconnected-(U1-PH1-PadU2)*%
X79250000Y-193000000D03*
%TO.P,U1,U3,VSS_ANA*%
%TO.N,unconnected-(U1-VSS_ANA-PadU3)*%
X79250000Y-192500000D03*
%TO.P,U1,U5,VSS*%
%TO.N,Net-(U1-VSS-PadA1)*%
X79250000Y-191500000D03*
%TO.P,U1,U6,VSS*%
X79250000Y-191000000D03*
%TO.P,U1,U7,VDD*%
%TO.N,unconnected-(U1-VDD-PadU7)*%
X79250000Y-190500000D03*
%TO.P,U1,U8,VDDA*%
%TO.N,unconnected-(U1-VDDA-PadU8)*%
X79250000Y-190000000D03*
%TO.P,U1,U9,VSSA*%
%TO.N,unconnected-(U1-VSSA-PadU9)*%
X79250000Y-189500000D03*
%TO.P,U1,U10,PA6*%
%TO.N,unconnected-(U1-PA6-PadU10)*%
X79250000Y-189000000D03*
%TO.P,U1,U11,VSS*%
%TO.N,Net-(U1-VSS-PadA1)*%
X79250000Y-188500000D03*
%TO.P,U1,U12,VDDCORE*%
%TO.N,unconnected-(U1-VDDCORE-PadU12)*%
X79250000Y-188000000D03*
%TO.P,U1,U13,VSS*%
%TO.N,Net-(U1-VSS-PadA1)*%
X79250000Y-187500000D03*
%TO.P,U1,U14,VDDCORE*%
%TO.N,unconnected-(U1-VDDCORE-PadU14)*%
X79250000Y-187000000D03*
%TO.P,U1,U15,VDDQ_DDR*%
%TO.N,unconnected-(U1-VDDQ_DDR-PadU15)*%
X79250000Y-186500000D03*
%TO.P,U1,U16,VSS*%
%TO.N,Net-(U1-VSS-PadA1)*%
X79250000Y-186000000D03*
%TO.P,U1,U17,PWR_ON*%
%TO.N,unconnected-(U1-PWR_ON-PadU17)*%
X79250000Y-185500000D03*
%TO.P,U1,U19,DDR_DQ13*%
%TO.N,unconnected-(U1-DDR_DQ13-PadU19)*%
X79250000Y-184500000D03*
%TO.P,U1,U20,DDR_DQ9*%
%TO.N,unconnected-(U1-DDR_DQ9-PadU20)*%
X79250000Y-184000000D03*
%TO.P,U1,V1,PD7*%
%TO.N,unconnected-(U1-PD7-PadV1)*%
X79750000Y-193500000D03*
%TO.P,U1,V2,VDD_ANA*%
%TO.N,unconnected-(U1-VDD_ANA-PadV2)*%
X79750000Y-193000000D03*
%TO.P,U1,V3,PG2*%
%TO.N,unconnected-(U1-PG2-PadV3)*%
X79750000Y-192500000D03*
%TO.P,U1,V6,PA7*%
%TO.N,unconnected-(U1-PA7-PadV6)*%
X79750000Y-191000000D03*
%TO.P,U1,V8,VREF-*%
%TO.N,unconnected-(U1-VREF--PadV8)*%
X79750000Y-190000000D03*
%TO.P,U1,V11,NJTRST*%
%TO.N,unconnected-(U1-NJTRST-PadV11)*%
X79750000Y-188500000D03*
%TO.P,U1,V14,VDDA1V1_REG*%
%TO.N,unconnected-(U1-VDDA1V1_REG-PadV14)*%
X79750000Y-187000000D03*
%TO.P,U1,V16,VSS*%
%TO.N,Net-(U1-VSS-PadA1)*%
X79750000Y-186000000D03*
%TO.P,U1,V19,PWR_LP*%
%TO.N,unconnected-(U1-PWR_LP-PadV19)*%
X79750000Y-184500000D03*
%TO.P,U1,V20,DDR_DQS1P*%
%TO.N,unconnected-(U1-DDR_DQS1P-PadV20)*%
X79750000Y-184000000D03*
%TO.P,U1,V21,DDR_DQS1N*%
%TO.N,unconnected-(U1-DDR_DQS1N-PadV21)*%
X79750000Y-183500000D03*
%TO.P,U1,W1,PG3*%
%TO.N,unconnected-(U1-PG3-PadW1)*%
X80250000Y-193500000D03*
%TO.P,U1,W2,PG12*%
%TO.N,unconnected-(U1-PG12-PadW2)*%
X80250000Y-193000000D03*
%TO.P,U1,W3,PWR_CPU_ON*%
%TO.N,unconnected-(U1-PWR_CPU_ON-PadW3)*%
X80250000Y-192500000D03*
%TO.P,U1,W4,PF13*%
%TO.N,unconnected-(U1-PF13-PadW4)*%
X80250000Y-192000000D03*
%TO.P,U1,W5,PC0*%
%TO.N,unconnected-(U1-PC0-PadW5)*%
X80250000Y-191500000D03*
%TO.P,U1,W6,PC3*%
%TO.N,unconnected-(U1-PC3-PadW6)*%
X80250000Y-191000000D03*
%TO.P,U1,W7,VREF+*%
%TO.N,unconnected-(U1-VREF+-PadW7)*%
X80250000Y-190500000D03*
%TO.P,U1,W8,PB0*%
%TO.N,unconnected-(U1-PB0-PadW8)*%
X80250000Y-190000000D03*
%TO.P,U1,W9,PA3*%
%TO.N,unconnected-(U1-PA3-PadW9)*%
X80250000Y-189500000D03*
%TO.P,U1,W10,PE5*%
%TO.N,unconnected-(U1-PE5-PadW10)*%
X80250000Y-189000000D03*
%TO.P,U1,W11,VDD*%
%TO.N,unconnected-(U1-VDD-PadW11)*%
X80250000Y-188500000D03*
%TO.P,U1,W12,USB_RREF*%
%TO.N,unconnected-(U1-USB_RREF-PadW12)*%
X80250000Y-188000000D03*
%TO.P,U1,W13,PA14*%
%TO.N,unconnected-(U1-PA14-PadW13)*%
X80250000Y-187500000D03*
%TO.P,U1,W14,VDD3V3_USBHS*%
%TO.N,unconnected-(U1-VDD3V3_USBHS-PadW14)*%
X80250000Y-187000000D03*
%TO.P,U1,W15,VDDA1V8_REG*%
%TO.N,unconnected-(U1-VDDA1V8_REG-PadW15)*%
X80250000Y-186500000D03*
%TO.P,U1,W16,VSS*%
%TO.N,Net-(U1-VSS-PadA1)*%
X80250000Y-186000000D03*
%TO.P,U1,W17,BYPASS_REG1V8*%
%TO.N,unconnected-(U1-BYPASS_REG1V8-PadW17)*%
X80250000Y-185500000D03*
%TO.P,U1,W18,PH5*%
%TO.N,unconnected-(U1-PH5-PadW18)*%
X80250000Y-185000000D03*
%TO.P,U1,W19,DDR_DQ12*%
%TO.N,unconnected-(U1-DDR_DQ12-PadW19)*%
X80250000Y-184500000D03*
%TO.P,U1,W20,DDR_DQ11*%
%TO.N,unconnected-(U1-DDR_DQ11-PadW20)*%
X80250000Y-184000000D03*
%TO.P,U1,W21,DDR_DQM1*%
%TO.N,unconnected-(U1-DDR_DQM1-PadW21)*%
X80250000Y-183500000D03*
%TO.P,U1,Y1,PA11*%
%TO.N,unconnected-(U1-PA11-PadY1)*%
X80750000Y-193500000D03*
%TO.P,U1,Y2,PF14*%
%TO.N,unconnected-(U1-PF14-PadY2)*%
X80750000Y-193000000D03*
%TO.P,U1,Y3,PA0*%
%TO.N,unconnected-(U1-PA0-PadY3)*%
X80750000Y-192500000D03*
%TO.P,U1,Y4,PA2*%
%TO.N,unconnected-(U1-PA2-PadY4)*%
X80750000Y-192000000D03*
%TO.P,U1,Y5,PA5*%
%TO.N,unconnected-(U1-PA5-PadY5)*%
X80750000Y-191500000D03*
%TO.P,U1,Y6,PF11*%
%TO.N,unconnected-(U1-PF11-PadY6)*%
X80750000Y-191000000D03*
%TO.P,U1,Y7,PC4*%
%TO.N,unconnected-(U1-PC4-PadY7)*%
X80750000Y-190500000D03*
%TO.P,U1,Y8,PB1*%
%TO.N,unconnected-(U1-PB1-PadY8)*%
X80750000Y-190000000D03*
%TO.P,U1,Y9,PC1*%
%TO.N,unconnected-(U1-PC1-PadY9)*%
X80750000Y-189500000D03*
%TO.P,U1,Y10,PG14*%
%TO.N,unconnected-(U1-PG14-PadY10)*%
X80750000Y-189000000D03*
%TO.P,U1,Y11,NRST*%
%TO.N,unconnected-(U1-NRST-PadY11)*%
X80750000Y-188500000D03*
%TO.P,U1,Y12,PF15*%
%TO.N,unconnected-(U1-PF15-PadY12)*%
X80750000Y-188000000D03*
%TO.P,U1,Y13,USB_DM2*%
%TO.N,unconnected-(U1-USB_DM2-PadY13)*%
X80750000Y-187500000D03*
%TO.P,U1,Y14,VSS_USBHS*%
%TO.N,unconnected-(U1-VSS_USBHS-PadY14)*%
X80750000Y-187000000D03*
%TO.P,U1,Y15,PI6*%
%TO.N,unconnected-(U1-PI6-PadY15)*%
X80750000Y-186500000D03*
%TO.P,U1,Y16,USB_DP1*%
%TO.N,unconnected-(U1-USB_DP1-PadY16)*%
X80750000Y-186000000D03*
%TO.P,U1,Y17,PI4*%
%TO.N,unconnected-(U1-PI4-PadY17)*%
X80750000Y-185500000D03*
%TO.P,U1,Y18,VDD_PLL2*%
%TO.N,unconnected-(U1-VDD_PLL2-PadY18)*%
X80750000Y-185000000D03*
%TO.P,U1,Y19,PH4*%
%TO.N,unconnected-(U1-PH4-PadY19)*%
X80750000Y-184500000D03*
%TO.P,U1,Y20,DDR_DQ15*%
%TO.N,unconnected-(U1-DDR_DQ15-PadY20)*%
X80750000Y-184000000D03*
%TO.P,U1,Y21,DDR_DQ14*%
%TO.N,unconnected-(U1-DDR_DQ14-PadY21)*%
X80750000Y-183500000D03*
%TD*%
D14*
%TO.P,R4,1*%
%TO.N,Net-(U9-VSENSE)*%
X154098000Y-132836200D03*
%TO.P,R4,2*%
%TO.N,GND*%
X153078000Y-132836200D03*
%TD*%
D10*
%TO.P,H3,1,1*%
%TO.N,GND*%
X114350800Y-73888600D03*
%TD*%
%TO.P,H2,1,1*%
%TO.N,GND*%
X114300000Y-140100000D03*
%TD*%
D25*
%TO.P,U2,A1,VSS*%
%TO.N,Net-(U2-VSS-PadA1)*%
X54300000Y-193400000D03*
%TO.P,U2,A2,PA9*%
%TO.N,unconnected-(U2-PA9-PadA2)*%
X54300000Y-192600000D03*
%TO.P,U2,A3,PD10*%
%TO.N,unconnected-(U2-PD10-PadA3)*%
X54300000Y-191800000D03*
%TO.P,U2,A4,PB7*%
%TO.N,unconnected-(U2-PB7-PadA4)*%
X54300000Y-191000000D03*
%TO.P,U2,A5,PE7*%
%TO.N,unconnected-(U2-PE7-PadA5)*%
X54300000Y-190200000D03*
%TO.P,U2,A6,PD5*%
%TO.N,unconnected-(U2-PD5-PadA6)*%
X54300000Y-189400000D03*
%TO.P,U2,A7,PE8*%
%TO.N,unconnected-(U2-PE8-PadA7)*%
X54300000Y-188600000D03*
%TO.P,U2,A8,PG4*%
%TO.N,unconnected-(U2-PG4-PadA8)*%
X54300000Y-187800000D03*
%TO.P,U2,A9,PH9*%
%TO.N,unconnected-(U2-PH9-PadA9)*%
X54300000Y-187000000D03*
%TO.P,U2,A10,PH13*%
%TO.N,unconnected-(U2-PH13-PadA10)*%
X54300000Y-186200000D03*
%TO.P,U2,A11,PC7*%
%TO.N,unconnected-(U2-PC7-PadA11)*%
X54300000Y-185400000D03*
%TO.P,U2,A12,PB9*%
%TO.N,unconnected-(U2-PB9-PadA12)*%
X54300000Y-184600000D03*
%TO.P,U2,A13,PB14*%
%TO.N,unconnected-(U2-PB14-PadA13)*%
X54300000Y-183800000D03*
%TO.P,U2,A14,PG6*%
%TO.N,unconnected-(U2-PG6-PadA14)*%
X54300000Y-183000000D03*
%TO.P,U2,A15,PD2*%
%TO.N,unconnected-(U2-PD2-PadA15)*%
X54300000Y-182200000D03*
%TO.P,U2,A16,PC9*%
%TO.N,unconnected-(U2-PC9-PadA16)*%
X54300000Y-181400000D03*
%TO.P,U2,A17,VSS*%
%TO.N,Net-(U2-VSS-PadA1)*%
X54300000Y-180600000D03*
%TO.P,U2,B1,PD3*%
%TO.N,unconnected-(U2-PD3-PadB1)*%
X55100000Y-193400000D03*
%TO.P,U2,B2,PF5*%
%TO.N,unconnected-(U2-PF5-PadB2)*%
X55100000Y-192600000D03*
%TO.P,U2,B3,PD14*%
%TO.N,unconnected-(U2-PD14-PadB3)*%
X55100000Y-191800000D03*
%TO.P,U2,B4,PE12*%
%TO.N,unconnected-(U2-PE12-PadB4)*%
X55100000Y-191000000D03*
%TO.P,U2,B5,PE1*%
%TO.N,unconnected-(U2-PE1-PadB5)*%
X55100000Y-190200000D03*
%TO.P,U2,B6,PE9*%
%TO.N,unconnected-(U2-PE9-PadB6)*%
X55100000Y-189400000D03*
%TO.P,U2,B7,PH14*%
%TO.N,unconnected-(U2-PH14-PadB7)*%
X55100000Y-188600000D03*
%TO.P,U2,B8,PE10*%
%TO.N,unconnected-(U2-PE10-PadB8)*%
X55100000Y-187800000D03*
%TO.P,U2,B9,PF1*%
%TO.N,unconnected-(U2-PF1-PadB9)*%
X55100000Y-187000000D03*
%TO.P,U2,B10,PF3*%
%TO.N,unconnected-(U2-PF3-PadB10)*%
X55100000Y-186200000D03*
%TO.P,U2,B11,PC6*%
%TO.N,unconnected-(U2-PC6-PadB11)*%
X55100000Y-185400000D03*
%TO.P,U2,B12,PB15*%
%TO.N,unconnected-(U2-PB15-PadB12)*%
X55100000Y-184600000D03*
%TO.P,U2,B13,PB4*%
%TO.N,unconnected-(U2-PB4-PadB13)*%
X55100000Y-183800000D03*
%TO.P,U2,B14,PC10*%
%TO.N,unconnected-(U2-PC10-PadB14)*%
X55100000Y-183000000D03*
%TO.P,U2,B15,PC12*%
%TO.N,unconnected-(U2-PC12-PadB15)*%
X55100000Y-182200000D03*
%TO.P,U2,B16,DDR_DQ4*%
%TO.N,unconnected-(U2-DDR_DQ4-PadB16)*%
X55100000Y-181400000D03*
%TO.P,U2,B17,DDR_DQ0*%
%TO.N,unconnected-(U2-DDR_DQ0-PadB17)*%
X55100000Y-180600000D03*
%TO.P,U2,C1,PB6*%
%TO.N,unconnected-(U2-PB6-PadC1)*%
X55900000Y-193400000D03*
%TO.P,U2,C2,PH12*%
%TO.N,unconnected-(U2-PH12-PadC2)*%
X55900000Y-192600000D03*
%TO.P,U2,C3,PE14*%
%TO.N,unconnected-(U2-PE14-PadC3)*%
X55900000Y-191800000D03*
%TO.P,U2,C4,PE13*%
%TO.N,unconnected-(U2-PE13-PadC4)*%
X55900000Y-191000000D03*
%TO.P,U2,C5,PD8*%
%TO.N,unconnected-(U2-PD8-PadC5)*%
X55900000Y-190200000D03*
%TO.P,U2,C6,PD12*%
%TO.N,unconnected-(U2-PD12-PadC6)*%
X55900000Y-189400000D03*
%TO.P,U2,C7,PD15*%
%TO.N,unconnected-(U2-PD15-PadC7)*%
X55900000Y-188600000D03*
%TO.P,U2,C8,VSS*%
%TO.N,Net-(U2-VSS-PadA1)*%
X55900000Y-187800000D03*
%TO.P,U2,C9,PG7*%
%TO.N,unconnected-(U2-PG7-PadC9)*%
X55900000Y-187000000D03*
%TO.P,U2,C10,PB5*%
%TO.N,unconnected-(U2-PB5-PadC10)*%
X55900000Y-186200000D03*
%TO.P,U2,C11,PB3*%
%TO.N,unconnected-(U2-PB3-PadC11)*%
X55900000Y-185400000D03*
%TO.P,U2,C12,VDDSD1*%
%TO.N,unconnected-(U2-VDDSD1-PadC12)*%
X55900000Y-184600000D03*
%TO.P,U2,C13,PF0*%
%TO.N,unconnected-(U2-PF0-PadC13)*%
X55900000Y-183800000D03*
%TO.P,U2,C14,PC11*%
%TO.N,unconnected-(U2-PC11-PadC14)*%
X55900000Y-183000000D03*
%TO.P,U2,C15,DDR_DQ1*%
%TO.N,unconnected-(U2-DDR_DQ1-PadC15)*%
X55900000Y-182200000D03*
%TO.P,U2,C16,DDR_DQS0N*%
%TO.N,unconnected-(U2-DDR_DQS0N-PadC16)*%
X55900000Y-181400000D03*
%TO.P,U2,C17,DDR_DQS0P*%
%TO.N,unconnected-(U2-DDR_DQS0P-PadC17)*%
X55900000Y-180600000D03*
%TO.P,U2,D1,PB8*%
%TO.N,unconnected-(U2-PB8-PadD1)*%
X56700000Y-193400000D03*
%TO.P,U2,D2,PD6*%
%TO.N,unconnected-(U2-PD6-PadD2)*%
X56700000Y-192600000D03*
%TO.P,U2,D3,VSS*%
%TO.N,Net-(U2-VSS-PadA1)*%
X56700000Y-191800000D03*
%TO.P,U2,D4,PE11*%
%TO.N,unconnected-(U2-PE11-PadD4)*%
X56700000Y-191000000D03*
%TO.P,U2,D5,PD1*%
%TO.N,unconnected-(U2-PD1-PadD5)*%
X56700000Y-190200000D03*
%TO.P,U2,D6,PE0*%
%TO.N,unconnected-(U2-PE0-PadD6)*%
X56700000Y-189400000D03*
%TO.P,U2,D7,PG0*%
%TO.N,unconnected-(U2-PG0-PadD7)*%
X56700000Y-188600000D03*
%TO.P,U2,D8,PE15*%
%TO.N,unconnected-(U2-PE15-PadD8)*%
X56700000Y-187800000D03*
%TO.P,U2,D9,PB12*%
%TO.N,unconnected-(U2-PB12-PadD9)*%
X56700000Y-187000000D03*
%TO.P,U2,D10,PB10*%
%TO.N,unconnected-(U2-PB10-PadD10)*%
X56700000Y-186200000D03*
%TO.P,U2,D11,VDDSD2*%
%TO.N,unconnected-(U2-VDDSD2-PadD11)*%
X56700000Y-185400000D03*
%TO.P,U2,D12,VSS*%
%TO.N,Net-(U2-VSS-PadA1)*%
X56700000Y-184600000D03*
%TO.P,U2,D13,PE3*%
%TO.N,unconnected-(U2-PE3-PadD13)*%
X56700000Y-183800000D03*
%TO.P,U2,D14,PC8*%
%TO.N,unconnected-(U2-PC8-PadD14)*%
X56700000Y-183000000D03*
%TO.P,U2,D15,DDR_DQM0*%
%TO.N,unconnected-(U2-DDR_DQM0-PadD15)*%
X56700000Y-182200000D03*
%TO.P,U2,D16,DDR_DQ5*%
%TO.N,unconnected-(U2-DDR_DQ5-PadD16)*%
X56700000Y-181400000D03*
%TO.P,U2,D17,DDR_DQ3*%
%TO.N,unconnected-(U2-DDR_DQ3-PadD17)*%
X56700000Y-180600000D03*
%TO.P,U2,E1,PG9*%
%TO.N,unconnected-(U2-PG9-PadE1)*%
X57500000Y-193400000D03*
%TO.P,U2,E2,PD11*%
%TO.N,unconnected-(U2-PD11-PadE2)*%
X57500000Y-192600000D03*
%TO.P,U2,E3,PA12*%
%TO.N,unconnected-(U2-PA12-PadE3)*%
X57500000Y-191800000D03*
%TO.P,U2,E4,PD0*%
%TO.N,unconnected-(U2-PD0-PadE4)*%
X57500000Y-191000000D03*
%TO.P,U2,E5,VSS*%
%TO.N,Net-(U2-VSS-PadA1)*%
X57500000Y-190200000D03*
%TO.P,U2,E6,PA15*%
%TO.N,unconnected-(U2-PA15-PadE6)*%
X57500000Y-189400000D03*
%TO.P,U2,E7,PD4*%
%TO.N,unconnected-(U2-PD4-PadE7)*%
X57500000Y-188600000D03*
%TO.P,U2,E8,PD9*%
%TO.N,unconnected-(U2-PD9-PadE8)*%
X57500000Y-187800000D03*
%TO.P,U2,E9,PF2*%
%TO.N,unconnected-(U2-PF2-PadE9)*%
X57500000Y-187000000D03*
%TO.P,U2,E10,PB13*%
%TO.N,unconnected-(U2-PB13-PadE10)*%
X57500000Y-186200000D03*
%TO.P,U2,E11,PH10*%
%TO.N,unconnected-(U2-PH10-PadE11)*%
X57500000Y-185400000D03*
%TO.P,U2,E12,VDDQ_DDR*%
%TO.N,Net-(U2-VDDQ_DDR-PadE12)*%
X57500000Y-184600000D03*
%TO.P,U2,E13,DDR_DQ2*%
%TO.N,unconnected-(U2-DDR_DQ2-PadE13)*%
X57500000Y-183800000D03*
%TO.P,U2,E14,DDR_DQ6*%
%TO.N,unconnected-(U2-DDR_DQ6-PadE14)*%
X57500000Y-183000000D03*
%TO.P,U2,E15,DDR_DQ7*%
%TO.N,unconnected-(U2-DDR_DQ7-PadE15)*%
X57500000Y-182200000D03*
%TO.P,U2,E16,DDR_A5*%
%TO.N,unconnected-(U2-DDR_A5-PadE16)*%
X57500000Y-181400000D03*
%TO.P,U2,E17,DDR_RESETN*%
%TO.N,unconnected-(U2-DDR_RESETN-PadE17)*%
X57500000Y-180600000D03*
%TO.P,U2,F1,PG10*%
%TO.N,unconnected-(U2-PG10-PadF1)*%
X58300000Y-193400000D03*
%TO.P,U2,F2,PG5*%
%TO.N,unconnected-(U2-PG5-PadF2)*%
X58300000Y-192600000D03*
%TO.P,U2,F3,PG8*%
%TO.N,unconnected-(U2-PG8-PadF3)*%
X58300000Y-191800000D03*
%TO.P,U2,F4,PH2*%
%TO.N,unconnected-(U2-PH2-PadF4)*%
X58300000Y-191000000D03*
%TO.P,U2,F5,PH8*%
%TO.N,unconnected-(U2-PH8-PadF5)*%
X58300000Y-190200000D03*
%TO.P,U2,F6,VDDCPU*%
%TO.N,Net-(U2-VDDCPU-PadF6)*%
X58300000Y-189400000D03*
%TO.P,U2,F7,VDD*%
%TO.N,Net-(U2-VDD-PadF10)*%
X58300000Y-188600000D03*
%TO.P,U2,F8,VDDCPU*%
%TO.N,Net-(U2-VDDCPU-PadF6)*%
X58300000Y-187800000D03*
%TO.P,U2,F9,VDDCPU*%
X58300000Y-187000000D03*
%TO.P,U2,F10,VDD*%
%TO.N,Net-(U2-VDD-PadF10)*%
X58300000Y-186200000D03*
%TO.P,U2,F11,VDD*%
X58300000Y-185400000D03*
%TO.P,U2,F12,VDDQ_DDR*%
%TO.N,Net-(U2-VDDQ_DDR-PadE12)*%
X58300000Y-184600000D03*
%TO.P,U2,F13,VSS*%
%TO.N,Net-(U2-VSS-PadA1)*%
X58300000Y-183800000D03*
%TO.P,U2,F14,DDR_A13*%
%TO.N,unconnected-(U2-DDR_A13-PadF14)*%
X58300000Y-183000000D03*
%TO.P,U2,F15,VSS*%
%TO.N,Net-(U2-VSS-PadA1)*%
X58300000Y-182200000D03*
%TO.P,U2,F16,DDR_A9*%
%TO.N,unconnected-(U2-DDR_A9-PadF16)*%
X58300000Y-181400000D03*
%TO.P,U2,F17,DDR_A2*%
%TO.N,unconnected-(U2-DDR_A2-PadF17)*%
X58300000Y-180600000D03*
%TO.P,U2,G1,PF9*%
%TO.N,unconnected-(U2-PF9-PadG1)*%
X59100000Y-193400000D03*
%TO.P,U2,G2,PF6*%
%TO.N,unconnected-(U2-PF6-PadG2)*%
X59100000Y-192600000D03*
%TO.P,U2,G3,PF10*%
%TO.N,unconnected-(U2-PF10-PadG3)*%
X59100000Y-191800000D03*
%TO.P,U2,G4,PG15*%
%TO.N,unconnected-(U2-PG15-PadG4)*%
X59100000Y-191000000D03*
%TO.P,U2,G5,PF8*%
%TO.N,unconnected-(U2-PF8-PadG5)*%
X59100000Y-190200000D03*
%TO.P,U2,G6,VDD*%
%TO.N,Net-(U2-VDD-PadF10)*%
X59100000Y-189400000D03*
%TO.P,U2,G7,VSS*%
%TO.N,Net-(U2-VSS-PadA1)*%
X59100000Y-188600000D03*
%TO.P,U2,G8,VSS*%
X59100000Y-187800000D03*
%TO.P,U2,G9,VSS*%
X59100000Y-187000000D03*
%TO.P,U2,G10,VSS*%
X59100000Y-186200000D03*
%TO.P,U2,G11,VSS*%
X59100000Y-185400000D03*
%TO.P,U2,G12,VDDQ_DDR*%
%TO.N,Net-(U2-VDDQ_DDR-PadE12)*%
X59100000Y-184600000D03*
%TO.P,U2,G13,DDR_BA2*%
%TO.N,unconnected-(U2-DDR_BA2-PadG13)*%
X59100000Y-183800000D03*
%TO.P,U2,G14,DDR_A7*%
%TO.N,unconnected-(U2-DDR_A7-PadG14)*%
X59100000Y-183000000D03*
%TO.P,U2,G15,DDR_A3*%
%TO.N,unconnected-(U2-DDR_A3-PadG15)*%
X59100000Y-182200000D03*
%TO.P,U2,G16,DDR_A0*%
%TO.N,unconnected-(U2-DDR_A0-PadG16)*%
X59100000Y-181400000D03*
%TO.P,U2,G17,DDR_BA0*%
%TO.N,unconnected-(U2-DDR_BA0-PadG17)*%
X59100000Y-180600000D03*
%TO.P,U2,H1,PH11*%
%TO.N,unconnected-(U2-PH11-PadH1)*%
X59900000Y-193400000D03*
%TO.P,U2,H2,PI3*%
%TO.N,unconnected-(U2-PI3-PadH2)*%
X59900000Y-192600000D03*
%TO.P,U2,H3,PH7*%
%TO.N,unconnected-(U2-PH7-PadH3)*%
X59900000Y-191800000D03*
%TO.P,U2,H4,PB2*%
%TO.N,unconnected-(U2-PB2-PadH4)*%
X59900000Y-191000000D03*
%TO.P,U2,H5,PE4*%
%TO.N,unconnected-(U2-PE4-PadH5)*%
X59900000Y-190200000D03*
%TO.P,U2,H6,VDDCPU*%
%TO.N,Net-(U2-VDDCPU-PadF6)*%
X59900000Y-189400000D03*
%TO.P,U2,H7,VSS*%
%TO.N,Net-(U2-VSS-PadA1)*%
X59900000Y-188600000D03*
%TO.P,U2,H8,VDDCORE*%
%TO.N,Net-(U2-VDDCORE-PadH10)*%
X59900000Y-187800000D03*
%TO.P,U2,H9,VDDCORE*%
X59900000Y-187000000D03*
%TO.P,U2,H10,VDDCORE*%
X59900000Y-186200000D03*
%TO.P,U2,H11,VSS*%
%TO.N,Net-(U2-VSS-PadA1)*%
X59900000Y-185400000D03*
%TO.P,U2,H12,VDDQ_DDR*%
%TO.N,Net-(U2-VDDQ_DDR-PadE12)*%
X59900000Y-184600000D03*
%TO.P,U2,H13,DDR_WEN*%
%TO.N,unconnected-(U2-DDR_WEN-PadH13)*%
X59900000Y-183800000D03*
%TO.P,U2,H14,VSS*%
%TO.N,Net-(U2-VSS-PadA1)*%
X59900000Y-183000000D03*
%TO.P,U2,H15,DDR_ODT*%
%TO.N,unconnected-(U2-DDR_ODT-PadH15)*%
X59900000Y-182200000D03*
%TO.P,U2,H16,DDR_CSN*%
%TO.N,unconnected-(U2-DDR_CSN-PadH16)*%
X59900000Y-181400000D03*
%TO.P,U2,H17,DDR_RASN*%
%TO.N,unconnected-(U2-DDR_RASN-PadH17)*%
X59900000Y-180600000D03*
%TO.P,U2,J1,PD13*%
%TO.N,unconnected-(U2-PD13-PadJ1)*%
X60700000Y-193400000D03*
%TO.P,U2,J2,VBAT*%
%TO.N,unconnected-(U2-VBAT-PadJ2)*%
X60700000Y-192600000D03*
%TO.P,U2,J3,PI2*%
%TO.N,unconnected-(U2-PI2-PadJ3)*%
X60700000Y-191800000D03*
%TO.P,U2,J4,VSS_PLL*%
%TO.N,unconnected-(U2-VSS_PLL-PadJ4)*%
X60700000Y-191000000D03*
%TO.P,U2,J5,VDD_PLL*%
%TO.N,unconnected-(U2-VDD_PLL-PadJ5)*%
X60700000Y-190200000D03*
%TO.P,U2,J6,VDDCPU*%
%TO.N,Net-(U2-VDDCPU-PadF6)*%
X60700000Y-189400000D03*
%TO.P,U2,J7,VSS*%
%TO.N,Net-(U2-VSS-PadA1)*%
X60700000Y-188600000D03*
%TO.P,U2,J8,VDDCORE*%
%TO.N,Net-(U2-VDDCORE-PadH10)*%
X60700000Y-187800000D03*
%TO.P,U2,J9,VSS*%
%TO.N,Net-(U2-VSS-PadA1)*%
X60700000Y-187000000D03*
%TO.P,U2,J10,VDDCORE*%
%TO.N,Net-(U2-VDDCORE-PadH10)*%
X60700000Y-186200000D03*
%TO.P,U2,J11,VSS*%
%TO.N,Net-(U2-VSS-PadA1)*%
X60700000Y-185400000D03*
%TO.P,U2,J12,VDDQ_DDR*%
%TO.N,Net-(U2-VDDQ_DDR-PadE12)*%
X60700000Y-184600000D03*
%TO.P,U2,J13,VDDCORE*%
%TO.N,Net-(U2-VDDCORE-PadH10)*%
X60700000Y-183800000D03*
%TO.P,U2,J14,DDR_A10*%
%TO.N,unconnected-(U2-DDR_A10-PadJ14)*%
X60700000Y-183000000D03*
%TO.P,U2,J15,DDR_CASN*%
%TO.N,unconnected-(U2-DDR_CASN-PadJ15)*%
X60700000Y-182200000D03*
%TO.P,U2,J16,DDR_CLKP*%
%TO.N,unconnected-(U2-DDR_CLKP-PadJ16)*%
X60700000Y-181400000D03*
%TO.P,U2,J17,DDR_CLKN*%
%TO.N,unconnected-(U2-DDR_CLKN-PadJ17)*%
X60700000Y-180600000D03*
%TO.P,U2,K1,PC14*%
%TO.N,unconnected-(U2-PC14-PadK1)*%
X61500000Y-193400000D03*
%TO.P,U2,K2,PC15*%
%TO.N,unconnected-(U2-PC15-PadK2)*%
X61500000Y-192600000D03*
%TO.P,U2,K3,VSS*%
%TO.N,Net-(U2-VSS-PadA1)*%
X61500000Y-191800000D03*
%TO.P,U2,K4,PC13*%
%TO.N,unconnected-(U2-PC13-PadK4)*%
X61500000Y-191000000D03*
%TO.P,U2,K5,PI1*%
%TO.N,unconnected-(U2-PI1-PadK5)*%
X61500000Y-190200000D03*
%TO.P,U2,K6,VDD*%
%TO.N,Net-(U2-VDD-PadF10)*%
X61500000Y-189400000D03*
%TO.P,U2,K7,VSS*%
%TO.N,Net-(U2-VSS-PadA1)*%
X61500000Y-188600000D03*
%TO.P,U2,K8,VDDCORE*%
%TO.N,Net-(U2-VDDCORE-PadH10)*%
X61500000Y-187800000D03*
%TO.P,U2,K9,VDDCORE*%
X61500000Y-187000000D03*
%TO.P,U2,K10,VDDCORE*%
X61500000Y-186200000D03*
%TO.P,U2,K11,VSS*%
%TO.N,Net-(U2-VSS-PadA1)*%
X61500000Y-185400000D03*
%TO.P,U2,K12,VDDQ_DDR*%
%TO.N,Net-(U2-VDDQ_DDR-PadE12)*%
X61500000Y-184600000D03*
%TO.P,U2,K13,DDR_A11*%
%TO.N,unconnected-(U2-DDR_A11-PadK13)*%
X61500000Y-183800000D03*
%TO.P,U2,K14,DDR_CKE*%
%TO.N,unconnected-(U2-DDR_CKE-PadK14)*%
X61500000Y-183000000D03*
%TO.P,U2,K15,DDR_A1*%
%TO.N,unconnected-(U2-DDR_A1-PadK15)*%
X61500000Y-182200000D03*
%TO.P,U2,K16,DDR_A15*%
%TO.N,unconnected-(U2-DDR_A15-PadK16)*%
X61500000Y-181400000D03*
%TO.P,U2,K17,DDR_A12*%
%TO.N,unconnected-(U2-DDR_A12-PadK17)*%
X61500000Y-180600000D03*
%TO.P,U2,L1,PE2*%
%TO.N,unconnected-(U2-PE2-PadL1)*%
X62300000Y-193400000D03*
%TO.P,U2,L2,PF4*%
%TO.N,unconnected-(U2-PF4-PadL2)*%
X62300000Y-192600000D03*
%TO.P,U2,L3,PH6*%
%TO.N,unconnected-(U2-PH6-PadL3)*%
X62300000Y-191800000D03*
%TO.P,U2,L4,PI0*%
%TO.N,unconnected-(U2-PI0-PadL4)*%
X62300000Y-191000000D03*
%TO.P,U2,L5,PG3*%
%TO.N,unconnected-(U2-PG3-PadL5)*%
X62300000Y-190200000D03*
%TO.P,U2,L6,VDD*%
%TO.N,Net-(U2-VDD-PadF10)*%
X62300000Y-189400000D03*
%TO.P,U2,L7,VSS*%
%TO.N,Net-(U2-VSS-PadA1)*%
X62300000Y-188600000D03*
%TO.P,U2,L8,VSS*%
X62300000Y-187800000D03*
%TO.P,U2,L9,VSS*%
X62300000Y-187000000D03*
%TO.P,U2,L10,VSS*%
X62300000Y-186200000D03*
%TO.P,U2,L11,VSS*%
X62300000Y-185400000D03*
%TO.P,U2,L12,VDDQ_DDR*%
%TO.N,Net-(U2-VDDQ_DDR-PadE12)*%
X62300000Y-184600000D03*
%TO.P,U2,L13,DDR_ATO*%
%TO.N,unconnected-(U2-DDR_ATO-PadL13)*%
X62300000Y-183800000D03*
%TO.P,U2,L14,DDR_DTO0*%
%TO.N,unconnected-(U2-DDR_DTO0-PadL14)*%
X62300000Y-183000000D03*
%TO.P,U2,L15,DDR_A8*%
%TO.N,unconnected-(U2-DDR_A8-PadL15)*%
X62300000Y-182200000D03*
%TO.P,U2,L16,DDR_BA1*%
%TO.N,unconnected-(U2-DDR_BA1-PadL16)*%
X62300000Y-181400000D03*
%TO.P,U2,L17,DDR_A14*%
%TO.N,unconnected-(U2-DDR_A14-PadL17)*%
X62300000Y-180600000D03*
%TO.P,U2,M1,PF7*%
%TO.N,unconnected-(U2-PF7-PadM1)*%
X63100000Y-193400000D03*
%TO.P,U2,M2,PA8*%
%TO.N,unconnected-(U2-PA8-PadM2)*%
X63100000Y-192600000D03*
%TO.P,U2,M3,PG11*%
%TO.N,unconnected-(U2-PG11-PadM3)*%
X63100000Y-191800000D03*
%TO.P,U2,M4,VDD_ANA*%
%TO.N,unconnected-(U2-VDD_ANA-PadM4)*%
X63100000Y-191000000D03*
%TO.P,U2,M5,VSS_ANA*%
%TO.N,unconnected-(U2-VSS_ANA-PadM5)*%
X63100000Y-190200000D03*
%TO.P,U2,M6,VDD*%
%TO.N,Net-(U2-VDD-PadF10)*%
X63100000Y-189400000D03*
%TO.P,U2,M7,VDD*%
X63100000Y-188600000D03*
%TO.P,U2,M8,VDD*%
X63100000Y-187800000D03*
%TO.P,U2,M9,VDD*%
X63100000Y-187000000D03*
%TO.P,U2,M10,VDD*%
X63100000Y-186200000D03*
%TO.P,U2,M11,VDD*%
X63100000Y-185400000D03*
%TO.P,U2,M12,VDDQ_DDR*%
%TO.N,Net-(U2-VDDQ_DDR-PadE12)*%
X63100000Y-184600000D03*
%TO.P,U2,M13,DDR_VREF*%
%TO.N,unconnected-(U2-DDR_VREF-PadM13)*%
X63100000Y-183800000D03*
%TO.P,U2,M14,DDR_A4*%
%TO.N,unconnected-(U2-DDR_A4-PadM14)*%
X63100000Y-183000000D03*
%TO.P,U2,M15,VSS*%
%TO.N,Net-(U2-VSS-PadA1)*%
X63100000Y-182200000D03*
%TO.P,U2,M16,DDR_DTO1*%
%TO.N,unconnected-(U2-DDR_DTO1-PadM16)*%
X63100000Y-181400000D03*
%TO.P,U2,M17,DDR_A6*%
%TO.N,unconnected-(U2-DDR_A6-PadM17)*%
X63100000Y-180600000D03*
%TO.P,U2,N1,PE6*%
%TO.N,unconnected-(U2-PE6-PadN1)*%
X63900000Y-193400000D03*
%TO.P,U2,N2,PG1*%
%TO.N,unconnected-(U2-PG1-PadN2)*%
X63900000Y-192600000D03*
%TO.P,U2,N3,PD7*%
%TO.N,unconnected-(U2-PD7-PadN3)*%
X63900000Y-191800000D03*
%TO.P,U2,N4,VSS*%
%TO.N,Net-(U2-VSS-PadA1)*%
X63900000Y-191000000D03*
%TO.P,U2,N5,PB11*%
%TO.N,unconnected-(U2-PB11-PadN5)*%
X63900000Y-190200000D03*
%TO.P,U2,N6,PF13*%
%TO.N,unconnected-(U2-PF13-PadN6)*%
X63900000Y-189400000D03*
%TO.P,U2,N7,VSSA*%
%TO.N,unconnected-(U2-VSSA-PadN7)*%
X63900000Y-188600000D03*
%TO.P,U2,N8,PA3*%
%TO.N,unconnected-(U2-PA3-PadN8)*%
X63900000Y-187800000D03*
%TO.P,U2,N9,NJTRST*%
%TO.N,unconnected-(U2-NJTRST-PadN9)*%
X63900000Y-187000000D03*
%TO.P,U2,N10,VSS_USBHS*%
%TO.N,unconnected-(U2-VSS_USBHS-PadN10)*%
X63900000Y-186200000D03*
%TO.P,U2,N11,VDDA1V1_REG*%
%TO.N,unconnected-(U2-VDDA1V1_REG-PadN11)*%
X63900000Y-185400000D03*
%TO.P,U2,N12,VDDQ_DDR*%
%TO.N,Net-(U2-VDDQ_DDR-PadE12)*%
X63900000Y-184600000D03*
%TO.P,U2,N13,PWR_LP*%
%TO.N,unconnected-(U2-PWR_LP-PadN13)*%
X63900000Y-183800000D03*
%TO.P,U2,N14,DDR_DQM1*%
%TO.N,unconnected-(U2-DDR_DQM1-PadN14)*%
X63900000Y-183000000D03*
%TO.P,U2,N15,DDR_DQ10*%
%TO.N,unconnected-(U2-DDR_DQ10-PadN15)*%
X63900000Y-182200000D03*
%TO.P,U2,N16,DDR_DQ8*%
%TO.N,unconnected-(U2-DDR_DQ8-PadN16)*%
X63900000Y-181400000D03*
%TO.P,U2,N17,DDR_ZQ*%
%TO.N,unconnected-(U2-DDR_ZQ-PadN17)*%
X63900000Y-180600000D03*
%TO.P,U2,P1,PH0*%
%TO.N,unconnected-(U2-PH0-PadP1)*%
X64700000Y-193400000D03*
%TO.P,U2,P2,PH1*%
%TO.N,unconnected-(U2-PH1-PadP2)*%
X64700000Y-192600000D03*
%TO.P,U2,P3,PA13*%
%TO.N,unconnected-(U2-PA13-PadP3)*%
X64700000Y-191800000D03*
%TO.P,U2,P4,PF14*%
%TO.N,unconnected-(U2-PF14-PadP4)*%
X64700000Y-191000000D03*
%TO.P,U2,P5,PA2*%
%TO.N,unconnected-(U2-PA2-PadP5)*%
X64700000Y-190200000D03*
%TO.P,U2,P6,VREF-*%
%TO.N,unconnected-(U2-VREF--PadP6)*%
X64700000Y-189400000D03*
%TO.P,U2,P7,VDDA*%
%TO.N,unconnected-(U2-VDDA-PadP7)*%
X64700000Y-188600000D03*
%TO.P,U2,P8,PG13*%
%TO.N,unconnected-(U2-PG13-PadP8)*%
X64700000Y-187800000D03*
%TO.P,U2,P9,PG14*%
%TO.N,unconnected-(U2-PG14-PadP9)*%
X64700000Y-187000000D03*
%TO.P,U2,P10,VDD3V3_USBHS*%
%TO.N,unconnected-(U2-VDD3V3_USBHS-PadP10)*%
X64700000Y-186200000D03*
%TO.P,U2,P11,VSS*%
%TO.N,Net-(U2-VSS-PadA1)*%
X64700000Y-185400000D03*
%TO.P,U2,P12,PI5*%
%TO.N,unconnected-(U2-PI5-PadP12)*%
X64700000Y-184600000D03*
%TO.P,U2,P13,VSS_PLL2*%
%TO.N,unconnected-(U2-VSS_PLL2-PadP13)*%
X64700000Y-183800000D03*
%TO.P,U2,P14,PWR_ON*%
%TO.N,unconnected-(U2-PWR_ON-PadP14)*%
X64700000Y-183000000D03*
%TO.P,U2,P15,DDR_DQ11*%
%TO.N,unconnected-(U2-DDR_DQ11-PadP15)*%
X64700000Y-182200000D03*
%TO.P,U2,P16,DDR_DQ13*%
%TO.N,unconnected-(U2-DDR_DQ13-PadP16)*%
X64700000Y-181400000D03*
%TO.P,U2,P17,DDR_DQ9*%
%TO.N,unconnected-(U2-DDR_DQ9-PadP17)*%
X64700000Y-180600000D03*
%TO.P,U2,R1,PG2*%
%TO.N,unconnected-(U2-PG2-PadR1)*%
X65500000Y-193400000D03*
%TO.P,U2,R2,PH3*%
%TO.N,unconnected-(U2-PH3-PadR2)*%
X65500000Y-192600000D03*
%TO.P,U2,R3,PWR_CPU_ON*%
%TO.N,unconnected-(U2-PWR_CPU_ON-PadR3)*%
X65500000Y-191800000D03*
%TO.P,U2,R4,PA1*%
%TO.N,unconnected-(U2-PA1-PadR4)*%
X65500000Y-191000000D03*
%TO.P,U2,R5,VSS*%
%TO.N,Net-(U2-VSS-PadA1)*%
X65500000Y-190200000D03*
%TO.P,U2,R6,VREF+*%
%TO.N,unconnected-(U2-VREF+-PadR6)*%
X65500000Y-189400000D03*
%TO.P,U2,R7,PC5*%
%TO.N,unconnected-(U2-PC5-PadR7)*%
X65500000Y-188600000D03*
%TO.P,U2,R8,VSS*%
%TO.N,Net-(U2-VSS-PadA1)*%
X65500000Y-187800000D03*
%TO.P,U2,R9,VDD*%
%TO.N,Net-(U2-VDD-PadF10)*%
X65500000Y-187000000D03*
%TO.P,U2,R10,PF15*%
%TO.N,unconnected-(U2-PF15-PadR10)*%
X65500000Y-186200000D03*
%TO.P,U2,R11,VDDA1V8_REG*%
%TO.N,unconnected-(U2-VDDA1V8_REG-PadR11)*%
X65500000Y-185400000D03*
%TO.P,U2,R12,PI6*%
%TO.N,unconnected-(U2-PI6-PadR12)*%
X65500000Y-184600000D03*
%TO.P,U2,R13,VDD_PLL2*%
%TO.N,unconnected-(U2-VDD_PLL2-PadR13)*%
X65500000Y-183800000D03*
%TO.P,U2,R14,PH5*%
%TO.N,unconnected-(U2-PH5-PadR14)*%
X65500000Y-183000000D03*
%TO.P,U2,R15,DDR_DQ12*%
%TO.N,unconnected-(U2-DDR_DQ12-PadR15)*%
X65500000Y-182200000D03*
%TO.P,U2,R16,DDR_DQS1N*%
%TO.N,unconnected-(U2-DDR_DQS1N-PadR16)*%
X65500000Y-181400000D03*
%TO.P,U2,R17,DDR_DQS1P*%
%TO.N,unconnected-(U2-DDR_DQS1P-PadR17)*%
X65500000Y-180600000D03*
%TO.P,U2,T1,PG12*%
%TO.N,unconnected-(U2-PG12-PadT1)*%
X66300000Y-193400000D03*
%TO.P,U2,T2,PA11*%
%TO.N,unconnected-(U2-PA11-PadT2)*%
X66300000Y-192600000D03*
%TO.P,U2,T3,PC0*%
%TO.N,unconnected-(U2-PC0-PadT3)*%
X66300000Y-191800000D03*
%TO.P,U2,T4,PF12*%
%TO.N,unconnected-(U2-PF12-PadT4)*%
X66300000Y-191000000D03*
%TO.P,U2,T5,PC3*%
%TO.N,unconnected-(U2-PC3-PadT5)*%
X66300000Y-190200000D03*
%TO.P,U2,T6,PF11*%
%TO.N,unconnected-(U2-PF11-PadT6)*%
X66300000Y-189400000D03*
%TO.P,U2,T7,PB1*%
%TO.N,unconnected-(U2-PB1-PadT7)*%
X66300000Y-188600000D03*
%TO.P,U2,T8,PA6*%
%TO.N,unconnected-(U2-PA6-PadT8)*%
X66300000Y-187800000D03*
%TO.P,U2,T9,PE5*%
%TO.N,unconnected-(U2-PE5-PadT9)*%
X66300000Y-187000000D03*
%TO.P,U2,T10,PDR_ON*%
%TO.N,unconnected-(U2-PDR_ON-PadT10)*%
X66300000Y-186200000D03*
%TO.P,U2,T11,USB_DP2*%
%TO.N,unconnected-(U2-USB_DP2-PadT11)*%
X66300000Y-185400000D03*
%TO.P,U2,T12,PA14*%
%TO.N,unconnected-(U2-PA14-PadT12)*%
X66300000Y-184600000D03*
%TO.P,U2,T13,USB_DP1*%
%TO.N,unconnected-(U2-USB_DP1-PadT13)*%
X66300000Y-183800000D03*
%TO.P,U2,T14,BYPASS_REG1V8*%
%TO.N,unconnected-(U2-BYPASS_REG1V8-PadT14)*%
X66300000Y-183000000D03*
%TO.P,U2,T15,PH4*%
%TO.N,unconnected-(U2-PH4-PadT15)*%
X66300000Y-182200000D03*
%TO.P,U2,T16,DDR_DQ15*%
%TO.N,unconnected-(U2-DDR_DQ15-PadT16)*%
X66300000Y-181400000D03*
%TO.P,U2,T17,DDR_DQ14*%
%TO.N,unconnected-(U2-DDR_DQ14-PadT17)*%
X66300000Y-180600000D03*
%TO.P,U2,U1,VSS*%
%TO.N,Net-(U2-VSS-PadA1)*%
X67100000Y-193400000D03*
%TO.P,U2,U2,PA7*%
%TO.N,unconnected-(U2-PA7-PadU2)*%
X67100000Y-192600000D03*
%TO.P,U2,U3,PA0*%
%TO.N,unconnected-(U2-PA0-PadU3)*%
X67100000Y-191800000D03*
%TO.P,U2,U4,PA5*%
%TO.N,unconnected-(U2-PA5-PadU4)*%
X67100000Y-191000000D03*
%TO.P,U2,U5,PA4*%
%TO.N,unconnected-(U2-PA4-PadU5)*%
X67100000Y-190200000D03*
%TO.P,U2,U6,PC4*%
%TO.N,unconnected-(U2-PC4-PadU6)*%
X67100000Y-189400000D03*
%TO.P,U2,U7,PB0*%
%TO.N,unconnected-(U2-PB0-PadU7)*%
X67100000Y-188600000D03*
%TO.P,U2,U8,PC1*%
%TO.N,unconnected-(U2-PC1-PadU8)*%
X67100000Y-187800000D03*
%TO.P,U2,U9,PC2*%
%TO.N,unconnected-(U2-PC2-PadU9)*%
X67100000Y-187000000D03*
%TO.P,U2,U10,NRST*%
%TO.N,unconnected-(U2-NRST-PadU10)*%
X67100000Y-186200000D03*
%TO.P,U2,U11,USB_DM2*%
%TO.N,unconnected-(U2-USB_DM2-PadU11)*%
X67100000Y-185400000D03*
%TO.P,U2,U12,USB_RREF*%
%TO.N,unconnected-(U2-USB_RREF-PadU12)*%
X67100000Y-184600000D03*
%TO.P,U2,U13,USB_DM1*%
%TO.N,unconnected-(U2-USB_DM1-PadU13)*%
X67100000Y-183800000D03*
%TO.P,U2,U14,PI4*%
%TO.N,unconnected-(U2-PI4-PadU14)*%
X67100000Y-183000000D03*
%TO.P,U2,U15,PA10*%
%TO.N,unconnected-(U2-PA10-PadU15)*%
X67100000Y-182200000D03*
%TO.P,U2,U16,PI7*%
%TO.N,unconnected-(U2-PI7-PadU16)*%
X67100000Y-181400000D03*
%TO.P,U2,U17,VSS*%
%TO.N,Net-(U2-VSS-PadA1)*%
X67100000Y-180600000D03*
%TD*%
D26*
%TO.P,C7,1*%
%TO.N,VDC*%
X126108200Y-137763000D03*
%TO.P,C7,2*%
%TO.N,GND*%
X126108200Y-134813000D03*
%TD*%
D14*
%TO.P,R2,1*%
%TO.N,Net-(U6-VSENSE)*%
X131772000Y-132945600D03*
%TO.P,R2,2*%
%TO.N,GND*%
X130752000Y-132945600D03*
%TD*%
D26*
%TO.P,C11,1*%
%TO.N,VDC*%
X148523600Y-137682600D03*
%TO.P,C11,2*%
%TO.N,GND*%
X148523600Y-134732600D03*
%TD*%
D27*
%TO.P,D1,1,K*%
%TO.N,Net-(D1-K)*%
X128420700Y-139988000D03*
%TO.P,D1,2,A*%
%TO.N,GND*%
X129995700Y-139988000D03*
%TD*%
D26*
%TO.P,C8,1*%
%TO.N,VDC*%
X123808200Y-137763000D03*
%TO.P,C8,2*%
%TO.N,GND*%
X123808200Y-134813000D03*
%TD*%
D28*
%TO.P,C15,1*%
%TO.N,GND*%
X154328600Y-103338200D03*
%TO.P,C15,2*%
%TO.N,XOUT*%
X154328600Y-102378200D03*
%TD*%
D29*
%TO.P,J2,a1,Pin_a1*%
%TO.N,+5V*%
X117900000Y-118800000D03*
D30*
%TO.P,J2,a2,Pin_a2*%
X117900000Y-116800000D03*
%TO.P,J2,a3,Pin_a3*%
%TO.N,GND*%
X117900000Y-114800000D03*
%TO.P,J2,a4,Pin_a4*%
X117900000Y-112800000D03*
%TO.P,J2,a5,Pin_a5*%
X117900000Y-110800000D03*
%TO.P,J2,a6,Pin_a6*%
%TO.N,SERIAL_TTL_RX*%
X117900000Y-108800000D03*
%TO.P,J2,a7,Pin_a7*%
%TO.N,SERIAL_TTL_TX*%
X117900000Y-106800000D03*
%TO.P,J2,a8,Pin_a8*%
%TO.N,GND*%
X117900000Y-104800000D03*
%TO.P,J2,a9,Pin_a9*%
%TO.N,RS232_DOUT*%
X117900000Y-102800000D03*
%TO.P,J2,a10,Pin_a10*%
%TO.N,RS232_RIN*%
X117900000Y-100800000D03*
%TO.P,J2,a11,Pin_a11*%
%TO.N,GND*%
X117900000Y-98800000D03*
%TO.P,J2,a12,Pin_a12*%
%TO.N,DIGITAL_1*%
X117900000Y-96800000D03*
%TO.P,J2,a13,Pin_a13*%
%TO.N,DIGITAL_2*%
X117900000Y-94800000D03*
%TO.P,J2,a14,Pin_a14*%
%TO.N,DIGITAL_3*%
X117900000Y-92800000D03*
%TO.P,J2,a15,Pin_a15*%
%TO.N,DIGITAL_4*%
X117900000Y-90800000D03*
%TO.P,J2,a16,Pin_a16*%
%TO.N,DIGITAL_5*%
X117900000Y-88800000D03*
%TO.P,J2,a17,Pin_a17*%
%TO.N,DIGITAL_6*%
X117900000Y-86800000D03*
%TO.P,J2,a18,Pin_a18*%
%TO.N,DIGITAL_7*%
X117900000Y-84800000D03*
%TO.P,J2,a19,Pin_a19*%
%TO.N,DIGITAL_8*%
X117900000Y-82800000D03*
%TO.P,J2,a20,Pin_a20*%
%TO.N,GND*%
X117900000Y-80800000D03*
%TO.P,J2,b1,Pin_b1*%
%TO.N,+5V*%
X115900000Y-118800000D03*
%TO.P,J2,b2,Pin_b2*%
X115900000Y-116800000D03*
%TO.P,J2,b3,Pin_b3*%
%TO.N,GND*%
X115900000Y-114800000D03*
%TO.P,J2,b4,Pin_b4*%
%TO.N,CANH*%
X115900000Y-112800000D03*
%TO.P,J2,b5,Pin_b5*%
%TO.N,CANL*%
X115900000Y-110800000D03*
%TO.P,J2,b6,Pin_b6*%
%TO.N,GND*%
X115900000Y-108800000D03*
%TO.P,J2,b7,Pin_b7*%
%TO.N,ANALOG_01*%
X115900000Y-106800000D03*
%TO.P,J2,b8,Pin_b8*%
%TO.N,ANALOG_02*%
X115900000Y-104800000D03*
%TO.P,J2,b9,Pin_b9*%
%TO.N,ANALOG_03*%
X115900000Y-102800000D03*
%TO.P,J2,b10,Pin_b10*%
%TO.N,ANALOG_04*%
X115900000Y-100800000D03*
%TO.P,J2,b11,Pin_b11*%
%TO.N,ANALOG_05*%
X115900000Y-98800000D03*
%TO.P,J2,b12,Pin_b12*%
%TO.N,ANALOG_06*%
X115900000Y-96800000D03*
%TO.P,J2,b13,Pin_b13*%
%TO.N,ANALOG_07*%
X115900000Y-94800000D03*
%TO.P,J2,b14,Pin_b14*%
%TO.N,ANALOG_08*%
X115900000Y-92800000D03*
%TO.P,J2,b15,Pin_b15*%
%TO.N,ANALOG_09*%
X115900000Y-90800000D03*
%TO.P,J2,b16,Pin_b16*%
%TO.N,ANALOG_10*%
X115900000Y-88800000D03*
%TO.P,J2,b17,Pin_b17*%
%TO.N,ANALOG_11*%
X115900000Y-86800000D03*
%TO.P,J2,b18,Pin_b18*%
%TO.N,ANALOG_12*%
X115900000Y-84800000D03*
%TO.P,J2,b19,Pin_b19*%
%TO.N,ANALOG_13*%
X115900000Y-82800000D03*
%TO.P,J2,b20,Pin_b20*%
%TO.N,GND*%
X115900000Y-80800000D03*
%TD*%
D11*
%TO.P,L2,1,1*%
%TO.N,Net-(D2-K)*%
X161798000Y-139986200D03*
%TO.P,L2,2,2*%
%TO.N,+3V3*%
X161798000Y-134486200D03*
%TD*%
D18*
%TO.P,U6,1,BOOT*%
%TO.N,Net-(U6-BOOT)*%
X133748200Y-138368000D03*
%TO.P,U6,2,NC*%
%TO.N,unconnected-(U6-NC-Pad2)*%
X133748200Y-137098000D03*
%TO.P,U6,3,NC*%
%TO.N,unconnected-(U6-NC-Pad3)*%
X133748200Y-135828000D03*
%TO.P,U6,4,VSENSE*%
%TO.N,Net-(U6-VSENSE)*%
X133748200Y-134558000D03*
%TO.P,U6,5,EN*%
%TO.N,unconnected-(U6-EN-Pad5)*%
X128348200Y-134558000D03*
%TO.P,U6,6,GND*%
%TO.N,GND*%
X128348200Y-135828000D03*
%TO.P,U6,7,VIN*%
%TO.N,VDC*%
X128348200Y-137098000D03*
%TO.P,U6,8,PH*%
%TO.N,Net-(D1-K)*%
X128348200Y-138368000D03*
D19*
%TO.P,U6,9,GNDPAD*%
%TO.N,GND*%
X131648200Y-138263000D03*
X131648200Y-137063000D03*
X131648200Y-135763000D03*
X131648200Y-134663000D03*
D20*
X131048200Y-136463000D03*
D21*
X131048200Y-136463000D03*
D19*
X130448200Y-138263000D03*
X130448200Y-137063000D03*
X130448200Y-135763000D03*
X130448200Y-134663000D03*
%TD*%
D31*
%TO.P,Y1,1,1*%
%TO.N,XIN*%
X151193000Y-103761400D03*
%TO.P,Y1,2,2*%
%TO.N,GND*%
X152943000Y-103761400D03*
%TO.P,Y1,3,3*%
%TO.N,XOUT*%
X152943000Y-102361400D03*
%TO.P,Y1,4,4*%
%TO.N,GND*%
X151193000Y-102361400D03*
%TD*%
D32*
%TO.P,U10,1,VI*%
%TO.N,unconnected-(U10-VI-Pad1)*%
X170325700Y-129001200D03*
%TO.P,U10,2,GND*%
%TO.N,unconnected-(U10-GND-Pad2)*%
X170325700Y-129501200D03*
%TO.P,U10,3,VO*%
%TO.N,unconnected-(U10-VO-Pad3)*%
X170325700Y-130001200D03*
%TO.P,U10,4*%
%TO.N,N/C*%
X170325700Y-130501200D03*
%TO.P,U10,5*%
X170325700Y-131001200D03*
%TO.P,U10,6*%
X170325700Y-131501200D03*
D33*
%TO.P,U10,7*%
X171038200Y-132213700D03*
%TO.P,U10,8*%
X171538200Y-132213700D03*
%TO.P,U10,9*%
X172038200Y-132213700D03*
%TO.P,U10,10*%
X172538200Y-132213700D03*
%TO.P,U10,11*%
X173038200Y-132213700D03*
%TO.P,U10,12*%
X173538200Y-132213700D03*
D32*
%TO.P,U10,13*%
X174250700Y-131501200D03*
%TO.P,U10,14*%
X174250700Y-131001200D03*
%TO.P,U10,15*%
X174250700Y-130501200D03*
%TO.P,U10,16*%
X174250700Y-130001200D03*
%TO.P,U10,17*%
X174250700Y-129501200D03*
%TO.P,U10,18*%
X174250700Y-129001200D03*
D33*
%TO.P,U10,19*%
X173538200Y-128288700D03*
%TO.P,U10,20*%
X173038200Y-128288700D03*
%TO.P,U10,21*%
X172538200Y-128288700D03*
%TO.P,U10,22*%
X172038200Y-128288700D03*
%TO.P,U10,23*%
X171538200Y-128288700D03*
%TO.P,U10,24*%
X171038200Y-128288700D03*
D34*
%TO.P,U10,25*%
X172288200Y-130251200D03*
%TD*%
D13*
%TO.P,C13,1*%
%TO.N,Net-(U9-BOOT)*%
X156123600Y-139627600D03*
%TO.P,C13,2*%
%TO.N,Net-(D2-K)*%
X156123600Y-140587600D03*
%TD*%
D35*
%TO.P,U3,A1,PB10*%
%TO.N,RPI_GPIO18*%
X149007800Y-89283400D03*
%TO.P,U3,A2,PB8*%
%TO.N,RPI_GPIO14*%
X149757800Y-89283400D03*
%TO.P,U3,A3,PB6*%
%TO.N,RPI_GPIO9*%
X150507800Y-89283400D03*
%TO.P,U3,A4,PB4*%
%TO.N,RPI_GPIO22*%
X151257800Y-89283400D03*
%TO.P,U3,A5,PB1*%
%TO.N,SERIAL_TTL_TX*%
X152007800Y-89283400D03*
%TO.P,U3,A6,PB0*%
%TO.N,SERIAL_TTL_RX*%
X152757800Y-89283400D03*
%TO.P,U3,A7,DDR_D1*%
%TO.N,DDR_D1*%
X153507800Y-89283400D03*
%TO.P,U3,A8,DDR_DQSN0*%
%TO.N,DDR_DQSN0*%
X154257800Y-89283400D03*
%TO.P,U3,A9,DDR_D4*%
%TO.N,DDR_D4*%
X155007800Y-89283400D03*
%TO.P,U3,A10,DDR_D6*%
%TO.N,DDR_D6*%
X155757800Y-89283400D03*
%TO.P,U3,A11,DDR_A11*%
%TO.N,DDR_A11*%
X156507800Y-89283400D03*
%TO.P,U3,A12,DDR_A3*%
%TO.N,DDR_A3*%
X157257800Y-89283400D03*
%TO.P,U3,A13,DDR_CLK*%
%TO.N,DDR_CLKP*%
X158007800Y-89283400D03*
%TO.P,U3,A14,DDR_WE*%
%TO.N,DDR_WE*%
X158757800Y-89283400D03*
%TO.P,U3,B1,PB11*%
%TO.N,RPI_GPIO23*%
X149007800Y-90033400D03*
%TO.P,U3,B2,PB12*%
%TO.N,RPI_GPIO24*%
X149757800Y-90033400D03*
%TO.P,U3,B3,PB9*%
%TO.N,RPI_GPIO15*%
X150507800Y-90033400D03*
%TO.P,U3,B4,PB7*%
%TO.N,RPI_GPIO11*%
X151257800Y-90033400D03*
%TO.P,U3,B5,PB3*%
%TO.N,RPI_GPIO27*%
X152007800Y-90033400D03*
%TO.P,U3,B6,PB2*%
%TO.N,RPI_GPIO17*%
X152757800Y-90033400D03*
%TO.P,U3,B7,DDR_D0*%
%TO.N,DDR_D0*%
X153507800Y-90033400D03*
%TO.P,U3,B8,DDR_DQS0*%
%TO.N,DDR_DQS0*%
X154257800Y-90033400D03*
%TO.P,U3,B9,DDR_D3*%
%TO.N,DDR_D3*%
X155007800Y-90033400D03*
%TO.P,U3,B10,DDR_D7*%
%TO.N,DDR_D7*%
X155757800Y-90033400D03*
%TO.P,U3,B11,DDR_A12*%
%TO.N,DDR_A12*%
X156507800Y-90033400D03*
%TO.P,U3,B12,DDR_A2*%
%TO.N,DDR_A2*%
X157257800Y-90033400D03*
%TO.P,U3,B13,DDR_CLKN*%
%TO.N,DDR_CLKN*%
X158007800Y-90033400D03*
%TO.P,U3,B14,DDR_A6*%
%TO.N,DDR_A6*%
X158757800Y-90033400D03*
%TO.P,U3,C1,PB13*%
%TO.N,RPI_GPIO25*%
X149007800Y-90783400D03*
%TO.P,U3,C2,PB17*%
%TO.N,RPI_GPIO3*%
X149757800Y-90783400D03*
%TO.P,U3,C3,PB20*%
%TO.N,DIGITAL_2*%
X150507800Y-90783400D03*
%TO.P,U3,C4,PB19*%
%TO.N,DIGITAL_1*%
X151257800Y-90783400D03*
%TO.P,U3,C5,PB16*%
%TO.N,RPI_GPIO2*%
X152007800Y-90783400D03*
%TO.P,U3,C6,VDDIODDR*%
%TO.N,+1V5*%
X152757800Y-90783400D03*
%TO.P,U3,C7,GNDIODDR*%
%TO.N,GND*%
X153507800Y-90783400D03*
%TO.P,U3,C8,DDR_D2*%
%TO.N,DDR_D2*%
X154257800Y-90783400D03*
%TO.P,U3,C9,DDR_D5*%
%TO.N,DDR_D5*%
X155007800Y-90783400D03*
%TO.P,U3,C10,DDR_A8*%
%TO.N,DDR_A8*%
X155757800Y-90783400D03*
%TO.P,U3,C11,DDR_A1*%
%TO.N,DDR_A1*%
X156507800Y-90783400D03*
%TO.P,U3,C12,DDR_VREF*%
%TO.N,+1V5*%
X157257800Y-90783400D03*
%TO.P,U3,C13,DDR_CAS*%
%TO.N,DDR_CAS*%
X158007800Y-90783400D03*
%TO.P,U3,C14,DDR_RAS*%
%TO.N,DDR_RAS*%
X158757800Y-90783400D03*
%TO.P,U3,D1,PB21*%
%TO.N,DIGITAL_3*%
X149007800Y-91533400D03*
%TO.P,U3,D2,PB22*%
%TO.N,DIGITAL_4*%
X149757800Y-91533400D03*
%TO.P,U3,D3,PB24*%
%TO.N,DIGITAL_6*%
X150507800Y-91533400D03*
%TO.P,U3,D4,PB18*%
%TO.N,RPI_GPIO4*%
X151257800Y-91533400D03*
%TO.P,U3,D5,PB14*%
%TO.N,RPI_GPIO8*%
X152007800Y-91533400D03*
%TO.P,U3,D6,PB5*%
%TO.N,RPI_GPIO10*%
X152757800Y-91533400D03*
%TO.P,U3,D7,VDDIOP0*%
%TO.N,+3V3*%
X153507800Y-91533400D03*
%TO.P,U3,D8,DDR_DQM0*%
%TO.N,DDR_DQM0*%
X154257800Y-91533400D03*
%TO.P,U3,D9,DDR_A7*%
%TO.N,DDR_A7*%
X155007800Y-91533400D03*
%TO.P,U3,D10,DDR_A9*%
%TO.N,DDR_A9*%
X155757800Y-91533400D03*
%TO.P,U3,D11,DDR_A4*%
%TO.N,DDR_A4*%
X156507800Y-91533400D03*
%TO.P,U3,D12,GNDIODDR*%
%TO.N,GND*%
X157257800Y-91533400D03*
%TO.P,U3,D13,~{DDR_RESET}*%
%TO.N,~{DDR_RESET}*%
X158007800Y-91533400D03*
%TO.P,U3,D14,DDR_A5*%
%TO.N,DDR_A5*%
X158757800Y-91533400D03*
%TO.P,U3,E1,PB23*%
%TO.N,DIGITAL_5*%
X149007800Y-92283400D03*
%TO.P,U3,E2,PB26*%
%TO.N,DIGITAL_8*%
X149757800Y-92283400D03*
%TO.P,U3,E3,PB25*%
%TO.N,DIGITAL_7*%
X150507800Y-92283400D03*
%TO.P,U3,E4,GNDIOP0*%
%TO.N,GND*%
X151257800Y-92283400D03*
%TO.P,U3,E5,PB15*%
%TO.N,RPI_GPIO7*%
X152007800Y-92283400D03*
%TO.P,U3,E6,PB27*%
%TO.N,~{SOC_RS232_FORCEOFF}*%
X152757800Y-92283400D03*
%TO.P,U3,E7,GNDIOP0*%
%TO.N,GND*%
X153507800Y-92283400D03*
%TO.P,U3,E8,VDDCORE*%
%TO.N,+1V2*%
X154257800Y-92283400D03*
%TO.P,U3,E9,GNDIODDR*%
%TO.N,GND*%
X155007800Y-92283400D03*
%TO.P,U3,E10,VDDIODDR*%
%TO.N,+1V5*%
X155757800Y-92283400D03*
%TO.P,U3,E11,DDR_A0*%
%TO.N,DDR_A0*%
X156507800Y-92283400D03*
%TO.P,U3,E12,VDDIODDR*%
%TO.N,+1V5*%
X157257800Y-92283400D03*
%TO.P,U3,E13,DDR_A13*%
%TO.N,DDR_A13*%
X158007800Y-92283400D03*
%TO.P,U3,E14,DDR_CKE*%
%TO.N,DDR_CKE*%
X158757800Y-92283400D03*
%TO.P,U3,F1,PB28*%
%TO.N,ANALOG_05*%
X149007800Y-93033400D03*
%TO.P,U3,F2,PB30*%
%TO.N,ANALOG_10*%
X149757800Y-93033400D03*
%TO.P,U3,F3,PD8*%
%TO.N,ANALOG_02*%
X150507800Y-93033400D03*
%TO.P,U3,F4,VDDIOP0*%
%TO.N,+3V3*%
X151257800Y-93033400D03*
%TO.P,U3,F5,PD7*%
%TO.N,ANALOG_01*%
X152007800Y-93033400D03*
%TO.P,U3,F6,PB29*%
%TO.N,~{SOC_RS232_INVALID}*%
X152757800Y-93033400D03*
%TO.P,U3,F7,PB31*%
%TO.N,unconnected-(U3B-PB31-PadF7)*%
X153507800Y-93033400D03*
%TO.P,U3,F8,GNDCORE*%
%TO.N,GND*%
X154257800Y-93033400D03*
%TO.P,U3,F9,DDR_A10*%
%TO.N,DDR_A10*%
X155007800Y-93033400D03*
%TO.P,U3,F10,DDR_CAL*%
%TO.N,DDR_CAL*%
X155757800Y-93033400D03*
%TO.P,U3,F11,DDR_CS*%
%TO.N,DDR_CS*%
X156507800Y-93033400D03*
%TO.P,U3,F12,GNDIODDR*%
%TO.N,GND*%
X157257800Y-93033400D03*
%TO.P,U3,F13,DDR_BA0*%
%TO.N,DDR_BA0*%
X158007800Y-93033400D03*
%TO.P,U3,F14,DDR_BA2*%
%TO.N,DDR_BA2*%
X158757800Y-93033400D03*
%TO.P,U3,G1,PD16*%
%TO.N,~{SOC_RS232_EN}*%
X149007800Y-93783400D03*
%TO.P,U3,G2,PD17*%
%TO.N,ANALOG_11*%
X149757800Y-93783400D03*
%TO.P,U3,G3,PD18*%
%TO.N,ANALOG_12*%
X150507800Y-93783400D03*
%TO.P,U3,G4,PD10*%
%TO.N,ANALOG_04*%
X151257800Y-93783400D03*
%TO.P,U3,G5,PD9*%
%TO.N,ANALOG_03*%
X152007800Y-93783400D03*
%TO.P,U3,G6,PD14*%
%TO.N,ANALOG_08*%
X152757800Y-93783400D03*
%TO.P,U3,G7,GNDCORE*%
%TO.N,GND*%
X153507800Y-93783400D03*
%TO.P,U3,G8,VDDCORE*%
%TO.N,+1V2*%
X154257800Y-93783400D03*
%TO.P,U3,G9,GNDCORE*%
%TO.N,GND*%
X155007800Y-93783400D03*
%TO.P,U3,G10,VDDIODDR*%
%TO.N,+1V5*%
X155757800Y-93783400D03*
%TO.P,U3,G11,GNDIODDR*%
%TO.N,GND*%
X156507800Y-93783400D03*
%TO.P,U3,G12,VDDIODDR*%
%TO.N,+1V5*%
X157257800Y-93783400D03*
%TO.P,U3,G13,DDR_BA1*%
%TO.N,DDR_BA1*%
X158007800Y-93783400D03*
%TO.P,U3,G14,DDR_DQM1*%
%TO.N,DDR_DQM1*%
X158757800Y-93783400D03*
%TO.P,U3,H1,PD11*%
%TO.N,SOC_RS232_FORCEON*%
X149007800Y-94533400D03*
%TO.P,U3,H2,VDDANA*%
%TO.N,+3V3*%
X149757800Y-94533400D03*
%TO.P,U3,H3,PD13*%
%TO.N,ANALOG_07*%
X150507800Y-94533400D03*
%TO.P,U3,H4,PD19*%
%TO.N,ANALOG_13*%
X151257800Y-94533400D03*
%TO.P,U3,H5,PD15*%
%TO.N,ANALOG_09*%
X152007800Y-94533400D03*
%TO.P,U3,H6,PD12*%
%TO.N,ANALOG_06*%
X152757800Y-94533400D03*
%TO.P,U3,H7,GNDCORE*%
%TO.N,GND*%
X153507800Y-94533400D03*
%TO.P,U3,H8,VDDCORE*%
%TO.N,+1V2*%
X154257800Y-94533400D03*
%TO.P,U3,H9,VDDCORE*%
X155007800Y-94533400D03*
%TO.P,U3,H10,GNDIODDR*%
%TO.N,GND*%
X155757800Y-94533400D03*
%TO.P,U3,H11,VDDIODDR*%
%TO.N,+1V5*%
X156507800Y-94533400D03*
%TO.P,U3,H12,DDR_VREF*%
X157257800Y-94533400D03*
%TO.P,U3,H13,DDR_D8*%
%TO.N,DDR_D8*%
X158007800Y-94533400D03*
%TO.P,U3,H14,DDR_D9*%
%TO.N,DDR_D9*%
X158757800Y-94533400D03*
%TO.P,U3,J1,PD20*%
%TO.N,CAN_STBY*%
X149007800Y-95283400D03*
%TO.P,U3,J2,GNDANA*%
%TO.N,GND*%
X149757800Y-95283400D03*
%TO.P,U3,J3,PD22*%
%TO.N,CAN_RXD*%
X150507800Y-95283400D03*
%TO.P,U3,J4,GNDCORE*%
%TO.N,GND*%
X151257800Y-95283400D03*
%TO.P,U3,J5,VDDCORE*%
%TO.N,+1V2*%
X152007800Y-95283400D03*
%TO.P,U3,J6,GNDAUDIOPLL*%
%TO.N,GND*%
X152757800Y-95283400D03*
%TO.P,U3,J7,CLK_AUDIO*%
%TO.N,unconnected-(U3I-CLK_AUDIO-PadJ7)*%
X153507800Y-95283400D03*
%TO.P,U3,J8,PC5*%
%TO.N,unconnected-(U3C-PC5-PadJ8)*%
X154257800Y-95283400D03*
%TO.P,U3,J9,PC8*%
%TO.N,unconnected-(U3C-PC8-PadJ9)*%
X155007800Y-95283400D03*
%TO.P,U3,J10,VDDIODDR*%
%TO.N,+1V5*%
X155757800Y-95283400D03*
%TO.P,U3,J11,GNDIODDR*%
%TO.N,GND*%
X156507800Y-95283400D03*
%TO.P,U3,J12,DDR_D14*%
%TO.N,DDR_D14*%
X157257800Y-95283400D03*
%TO.P,U3,J13,DDR_D10*%
%TO.N,DDR_D10*%
X158007800Y-95283400D03*
%TO.P,U3,J14,DDR_D11*%
%TO.N,DDR_D11*%
X158757800Y-95283400D03*
%TO.P,U3,K1,PD21*%
%TO.N,CAN_TXD*%
X149007800Y-96033400D03*
%TO.P,U3,K2,PD23*%
%TO.N,SOC_RS232_DIN*%
X149757800Y-96033400D03*
%TO.P,U3,K3,VDDANA*%
%TO.N,+3V3*%
X150507800Y-96033400D03*
%TO.P,U3,K4,GNDANA*%
%TO.N,GND*%
X151257800Y-96033400D03*
%TO.P,U3,K5,PIOBU0*%
%TO.N,DEBUG_SOC*%
X152007800Y-96033400D03*
%TO.P,U3,K6,VDDAUDIOPLL*%
%TO.N,+3V3*%
X152757800Y-96033400D03*
%TO.P,U3,K7,VDDUTMII*%
X153507800Y-96033400D03*
%TO.P,U3,K8,VDDIOP1*%
X154257800Y-96033400D03*
%TO.P,U3,K9,GNDIOP1*%
%TO.N,GND*%
X155007800Y-96033400D03*
%TO.P,U3,K10,PC3*%
%TO.N,unconnected-(U3C-PC3-PadK10)*%
X155757800Y-96033400D03*
%TO.P,U3,K11,VDDFUSE*%
%TO.N,+2V5*%
X156507800Y-96033400D03*
%TO.P,U3,K12,DDR_D15*%
%TO.N,DDR_D15*%
X157257800Y-96033400D03*
%TO.P,U3,K13,DDR_DQSN1*%
%TO.N,DDR_DQSN1*%
X158007800Y-96033400D03*
%TO.P,U3,K14,DDR_DQS1*%
%TO.N,DDR_DQS1*%
X158757800Y-96033400D03*
%TO.P,U3,L1,XOUT32*%
%TO.N,DEBUG_SOC*%
X149007800Y-96783400D03*
%TO.P,U3,L2,ADVREF*%
%TO.N,unconnected-(U3E-ADVREF-PadL2)*%
X149757800Y-96783400D03*
%TO.P,U3,L3,PIOBU1*%
%TO.N,DEBUG_SOC*%
X150507800Y-96783400D03*
%TO.P,U3,L4,JTAGSEL*%
X151257800Y-96783400D03*
%TO.P,U3,L5,PIOBU4*%
X152007800Y-96783400D03*
%TO.P,U3,L6,GNDDPLL*%
%TO.N,GND*%
X152757800Y-96783400D03*
%TO.P,U3,L7,VBG*%
%TO.N,Net-(U3G-VBG)*%
X153507800Y-96783400D03*
%TO.P,U3,L8,GNDUTMII*%
%TO.N,GND*%
X154257800Y-96783400D03*
%TO.P,U3,L9,PA18*%
%TO.N,FLASH_BYTE*%
X155007800Y-96783400D03*
%TO.P,U3,L10,PA25*%
%TO.N,FLASH_D2*%
X155757800Y-96783400D03*
%TO.P,U3,L11,VDDIOP1*%
%TO.N,+3V3*%
X156507800Y-96783400D03*
%TO.P,U3,L12,GNDIOP1*%
%TO.N,GND*%
X157257800Y-96783400D03*
%TO.P,U3,L13,DDR_D12*%
%TO.N,DDR_D12*%
X158007800Y-96783400D03*
%TO.P,U3,L14,DDR_D13*%
%TO.N,DDR_D13*%
X158757800Y-96783400D03*
%TO.P,U3,M1,XIN32*%
%TO.N,DEBUG_SOC*%
X149007800Y-97533400D03*
%TO.P,U3,M2,TST*%
X149757800Y-97533400D03*
%TO.P,U3,M3,PIOBU2*%
X150507800Y-97533400D03*
%TO.P,U3,M4,VDDBU*%
%TO.N,unconnected-(U3H-VDDBU-PadM4)*%
X151257800Y-97533400D03*
%TO.P,U3,M5,GNDBU*%
%TO.N,GND*%
X152007800Y-97533400D03*
%TO.P,U3,M6,PIOBU5*%
%TO.N,DEBUG_SOC*%
X152757800Y-97533400D03*
%TO.P,U3,M7,VDDUTMIC*%
%TO.N,+1V2*%
X153507800Y-97533400D03*
%TO.P,U3,M8,GNDUTMIC*%
%TO.N,GND*%
X154257800Y-97533400D03*
%TO.P,U3,M9,PA20*%
%TO.N,FLASH_WE*%
X155007800Y-97533400D03*
%TO.P,U3,M10,PA21*%
%TO.N,FLASH_PR*%
X155757800Y-97533400D03*
%TO.P,U3,M11,PA28*%
%TO.N,FLASH_D5*%
X156507800Y-97533400D03*
%TO.P,U3,M12,PA31*%
%TO.N,unconnected-(U3A-PA31-PadM12)*%
X157257800Y-97533400D03*
%TO.P,U3,M13,PC0*%
%TO.N,unconnected-(U3C-PC0-PadM13)*%
X158007800Y-97533400D03*
%TO.P,U3,M14,PC7*%
%TO.N,unconnected-(U3C-PC7-PadM14)*%
X158757800Y-97533400D03*
%TO.P,U3,N1,SHDN*%
%TO.N,DEBUG_SOC*%
X149007800Y-98283400D03*
%TO.P,U3,N2,COMPP*%
X149757800Y-98283400D03*
%TO.P,U3,N3,~{RST}*%
X150507800Y-98283400D03*
%TO.P,U3,N4,PIOBU3*%
X151257800Y-98283400D03*
%TO.P,U3,N5,VDDOSC*%
%TO.N,+3V3*%
X152007800Y-98283400D03*
%TO.P,U3,N6,GNDOSC*%
%TO.N,GND*%
X152757800Y-98283400D03*
%TO.P,U3,N7,HHSDPA*%
%TO.N,DEBUG_SOC*%
X153507800Y-98283400D03*
%TO.P,U3,N8,HHSDPB*%
X154257800Y-98283400D03*
%TO.P,U3,N9,PA19*%
%TO.N,FLASH_OE*%
X155007800Y-98283400D03*
%TO.P,U3,N10,PA24*%
%TO.N,FLASH_D1*%
X155757800Y-98283400D03*
%TO.P,U3,N11,PA29*%
%TO.N,FLASH_D6*%
X156507800Y-98283400D03*
%TO.P,U3,N12,PA30*%
%TO.N,FLASH_D7*%
X157257800Y-98283400D03*
%TO.P,U3,N13,PC2*%
%TO.N,unconnected-(U3C-PC2-PadN13)*%
X158007800Y-98283400D03*
%TO.P,U3,N14,PC6*%
%TO.N,unconnected-(U3C-PC6-PadN14)*%
X158757800Y-98283400D03*
%TO.P,U3,P1,WKUP*%
%TO.N,DEBUG_SOC*%
X149007800Y-99033400D03*
%TO.P,U3,P2,COMPN*%
X149757800Y-99033400D03*
%TO.P,U3,P3,VDDPLLA*%
%TO.N,+1V2*%
X150507800Y-99033400D03*
%TO.P,U3,P4,GNDPLLA*%
%TO.N,GND*%
X151257800Y-99033400D03*
%TO.P,U3,P5,XIN*%
%TO.N,XIN*%
X152007800Y-99033400D03*
%TO.P,U3,P6,XOUT*%
%TO.N,XOUT*%
X152757800Y-99033400D03*
%TO.P,U3,P7,HHSDMA*%
%TO.N,DEBUG_SOC*%
X153507800Y-99033400D03*
%TO.P,U3,P8,HHSDMB*%
X154257800Y-99033400D03*
%TO.P,U3,P9,PA22*%
%TO.N,FLASH_BYTE*%
X155007800Y-99033400D03*
%TO.P,U3,P10,PA23*%
%TO.N,FLASH_D0*%
X155757800Y-99033400D03*
%TO.P,U3,P11,PA26*%
%TO.N,FLASH_D3*%
X156507800Y-99033400D03*
%TO.P,U3,P12,PA27*%
%TO.N,FLASH_D4*%
X157257800Y-99033400D03*
%TO.P,U3,P13,PC1*%
%TO.N,unconnected-(U3C-PC1-PadP13)*%
X158007800Y-99033400D03*
%TO.P,U3,P14,PC4*%
%TO.N,unconnected-(U3C-PC4-PadP14)*%
X158757800Y-99033400D03*
%TD*%
D26*
%TO.P,C12,1*%
%TO.N,VDC*%
X146223600Y-137682600D03*
%TO.P,C12,2*%
%TO.N,GND*%
X146223600Y-134732600D03*
%TD*%
D36*
%TO.P,J1,1,Pin_1*%
%TO.N,+3V3*%
X129516800Y-73103600D03*
D37*
%TO.P,J1,2,Pin_2*%
%TO.N,+5V*%
X129516800Y-75643600D03*
%TO.P,J1,3,Pin_3*%
%TO.N,RPI_GPIO2*%
X132056800Y-73103600D03*
%TO.P,J1,4,Pin_4*%
%TO.N,+5V*%
X132056800Y-75643600D03*
%TO.P,J1,5,Pin_5*%
%TO.N,RPI_GPIO3*%
X134596800Y-73103600D03*
%TO.P,J1,6,Pin_6*%
%TO.N,GND*%
X134596800Y-75643600D03*
%TO.P,J1,7,Pin_7*%
%TO.N,RPI_GPIO4*%
X137136800Y-73103600D03*
%TO.P,J1,8,Pin_8*%
%TO.N,RPI_GPIO14*%
X137136800Y-75643600D03*
%TO.P,J1,9,Pin_9*%
%TO.N,GND*%
X139676800Y-73103600D03*
%TO.P,J1,10,Pin_10*%
%TO.N,RPI_GPIO15*%
X139676800Y-75643600D03*
%TO.P,J1,11,Pin_11*%
%TO.N,RPI_GPIO17*%
X142216800Y-73103600D03*
%TO.P,J1,12,Pin_12*%
%TO.N,RPI_GPIO18*%
X142216800Y-75643600D03*
%TO.P,J1,13,Pin_13*%
%TO.N,RPI_GPIO27*%
X144756800Y-73103600D03*
%TO.P,J1,14,Pin_14*%
%TO.N,GND*%
X144756800Y-75643600D03*
%TO.P,J1,15,Pin_15*%
%TO.N,RPI_GPIO22*%
X147296800Y-73103600D03*
%TO.P,J1,16,Pin_16*%
%TO.N,RPI_GPIO23*%
X147296800Y-75643600D03*
%TO.P,J1,17,Pin_17*%
%TO.N,+3V3*%
X149836800Y-73103600D03*
%TO.P,J1,18,Pin_18*%
%TO.N,RPI_GPIO24*%
X149836800Y-75643600D03*
%TO.P,J1,19,Pin_19*%
%TO.N,RPI_GPIO10*%
X152376800Y-73103600D03*
%TO.P,J1,20,Pin_20*%
%TO.N,GND*%
X152376800Y-75643600D03*
%TO.P,J1,21,Pin_21*%
%TO.N,RPI_GPIO9*%
X154916800Y-73103600D03*
%TO.P,J1,22,Pin_22*%
%TO.N,RPI_GPIO25*%
X154916800Y-75643600D03*
%TO.P,J1,23,Pin_23*%
%TO.N,RPI_GPIO11*%
X157456800Y-73103600D03*
%TO.P,J1,24,Pin_24*%
%TO.N,RPI_GPIO8*%
X157456800Y-75643600D03*
%TO.P,J1,25,Pin_25*%
%TO.N,GND*%
X159996800Y-73103600D03*
%TO.P,J1,26,Pin_26*%
%TO.N,RPI_GPIO7*%
X159996800Y-75643600D03*
%TD*%
D16*
%TO.P,C10,1*%
%TO.N,+5V*%
X139562000Y-130635600D03*
%TO.P,C10,2*%
%TO.N,GND*%
X135162000Y-130635600D03*
%TD*%
D10*
%TO.P,H1,1,1*%
%TO.N,GND*%
X180400000Y-74500000D03*
%TD*%
D38*
%TO.P,RTC BATTERY,1*%
%TO.N,N/C*%
X178739800Y-121493600D03*
X178739800Y-106293600D03*
D39*
%TO.P,RTC BATTERY,2*%
X178739800Y-113893600D03*
%TD*%
D40*
%TO.P,R6,1*%
%TO.N,Net-(U5-ZQ)*%
X175150000Y-84413200D03*
%TO.P,R6,2*%
%TO.N,GND*%
X176170000Y-84413200D03*
%TD*%
D41*
%TO.P,U11,A1,V_{DDQ}*%
%TO.N,+1V8*%
X152300000Y-116000000D03*
%TO.P,U11,A2,V_{SSQ}*%
%TO.N,GND*%
X152300000Y-115200000D03*
%TO.P,U11,A9,V_{DDQ}*%
%TO.N,+1V8*%
X152300000Y-109600000D03*
%TO.P,U11,A10*%
%TO.N,N/C*%
X152300000Y-108800000D03*
%TO.P,U11,B1,V_{PP}*%
%TO.N,+1V8*%
X153100000Y-116000000D03*
%TO.P,U11,B9,V_{DD}*%
X153100000Y-109600000D03*
%TO.P,U11,B10*%
%TO.N,N/C*%
X153100000Y-108800000D03*
%TO.P,U11,C3,DQ10*%
%TO.N,FLASH_WE*%
X153900000Y-114400000D03*
%TO.P,U11,C4*%
%TO.N,N/C*%
X153900000Y-113600000D03*
%TO.P,U11,C5*%
X153900000Y-112800000D03*
%TO.P,U11,C6*%
X153900000Y-112000000D03*
%TO.P,U11,C7,DQ11*%
%TO.N,FLASH_OE*%
X153900000Y-111200000D03*
%TO.P,U11,C8,DQ13*%
%TO.N,FLASH_BYTE*%
X153900000Y-110400000D03*
%TO.P,U11,D3,DQ14*%
%TO.N,FLASH_PR*%
X154700000Y-114400000D03*
%TO.P,U11,D4*%
%TO.N,N/C*%
X154700000Y-113600000D03*
%TO.P,U11,D5*%
X154700000Y-112800000D03*
%TO.P,U11,D6*%
X154700000Y-112000000D03*
%TO.P,U11,D7,DQ15*%
%TO.N,FLASH_WE*%
X154700000Y-111200000D03*
%TO.P,U11,D8,V_{SSQ}*%
%TO.N,GND*%
X154700000Y-110400000D03*
%TO.P,U11,E3,V_{SSQ}*%
X155500000Y-114400000D03*
%TO.P,U11,E4*%
%TO.N,N/C*%
X155500000Y-113600000D03*
%TO.P,U11,E5*%
X155500000Y-112800000D03*
%TO.P,U11,E6*%
X155500000Y-112000000D03*
%TO.P,U11,E7,NF/~{LDM}/~{LDBI}*%
%TO.N,FLASH_PR*%
X155500000Y-111200000D03*
%TO.P,U11,E8,V_{SSQ}*%
%TO.N,GND*%
X155500000Y-110400000D03*
%TO.P,U11,F3,LDQS_c*%
%TO.N,FLASH_BYTE*%
X156300000Y-114400000D03*
%TO.P,U11,F4*%
%TO.N,N/C*%
X156300000Y-113600000D03*
%TO.P,U11,F5*%
X156300000Y-112800000D03*
%TO.P,U11,F6*%
X156300000Y-112000000D03*
%TO.P,U11,F7,DQ1*%
%TO.N,FLASH_D1*%
X156300000Y-111200000D03*
%TO.P,U11,F8,V_{DDQ}*%
%TO.N,+1V8*%
X156300000Y-110400000D03*
%TO.P,U11,G3,LDQS_t*%
%TO.N,FLASH_OE*%
X157100000Y-114400000D03*
%TO.P,U11,G4*%
%TO.N,N/C*%
X157100000Y-113600000D03*
%TO.P,U11,G5*%
X157100000Y-112800000D03*
%TO.P,U11,G6*%
X157100000Y-112000000D03*
%TO.P,U11,G7,V_{DD}*%
%TO.N,+1V8*%
X157100000Y-111200000D03*
%TO.P,U11,G8,V_{SS}*%
%TO.N,GND*%
X157100000Y-110400000D03*
%TO.P,U11,H3,DQ2*%
%TO.N,FLASH_D2*%
X157900000Y-114400000D03*
%TO.P,U11,H4*%
%TO.N,N/C*%
X157900000Y-113600000D03*
%TO.P,U11,H5*%
X157900000Y-112800000D03*
%TO.P,U11,H6*%
X157900000Y-112000000D03*
%TO.P,U11,H7,DQ3*%
%TO.N,FLASH_D3*%
X157900000Y-111200000D03*
%TO.P,U11,H8,DQ5*%
%TO.N,FLASH_D5*%
X157900000Y-110400000D03*
%TO.P,U11,J3,DQ6*%
%TO.N,FLASH_D6*%
X158700000Y-114400000D03*
%TO.P,U11,J4*%
%TO.N,N/C*%
X158700000Y-113600000D03*
%TO.P,U11,J5*%
X158700000Y-112800000D03*
%TO.P,U11,J6*%
X158700000Y-112000000D03*
%TO.P,U11,J7,DQ7*%
%TO.N,FLASH_D7*%
X158700000Y-111200000D03*
%TO.P,U11,J8,V_{DDQ}*%
%TO.N,+1V8*%
X158700000Y-110400000D03*
%TO.P,U11,K3,ODT*%
%TO.N,FLASH_PR*%
X159500000Y-114400000D03*
%TO.P,U11,K4*%
%TO.N,N/C*%
X159500000Y-113600000D03*
%TO.P,U11,K5*%
X159500000Y-112800000D03*
%TO.P,U11,K6*%
X159500000Y-112000000D03*
%TO.P,U11,K7,CK_t*%
%TO.N,FLASH_WE*%
X159500000Y-111200000D03*
%TO.P,U11,K8,CK_c*%
%TO.N,FLASH_PR*%
X159500000Y-110400000D03*
%TO.P,U11,L1,V_{DD}*%
%TO.N,+1V8*%
X160300000Y-116000000D03*
%TO.P,U11,L2,A14/~{WE}*%
%TO.N,FLASH_WE*%
X160300000Y-115200000D03*
%TO.P,U11,L9,V_{DD}*%
%TO.N,+1V8*%
X160300000Y-109600000D03*
%TO.P,U11,L10*%
%TO.N,N/C*%
X160300000Y-108800000D03*
%TO.P,U11,M1,V_{REFCA}*%
%TO.N,unconnected-(U11-V_{REFCA}-PadM1)*%
X161100000Y-116000000D03*
%TO.P,U11,M2,BG0*%
%TO.N,unconnected-(U11-BG0-PadM2)*%
X161100000Y-115200000D03*
%TO.P,U11,M9,V_{SS}*%
%TO.N,GND*%
X161100000Y-109600000D03*
%TO.P,U11,M10*%
%TO.N,N/C*%
X161100000Y-108800000D03*
%TD*%
D13*
%TO.P,C14,1*%
%TO.N,GND*%
X149782000Y-102810000D03*
%TO.P,C14,2*%
%TO.N,XIN*%
X149782000Y-103770000D03*
%TD*%
D27*
%TO.P,D2,1,K*%
%TO.N,Net-(D2-K)*%
X150836100Y-139907600D03*
%TO.P,D2,2,A*%
%TO.N,GND*%
X152411100Y-139907600D03*
%TD*%
D42*
%TO.N,*%
X166400000Y-123500000D03*
X160000000Y-123500000D03*
X138500000Y-123500000D03*
X117700000Y-123500000D03*
X130500000Y-123500000D03*
X128900000Y-123500000D03*
X143213000Y-131218000D03*
X161600000Y-123500000D03*
X132100000Y-123500000D03*
X164392000Y-131478200D03*
X112900000Y-123500000D03*
X142513000Y-132218000D03*
X124100000Y-123500000D03*
X142213000Y-127718000D03*
X158400000Y-123500000D03*
X156800000Y-123500000D03*
X120900000Y-123500000D03*
X164792000Y-128578200D03*
X156800000Y-123500000D03*
X163792000Y-132678200D03*
X165492000Y-131378200D03*
X136900000Y-123500000D03*
X119300000Y-123500000D03*
X163200000Y-123500000D03*
X163200000Y-123500000D03*
X163592000Y-128578200D03*
X133700000Y-123500000D03*
X141313000Y-128418000D03*
X122500000Y-123500000D03*
X120900000Y-123500000D03*
X141700000Y-123500000D03*
X136900000Y-123500000D03*
X142113000Y-131318000D03*
X141513000Y-132518000D03*
X164800000Y-123500000D03*
X143213000Y-130118000D03*
X160000000Y-123500000D03*
X166400000Y-123500000D03*
X143300000Y-123500000D03*
X142513000Y-128418000D03*
X128900000Y-123500000D03*
X158400000Y-123500000D03*
X142913000Y-129118000D03*
X155200000Y-123500000D03*
X124100000Y-123500000D03*
X114500000Y-123500000D03*
X117700000Y-123500000D03*
X140513000Y-127618000D03*
X125700000Y-123500000D03*
X164492000Y-127878200D03*
X162792000Y-127778200D03*
X127300000Y-123500000D03*
X127300000Y-123500000D03*
X114500000Y-123500000D03*
X136900000Y-123500000D03*
X122500000Y-123500000D03*
X133700000Y-123500000D03*
X125700000Y-123500000D03*
X138500000Y-123500000D03*
X164800000Y-123500000D03*
X130500000Y-123500000D03*
X164792000Y-132378200D03*
X140100000Y-123500000D03*
X161600000Y-123500000D03*
X116100000Y-123500000D03*
X164592000Y-130378200D03*
X132100000Y-123500000D03*
X164192000Y-129378200D03*
X135300000Y-123500000D03*
X119300000Y-123500000D03*
X138500000Y-123500000D03*
X141913000Y-129218000D03*
X142313000Y-130218000D03*
X140100000Y-123500000D03*
X141700000Y-123500000D03*
X135300000Y-123500000D03*
X116100000Y-123500000D03*
%TO.N,unconnected-(U10-VI-Pad1)*%
X165192000Y-129278200D03*
%TO.N,unconnected-(U10-GND-Pad2)*%
X165492000Y-130278200D03*
%TD*%
D43*
%TO.N,GND*%
X151257800Y-99033400D02*
X151257800Y-102296600D01*
X153905400Y-103761400D02*
X154328600Y-103338200D01*
X149657562Y-104512400D02*
X152192000Y-104512400D01*
X152943000Y-103761400D02*
X153905400Y-103761400D01*
X151257800Y-102296600D02*
X151193000Y-102361400D01*
X151193000Y-102361400D02*
X150230600Y-102361400D01*
X149782000Y-102810000D02*
X149221000Y-103371000D01*
X149221000Y-103371000D02*
X149221000Y-104075838D01*
X154328600Y-103338200D02*
X154938200Y-102728600D01*
X153136600Y-98662200D02*
X152757800Y-98283400D01*
X154938200Y-102728600D02*
X154938200Y-101893000D01*
X153136600Y-101142800D02*
X153582000Y-101588200D01*
X149221000Y-104075838D02*
X149657562Y-104512400D01*
X150230600Y-102361400D02*
X149782000Y-102810000D01*
X151578800Y-102057000D02*
X150633800Y-102057000D01*
X154938200Y-101893000D02*
X154633400Y-101588200D01*
X152192000Y-104512400D02*
X152943000Y-103761400D01*
X153582000Y-101588200D02*
X154633400Y-101588200D01*
X153136600Y-101142800D02*
X153136600Y-98662200D01*
%TO.N,XIN*%
X152007800Y-99033400D02*
X152019000Y-99044600D01*
X151184400Y-103770000D02*
X151193000Y-103761400D01*
X152019000Y-99044600D02*
X152019000Y-102825848D01*
X152007800Y-102946600D02*
X151193000Y-103761400D01*
X152019000Y-102825848D02*
X152007800Y-102837048D01*
X149782000Y-103770000D02*
X151184400Y-103770000D01*
X152007800Y-102837048D02*
X152007800Y-102946600D01*
%TO.N,XOUT*%
X152959800Y-102378200D02*
X152943000Y-102361400D01*
X152757800Y-102176200D02*
X152943000Y-102361400D01*
X152757800Y-99033400D02*
X152757800Y-102176200D01*
X154328600Y-102378200D02*
X152959800Y-102378200D01*
X152779000Y-99054600D02*
X152757800Y-99033400D01*
D44*
%TO.N,RPI_GPIO18*%
X149007800Y-90033400D02*
X146733400Y-90033400D01*
X142216800Y-85516800D02*
X142216800Y-75643600D01*
X146733400Y-90033400D02*
X142216800Y-85516800D01*
%TO.N,FLASH_D5*%
X156507800Y-97533400D02*
X156863800Y-97889400D01*
X156863800Y-109363800D02*
X157900000Y-110400000D01*
X156863800Y-97889400D02*
X156863800Y-109363800D01*
%TO.N,CAN_TXD*%
X142800000Y-101000000D02*
X142800000Y-106500000D01*
X136200000Y-118600000D02*
X134795000Y-120005000D01*
X136200000Y-113100000D02*
X136200000Y-118600000D01*
X147766600Y-96033400D02*
X142800000Y-101000000D01*
X149007800Y-96033400D02*
X147766600Y-96033400D01*
X142800000Y-106500000D02*
X136200000Y-113100000D01*
X134795000Y-120005000D02*
X130675000Y-120005000D01*
%TO.N,DDR_CKE*%
X172100000Y-91643200D02*
X167005000Y-91643200D01*
X167005000Y-91643200D02*
X166364800Y-92283400D01*
X166364800Y-92283400D02*
X158757800Y-92283400D01*
%TO.N,CANH*%
X119001000Y-113701000D02*
X116801000Y-113701000D01*
X124035000Y-118735000D02*
X119001000Y-113701000D01*
X116801000Y-113701000D02*
X115900000Y-112800000D01*
X125725000Y-118735000D02*
X124035000Y-118735000D01*
%TO.N,SOC_RS232_FORCEON*%
X141300000Y-105100000D02*
X135875000Y-110525000D01*
X149007800Y-94533400D02*
X147066600Y-94533400D01*
X147066600Y-94533400D02*
X141300000Y-100300000D01*
X135875000Y-110525000D02*
X131200000Y-110525000D01*
X141300000Y-100300000D02*
X141300000Y-105100000D01*
%TO.N,RS232_RIN*%
X125400000Y-112475000D02*
X123975000Y-112475000D01*
X120300000Y-100800000D02*
X117900000Y-100800000D01*
X121900000Y-102400000D02*
X120300000Y-100800000D01*
X121900000Y-110400000D02*
X121900000Y-102400000D01*
X123975000Y-112475000D02*
X121900000Y-110400000D01*
%TO.N,ANALOG_05*%
X141500000Y-94100000D02*
X122700000Y-94100000D01*
X116801000Y-97899000D02*
X115900000Y-98800000D01*
X118901000Y-97899000D02*
X116801000Y-97899000D01*
X122700000Y-94100000D02*
X118901000Y-97899000D01*
X149007800Y-93033400D02*
X142566600Y-93033400D01*
X142566600Y-93033400D02*
X141500000Y-94100000D01*
%TD*%
M02*
